; NON-PLATED HOLES START AT T1
; THROUGH (PLATED) HOLES START AT T100
M48
INCH
T100C0.042000
T101C0.039370
T102C0.038000
T103C0.040000
T104C0.035000
%
T100
X004755Y012816
X004755Y015796
T101
X011755Y002796
X014755Y007796
X017755Y015796
X008755Y005796
X008755Y018796
X014755Y013796
X008755Y011796
X004755Y008796
X014755Y005796
X014755Y018796
X008755Y016796
X008755Y008796
X014755Y011796
X004755Y006796
X002755Y019796
X014755Y016796
X008755Y014796
X002755Y020796
X014755Y008796
X008755Y006796
X008755Y019796
X008755Y020796
X014755Y014796
X008755Y012796
X014755Y006796
X017755Y014796
X008755Y004796
X014755Y019796
X008755Y017796
X008755Y009796
X014755Y020796
X014755Y012796
X008755Y010796
X004755Y007796
X014755Y004796
X014755Y017796
X008755Y015796
X014755Y009796
X008755Y007796
X014755Y010796
X002755Y018796
X012755Y002796
X010755Y002796
X014755Y015796
X008755Y013796
T102
X006755Y009796
X006755Y007796
X005755Y007796
X005755Y005796
T103
X001755Y008796
X002755Y014796
X001755Y007418
X002755Y013418
T104
X011755Y021796
X017755Y020796
X011755Y017796
X017755Y016796
T00
M30
