G04 MADE WITH FRITZING*
G04 WWW.FRITZING.ORG*
G04 DOUBLE SIDED*
G04 HOLES PLATED*
G04 CONTOUR ON CENTER OF CONTOUR VECTOR*
%ASAXBY*%
%FSLAX23Y23*%
%MOIN*%
%OFA0B0*%
%SFA1.0B1.0*%
%ADD10C,0.077717*%
%ADD11C,0.090000*%
%ADD12C,0.092000*%
%ADD13C,0.088000*%
%ADD14C,0.085000*%
%ADD15R,0.090000X0.090000*%
%ADD16R,0.092000X0.092000*%
%LNMASK0*%
G90*
G70*
G54D10*
X1080Y253D03*
X1180Y253D03*
X1280Y253D03*
X480Y2053D03*
X480Y1953D03*
X480Y1853D03*
X1480Y2053D03*
X1480Y1953D03*
X1480Y1853D03*
X1480Y1753D03*
X1480Y1653D03*
X1480Y1553D03*
X1480Y1453D03*
X1480Y1353D03*
X1480Y1253D03*
X1480Y1153D03*
X1480Y1053D03*
X1480Y953D03*
X1480Y853D03*
X1480Y753D03*
X1480Y653D03*
X1480Y553D03*
X1480Y453D03*
X480Y853D03*
X480Y753D03*
X480Y653D03*
X1780Y1453D03*
X1780Y1553D03*
X880Y2053D03*
X880Y1953D03*
X880Y1853D03*
X880Y1753D03*
X880Y1653D03*
X880Y1553D03*
X880Y1453D03*
X880Y1353D03*
X880Y1253D03*
X880Y1153D03*
X880Y1053D03*
X880Y953D03*
X880Y853D03*
X880Y753D03*
X880Y653D03*
X880Y553D03*
X880Y453D03*
G54D11*
X280Y1453D03*
X280Y1316D03*
X180Y853D03*
X180Y716D03*
G54D12*
X480Y1553D03*
X480Y1255D03*
X480Y1553D03*
X480Y1255D03*
G54D13*
X680Y953D03*
X680Y753D03*
X680Y953D03*
X680Y753D03*
X580Y653D03*
X580Y453D03*
X580Y653D03*
X580Y453D03*
G54D14*
X1780Y2053D03*
X1780Y1653D03*
X1780Y2053D03*
X1780Y1653D03*
G54D15*
X280Y1453D03*
X180Y853D03*
G54D16*
X480Y1554D03*
X480Y1554D03*
G04 End of Mask0*
M02*