; NON-PLATED HOLES START AT T1
; THROUGH (PLATED) HOLES START AT T100
M48
INCH
T100C0.040000
T101C0.035000
T102C0.038000
T103C0.039370
T104C0.042000
%
T100
X002798Y014533
X001798Y008533
X002798Y013155
X001798Y007155
T101
X017798Y016533
X017798Y020533
T102
X006798Y009533
X005798Y004533
X006798Y007533
X005798Y006533
T103
X008798Y008533
X014798Y011533
X004798Y006533
X004798Y019533
X014798Y016533
X008798Y014533
X004798Y020533
X014798Y008533
X008798Y006533
X008798Y019533
X008798Y020533
X014798Y014533
X008798Y012533
X014798Y006533
X017798Y014533
X014798Y019533
X008798Y004533
X008798Y017533
X008798Y009533
X014798Y020533
X014798Y012533
X004798Y007533
X008798Y010533
X014798Y004533
X014798Y017533
X008798Y015533
X014798Y009533
X008798Y007533
X014798Y010533
X004798Y018533
X012798Y002533
X010798Y002533
X014798Y015533
X008798Y013533
X011798Y002533
X014798Y007533
X017798Y015533
X008798Y005533
X008798Y018533
X014798Y013533
X004798Y008533
X008798Y011533
X014798Y005533
X014798Y018533
X008798Y016533
T104
X004798Y015533
X004798Y012553
T00
M30
