G04 MADE WITH FRITZING*
G04 WWW.FRITZING.ORG*
G04 DOUBLE SIDED*
G04 HOLES PLATED*
G04 CONTOUR ON CENTER OF CONTOUR VECTOR*
%ASAXBY*%
%FSLAX23Y23*%
%MOIN*%
%OFA0B0*%
%SFA1.0B1.0*%
%ADD10C,0.010000*%
%ADD11C,0.020000*%
%ADD12R,0.001000X0.001000*%
%LNSILK0*%
G90*
G70*
G54D10*
X435Y1499D02*
X435Y1304D01*
D02*
X525Y1304D02*
X525Y1499D01*
D02*
X525Y1499D02*
X435Y1499D01*
G54D11*
D02*
X525Y1479D02*
X435Y1479D01*
G54D10*
D02*
X630Y703D02*
X630Y403D01*
D02*
X630Y403D02*
X530Y403D01*
D02*
X530Y403D02*
X530Y703D01*
D02*
X530Y703D02*
X630Y703D01*
D02*
X730Y1003D02*
X730Y703D01*
D02*
X730Y703D02*
X630Y703D01*
D02*
X630Y703D02*
X630Y1003D01*
D02*
X630Y1003D02*
X730Y1003D01*
D02*
X1747Y1944D02*
X1747Y1744D01*
D02*
X1747Y1744D02*
X1813Y1744D01*
D02*
X1813Y1744D02*
X1813Y1944D01*
D02*
X1813Y1944D02*
X1747Y1944D01*
G54D12*
X0Y2170D02*
X1925Y2170D01*
X0Y2169D02*
X1925Y2169D01*
X0Y2168D02*
X1925Y2168D01*
X0Y2167D02*
X1925Y2167D01*
X0Y2166D02*
X1925Y2166D01*
X0Y2165D02*
X1925Y2165D01*
X0Y2164D02*
X1925Y2164D01*
X0Y2163D02*
X1925Y2163D01*
X0Y2162D02*
X7Y2162D01*
X1918Y2162D02*
X1925Y2162D01*
X0Y2161D02*
X7Y2161D01*
X1918Y2161D02*
X1925Y2161D01*
X0Y2160D02*
X7Y2160D01*
X1918Y2160D02*
X1925Y2160D01*
X0Y2159D02*
X7Y2159D01*
X1918Y2159D02*
X1925Y2159D01*
X0Y2158D02*
X7Y2158D01*
X1918Y2158D02*
X1925Y2158D01*
X0Y2157D02*
X7Y2157D01*
X1918Y2157D02*
X1925Y2157D01*
X0Y2156D02*
X7Y2156D01*
X1918Y2156D02*
X1925Y2156D01*
X0Y2155D02*
X7Y2155D01*
X1918Y2155D02*
X1925Y2155D01*
X0Y2154D02*
X7Y2154D01*
X1918Y2154D02*
X1925Y2154D01*
X0Y2153D02*
X7Y2153D01*
X1918Y2153D02*
X1925Y2153D01*
X0Y2152D02*
X7Y2152D01*
X1918Y2152D02*
X1925Y2152D01*
X0Y2151D02*
X7Y2151D01*
X1918Y2151D02*
X1925Y2151D01*
X0Y2150D02*
X7Y2150D01*
X1918Y2150D02*
X1925Y2150D01*
X0Y2149D02*
X7Y2149D01*
X1918Y2149D02*
X1925Y2149D01*
X0Y2148D02*
X7Y2148D01*
X1918Y2148D02*
X1925Y2148D01*
X0Y2147D02*
X7Y2147D01*
X1918Y2147D02*
X1925Y2147D01*
X0Y2146D02*
X7Y2146D01*
X1918Y2146D02*
X1925Y2146D01*
X0Y2145D02*
X7Y2145D01*
X1918Y2145D02*
X1925Y2145D01*
X0Y2144D02*
X7Y2144D01*
X1918Y2144D02*
X1925Y2144D01*
X0Y2143D02*
X7Y2143D01*
X1918Y2143D02*
X1925Y2143D01*
X0Y2142D02*
X7Y2142D01*
X1918Y2142D02*
X1925Y2142D01*
X0Y2141D02*
X7Y2141D01*
X1918Y2141D02*
X1925Y2141D01*
X0Y2140D02*
X7Y2140D01*
X1918Y2140D02*
X1925Y2140D01*
X0Y2139D02*
X7Y2139D01*
X1918Y2139D02*
X1925Y2139D01*
X0Y2138D02*
X7Y2138D01*
X1918Y2138D02*
X1925Y2138D01*
X0Y2137D02*
X7Y2137D01*
X1918Y2137D02*
X1925Y2137D01*
X0Y2136D02*
X7Y2136D01*
X1918Y2136D02*
X1925Y2136D01*
X0Y2135D02*
X7Y2135D01*
X1918Y2135D02*
X1925Y2135D01*
X0Y2134D02*
X7Y2134D01*
X1918Y2134D02*
X1925Y2134D01*
X0Y2133D02*
X7Y2133D01*
X1918Y2133D02*
X1925Y2133D01*
X0Y2132D02*
X7Y2132D01*
X1918Y2132D02*
X1925Y2132D01*
X0Y2131D02*
X7Y2131D01*
X1918Y2131D02*
X1925Y2131D01*
X0Y2130D02*
X7Y2130D01*
X1918Y2130D02*
X1925Y2130D01*
X0Y2129D02*
X7Y2129D01*
X1918Y2129D02*
X1925Y2129D01*
X0Y2128D02*
X7Y2128D01*
X1918Y2128D02*
X1925Y2128D01*
X0Y2127D02*
X7Y2127D01*
X1918Y2127D02*
X1925Y2127D01*
X0Y2126D02*
X7Y2126D01*
X1918Y2126D02*
X1925Y2126D01*
X0Y2125D02*
X7Y2125D01*
X1918Y2125D02*
X1925Y2125D01*
X0Y2124D02*
X7Y2124D01*
X1918Y2124D02*
X1925Y2124D01*
X0Y2123D02*
X7Y2123D01*
X1918Y2123D02*
X1925Y2123D01*
X0Y2122D02*
X7Y2122D01*
X1918Y2122D02*
X1925Y2122D01*
X0Y2121D02*
X7Y2121D01*
X1918Y2121D02*
X1925Y2121D01*
X0Y2120D02*
X7Y2120D01*
X1918Y2120D02*
X1925Y2120D01*
X0Y2119D02*
X7Y2119D01*
X1918Y2119D02*
X1925Y2119D01*
X0Y2118D02*
X7Y2118D01*
X1918Y2118D02*
X1925Y2118D01*
X0Y2117D02*
X7Y2117D01*
X1918Y2117D02*
X1925Y2117D01*
X0Y2116D02*
X7Y2116D01*
X1918Y2116D02*
X1925Y2116D01*
X0Y2115D02*
X7Y2115D01*
X1918Y2115D02*
X1925Y2115D01*
X0Y2114D02*
X7Y2114D01*
X1918Y2114D02*
X1925Y2114D01*
X0Y2113D02*
X7Y2113D01*
X1918Y2113D02*
X1925Y2113D01*
X0Y2112D02*
X7Y2112D01*
X1918Y2112D02*
X1925Y2112D01*
X0Y2111D02*
X7Y2111D01*
X1918Y2111D02*
X1925Y2111D01*
X0Y2110D02*
X7Y2110D01*
X1918Y2110D02*
X1925Y2110D01*
X0Y2109D02*
X7Y2109D01*
X1918Y2109D02*
X1925Y2109D01*
X0Y2108D02*
X7Y2108D01*
X1918Y2108D02*
X1925Y2108D01*
X0Y2107D02*
X7Y2107D01*
X1918Y2107D02*
X1925Y2107D01*
X0Y2106D02*
X7Y2106D01*
X1918Y2106D02*
X1925Y2106D01*
X0Y2105D02*
X7Y2105D01*
X1918Y2105D02*
X1925Y2105D01*
X0Y2104D02*
X7Y2104D01*
X1918Y2104D02*
X1925Y2104D01*
X0Y2103D02*
X7Y2103D01*
X1918Y2103D02*
X1925Y2103D01*
X0Y2102D02*
X7Y2102D01*
X1918Y2102D02*
X1925Y2102D01*
X0Y2101D02*
X7Y2101D01*
X1918Y2101D02*
X1925Y2101D01*
X0Y2100D02*
X7Y2100D01*
X1918Y2100D02*
X1925Y2100D01*
X0Y2099D02*
X7Y2099D01*
X1918Y2099D02*
X1925Y2099D01*
X0Y2098D02*
X7Y2098D01*
X1918Y2098D02*
X1925Y2098D01*
X0Y2097D02*
X7Y2097D01*
X1918Y2097D02*
X1925Y2097D01*
X0Y2096D02*
X7Y2096D01*
X1918Y2096D02*
X1925Y2096D01*
X0Y2095D02*
X7Y2095D01*
X1918Y2095D02*
X1925Y2095D01*
X0Y2094D02*
X7Y2094D01*
X1918Y2094D02*
X1925Y2094D01*
X0Y2093D02*
X7Y2093D01*
X1918Y2093D02*
X1925Y2093D01*
X0Y2092D02*
X7Y2092D01*
X1918Y2092D02*
X1925Y2092D01*
X0Y2091D02*
X7Y2091D01*
X1918Y2091D02*
X1925Y2091D01*
X0Y2090D02*
X7Y2090D01*
X1918Y2090D02*
X1925Y2090D01*
X0Y2089D02*
X7Y2089D01*
X1918Y2089D02*
X1925Y2089D01*
X0Y2088D02*
X7Y2088D01*
X1918Y2088D02*
X1925Y2088D01*
X0Y2087D02*
X7Y2087D01*
X1918Y2087D02*
X1925Y2087D01*
X0Y2086D02*
X7Y2086D01*
X1918Y2086D02*
X1925Y2086D01*
X0Y2085D02*
X7Y2085D01*
X1918Y2085D02*
X1925Y2085D01*
X0Y2084D02*
X7Y2084D01*
X1918Y2084D02*
X1925Y2084D01*
X0Y2083D02*
X7Y2083D01*
X1918Y2083D02*
X1925Y2083D01*
X0Y2082D02*
X7Y2082D01*
X1918Y2082D02*
X1925Y2082D01*
X0Y2081D02*
X7Y2081D01*
X1918Y2081D02*
X1925Y2081D01*
X0Y2080D02*
X7Y2080D01*
X1918Y2080D02*
X1925Y2080D01*
X0Y2079D02*
X7Y2079D01*
X1918Y2079D02*
X1925Y2079D01*
X0Y2078D02*
X7Y2078D01*
X1918Y2078D02*
X1925Y2078D01*
X0Y2077D02*
X7Y2077D01*
X1918Y2077D02*
X1925Y2077D01*
X0Y2076D02*
X7Y2076D01*
X1918Y2076D02*
X1925Y2076D01*
X0Y2075D02*
X7Y2075D01*
X1918Y2075D02*
X1925Y2075D01*
X0Y2074D02*
X7Y2074D01*
X1918Y2074D02*
X1925Y2074D01*
X0Y2073D02*
X7Y2073D01*
X1918Y2073D02*
X1925Y2073D01*
X0Y2072D02*
X7Y2072D01*
X1918Y2072D02*
X1925Y2072D01*
X0Y2071D02*
X7Y2071D01*
X1918Y2071D02*
X1925Y2071D01*
X0Y2070D02*
X7Y2070D01*
X1918Y2070D02*
X1925Y2070D01*
X0Y2069D02*
X7Y2069D01*
X1918Y2069D02*
X1925Y2069D01*
X0Y2068D02*
X7Y2068D01*
X1918Y2068D02*
X1925Y2068D01*
X0Y2067D02*
X7Y2067D01*
X1918Y2067D02*
X1925Y2067D01*
X0Y2066D02*
X7Y2066D01*
X1918Y2066D02*
X1925Y2066D01*
X0Y2065D02*
X7Y2065D01*
X1918Y2065D02*
X1925Y2065D01*
X0Y2064D02*
X7Y2064D01*
X1918Y2064D02*
X1925Y2064D01*
X0Y2063D02*
X7Y2063D01*
X1918Y2063D02*
X1925Y2063D01*
X0Y2062D02*
X7Y2062D01*
X1918Y2062D02*
X1925Y2062D01*
X0Y2061D02*
X7Y2061D01*
X1918Y2061D02*
X1925Y2061D01*
X0Y2060D02*
X7Y2060D01*
X1918Y2060D02*
X1925Y2060D01*
X0Y2059D02*
X7Y2059D01*
X1918Y2059D02*
X1925Y2059D01*
X0Y2058D02*
X7Y2058D01*
X1918Y2058D02*
X1925Y2058D01*
X0Y2057D02*
X7Y2057D01*
X1918Y2057D02*
X1925Y2057D01*
X0Y2056D02*
X7Y2056D01*
X1918Y2056D02*
X1925Y2056D01*
X0Y2055D02*
X7Y2055D01*
X1918Y2055D02*
X1925Y2055D01*
X0Y2054D02*
X7Y2054D01*
X1918Y2054D02*
X1925Y2054D01*
X0Y2053D02*
X7Y2053D01*
X1918Y2053D02*
X1925Y2053D01*
X0Y2052D02*
X7Y2052D01*
X1918Y2052D02*
X1925Y2052D01*
X0Y2051D02*
X7Y2051D01*
X1918Y2051D02*
X1925Y2051D01*
X0Y2050D02*
X7Y2050D01*
X1918Y2050D02*
X1925Y2050D01*
X0Y2049D02*
X7Y2049D01*
X1918Y2049D02*
X1925Y2049D01*
X0Y2048D02*
X7Y2048D01*
X1918Y2048D02*
X1925Y2048D01*
X0Y2047D02*
X7Y2047D01*
X1918Y2047D02*
X1925Y2047D01*
X0Y2046D02*
X7Y2046D01*
X1918Y2046D02*
X1925Y2046D01*
X0Y2045D02*
X7Y2045D01*
X1918Y2045D02*
X1925Y2045D01*
X0Y2044D02*
X7Y2044D01*
X1918Y2044D02*
X1925Y2044D01*
X0Y2043D02*
X7Y2043D01*
X1918Y2043D02*
X1925Y2043D01*
X0Y2042D02*
X7Y2042D01*
X1918Y2042D02*
X1925Y2042D01*
X0Y2041D02*
X7Y2041D01*
X1918Y2041D02*
X1925Y2041D01*
X0Y2040D02*
X7Y2040D01*
X1918Y2040D02*
X1925Y2040D01*
X0Y2039D02*
X7Y2039D01*
X1918Y2039D02*
X1925Y2039D01*
X0Y2038D02*
X7Y2038D01*
X1918Y2038D02*
X1925Y2038D01*
X0Y2037D02*
X7Y2037D01*
X1918Y2037D02*
X1925Y2037D01*
X0Y2036D02*
X7Y2036D01*
X1918Y2036D02*
X1925Y2036D01*
X0Y2035D02*
X7Y2035D01*
X1918Y2035D02*
X1925Y2035D01*
X0Y2034D02*
X7Y2034D01*
X1918Y2034D02*
X1925Y2034D01*
X0Y2033D02*
X7Y2033D01*
X1918Y2033D02*
X1925Y2033D01*
X0Y2032D02*
X7Y2032D01*
X1918Y2032D02*
X1925Y2032D01*
X0Y2031D02*
X7Y2031D01*
X1918Y2031D02*
X1925Y2031D01*
X0Y2030D02*
X7Y2030D01*
X1918Y2030D02*
X1925Y2030D01*
X0Y2029D02*
X7Y2029D01*
X1918Y2029D02*
X1925Y2029D01*
X0Y2028D02*
X7Y2028D01*
X1918Y2028D02*
X1925Y2028D01*
X0Y2027D02*
X7Y2027D01*
X1918Y2027D02*
X1925Y2027D01*
X0Y2026D02*
X7Y2026D01*
X1918Y2026D02*
X1925Y2026D01*
X0Y2025D02*
X7Y2025D01*
X1918Y2025D02*
X1925Y2025D01*
X0Y2024D02*
X7Y2024D01*
X1918Y2024D02*
X1925Y2024D01*
X0Y2023D02*
X7Y2023D01*
X1918Y2023D02*
X1925Y2023D01*
X0Y2022D02*
X7Y2022D01*
X1918Y2022D02*
X1925Y2022D01*
X0Y2021D02*
X7Y2021D01*
X1918Y2021D02*
X1925Y2021D01*
X0Y2020D02*
X7Y2020D01*
X1918Y2020D02*
X1925Y2020D01*
X0Y2019D02*
X7Y2019D01*
X1918Y2019D02*
X1925Y2019D01*
X0Y2018D02*
X7Y2018D01*
X1918Y2018D02*
X1925Y2018D01*
X0Y2017D02*
X7Y2017D01*
X1918Y2017D02*
X1925Y2017D01*
X0Y2016D02*
X7Y2016D01*
X1918Y2016D02*
X1925Y2016D01*
X0Y2015D02*
X7Y2015D01*
X1918Y2015D02*
X1925Y2015D01*
X0Y2014D02*
X7Y2014D01*
X1918Y2014D02*
X1925Y2014D01*
X0Y2013D02*
X7Y2013D01*
X1918Y2013D02*
X1925Y2013D01*
X0Y2012D02*
X7Y2012D01*
X1918Y2012D02*
X1925Y2012D01*
X0Y2011D02*
X7Y2011D01*
X1774Y2011D02*
X1783Y2011D01*
X1918Y2011D02*
X1925Y2011D01*
X0Y2010D02*
X7Y2010D01*
X1774Y2010D02*
X1783Y2010D01*
X1918Y2010D02*
X1925Y2010D01*
X0Y2009D02*
X7Y2009D01*
X1774Y2009D02*
X1783Y2009D01*
X1918Y2009D02*
X1925Y2009D01*
X0Y2008D02*
X7Y2008D01*
X1774Y2008D02*
X1783Y2008D01*
X1918Y2008D02*
X1925Y2008D01*
X0Y2007D02*
X7Y2007D01*
X1774Y2007D02*
X1783Y2007D01*
X1918Y2007D02*
X1925Y2007D01*
X0Y2006D02*
X7Y2006D01*
X1774Y2006D02*
X1783Y2006D01*
X1918Y2006D02*
X1925Y2006D01*
X0Y2005D02*
X7Y2005D01*
X1774Y2005D02*
X1783Y2005D01*
X1918Y2005D02*
X1925Y2005D01*
X0Y2004D02*
X7Y2004D01*
X1774Y2004D02*
X1783Y2004D01*
X1918Y2004D02*
X1925Y2004D01*
X0Y2003D02*
X7Y2003D01*
X1774Y2003D02*
X1783Y2003D01*
X1918Y2003D02*
X1925Y2003D01*
X0Y2002D02*
X7Y2002D01*
X1774Y2002D02*
X1783Y2002D01*
X1918Y2002D02*
X1925Y2002D01*
X0Y2001D02*
X7Y2001D01*
X1774Y2001D02*
X1783Y2001D01*
X1918Y2001D02*
X1925Y2001D01*
X0Y2000D02*
X7Y2000D01*
X1774Y2000D02*
X1783Y2000D01*
X1918Y2000D02*
X1925Y2000D01*
X0Y1999D02*
X7Y1999D01*
X1774Y1999D02*
X1783Y1999D01*
X1918Y1999D02*
X1925Y1999D01*
X0Y1998D02*
X7Y1998D01*
X1774Y1998D02*
X1783Y1998D01*
X1918Y1998D02*
X1925Y1998D01*
X0Y1997D02*
X7Y1997D01*
X1774Y1997D02*
X1783Y1997D01*
X1918Y1997D02*
X1925Y1997D01*
X0Y1996D02*
X7Y1996D01*
X1774Y1996D02*
X1783Y1996D01*
X1918Y1996D02*
X1925Y1996D01*
X0Y1995D02*
X7Y1995D01*
X1774Y1995D02*
X1783Y1995D01*
X1918Y1995D02*
X1925Y1995D01*
X0Y1994D02*
X7Y1994D01*
X1774Y1994D02*
X1783Y1994D01*
X1918Y1994D02*
X1925Y1994D01*
X0Y1993D02*
X7Y1993D01*
X1774Y1993D02*
X1783Y1993D01*
X1918Y1993D02*
X1925Y1993D01*
X0Y1992D02*
X7Y1992D01*
X1774Y1992D02*
X1783Y1992D01*
X1918Y1992D02*
X1925Y1992D01*
X0Y1991D02*
X7Y1991D01*
X1774Y1991D02*
X1783Y1991D01*
X1918Y1991D02*
X1925Y1991D01*
X0Y1990D02*
X7Y1990D01*
X1774Y1990D02*
X1783Y1990D01*
X1918Y1990D02*
X1925Y1990D01*
X0Y1989D02*
X7Y1989D01*
X1774Y1989D02*
X1783Y1989D01*
X1918Y1989D02*
X1925Y1989D01*
X0Y1988D02*
X7Y1988D01*
X1774Y1988D02*
X1783Y1988D01*
X1918Y1988D02*
X1925Y1988D01*
X0Y1987D02*
X7Y1987D01*
X1774Y1987D02*
X1783Y1987D01*
X1918Y1987D02*
X1925Y1987D01*
X0Y1986D02*
X7Y1986D01*
X1774Y1986D02*
X1783Y1986D01*
X1918Y1986D02*
X1925Y1986D01*
X0Y1985D02*
X7Y1985D01*
X1774Y1985D02*
X1783Y1985D01*
X1918Y1985D02*
X1925Y1985D01*
X0Y1984D02*
X7Y1984D01*
X1774Y1984D02*
X1783Y1984D01*
X1918Y1984D02*
X1925Y1984D01*
X0Y1983D02*
X7Y1983D01*
X1774Y1983D02*
X1783Y1983D01*
X1918Y1983D02*
X1925Y1983D01*
X0Y1982D02*
X7Y1982D01*
X1774Y1982D02*
X1783Y1982D01*
X1918Y1982D02*
X1925Y1982D01*
X0Y1981D02*
X7Y1981D01*
X1774Y1981D02*
X1783Y1981D01*
X1918Y1981D02*
X1925Y1981D01*
X0Y1980D02*
X7Y1980D01*
X1774Y1980D02*
X1783Y1980D01*
X1918Y1980D02*
X1925Y1980D01*
X0Y1979D02*
X7Y1979D01*
X1774Y1979D02*
X1783Y1979D01*
X1918Y1979D02*
X1925Y1979D01*
X0Y1978D02*
X7Y1978D01*
X1774Y1978D02*
X1783Y1978D01*
X1918Y1978D02*
X1925Y1978D01*
X0Y1977D02*
X7Y1977D01*
X1774Y1977D02*
X1783Y1977D01*
X1918Y1977D02*
X1925Y1977D01*
X0Y1976D02*
X7Y1976D01*
X1774Y1976D02*
X1783Y1976D01*
X1918Y1976D02*
X1925Y1976D01*
X0Y1975D02*
X7Y1975D01*
X1774Y1975D02*
X1783Y1975D01*
X1918Y1975D02*
X1925Y1975D01*
X0Y1974D02*
X7Y1974D01*
X1774Y1974D02*
X1783Y1974D01*
X1918Y1974D02*
X1925Y1974D01*
X0Y1973D02*
X7Y1973D01*
X1774Y1973D02*
X1783Y1973D01*
X1918Y1973D02*
X1925Y1973D01*
X0Y1972D02*
X7Y1972D01*
X1774Y1972D02*
X1783Y1972D01*
X1918Y1972D02*
X1925Y1972D01*
X0Y1971D02*
X7Y1971D01*
X1774Y1971D02*
X1783Y1971D01*
X1918Y1971D02*
X1925Y1971D01*
X0Y1970D02*
X7Y1970D01*
X1774Y1970D02*
X1783Y1970D01*
X1918Y1970D02*
X1925Y1970D01*
X0Y1969D02*
X7Y1969D01*
X1774Y1969D02*
X1783Y1969D01*
X1918Y1969D02*
X1925Y1969D01*
X0Y1968D02*
X7Y1968D01*
X1774Y1968D02*
X1783Y1968D01*
X1918Y1968D02*
X1925Y1968D01*
X0Y1967D02*
X7Y1967D01*
X1774Y1967D02*
X1783Y1967D01*
X1918Y1967D02*
X1925Y1967D01*
X0Y1966D02*
X7Y1966D01*
X1774Y1966D02*
X1783Y1966D01*
X1918Y1966D02*
X1925Y1966D01*
X0Y1965D02*
X7Y1965D01*
X1774Y1965D02*
X1783Y1965D01*
X1918Y1965D02*
X1925Y1965D01*
X0Y1964D02*
X7Y1964D01*
X1774Y1964D02*
X1783Y1964D01*
X1918Y1964D02*
X1925Y1964D01*
X0Y1963D02*
X7Y1963D01*
X1774Y1963D02*
X1783Y1963D01*
X1918Y1963D02*
X1925Y1963D01*
X0Y1962D02*
X7Y1962D01*
X1774Y1962D02*
X1783Y1962D01*
X1918Y1962D02*
X1925Y1962D01*
X0Y1961D02*
X7Y1961D01*
X1774Y1961D02*
X1783Y1961D01*
X1918Y1961D02*
X1925Y1961D01*
X0Y1960D02*
X7Y1960D01*
X1774Y1960D02*
X1783Y1960D01*
X1918Y1960D02*
X1925Y1960D01*
X0Y1959D02*
X7Y1959D01*
X1774Y1959D02*
X1783Y1959D01*
X1918Y1959D02*
X1925Y1959D01*
X0Y1958D02*
X7Y1958D01*
X1774Y1958D02*
X1783Y1958D01*
X1918Y1958D02*
X1925Y1958D01*
X0Y1957D02*
X7Y1957D01*
X1774Y1957D02*
X1783Y1957D01*
X1918Y1957D02*
X1925Y1957D01*
X0Y1956D02*
X7Y1956D01*
X1774Y1956D02*
X1783Y1956D01*
X1918Y1956D02*
X1925Y1956D01*
X0Y1955D02*
X7Y1955D01*
X1774Y1955D02*
X1783Y1955D01*
X1918Y1955D02*
X1925Y1955D01*
X0Y1954D02*
X7Y1954D01*
X1774Y1954D02*
X1783Y1954D01*
X1918Y1954D02*
X1925Y1954D01*
X0Y1953D02*
X7Y1953D01*
X1774Y1953D02*
X1783Y1953D01*
X1918Y1953D02*
X1925Y1953D01*
X0Y1952D02*
X7Y1952D01*
X1774Y1952D02*
X1783Y1952D01*
X1918Y1952D02*
X1925Y1952D01*
X0Y1951D02*
X7Y1951D01*
X1774Y1951D02*
X1783Y1951D01*
X1918Y1951D02*
X1925Y1951D01*
X0Y1950D02*
X7Y1950D01*
X1774Y1950D02*
X1783Y1950D01*
X1918Y1950D02*
X1925Y1950D01*
X0Y1949D02*
X7Y1949D01*
X1774Y1949D02*
X1783Y1949D01*
X1918Y1949D02*
X1925Y1949D01*
X0Y1948D02*
X7Y1948D01*
X1774Y1948D02*
X1783Y1948D01*
X1918Y1948D02*
X1925Y1948D01*
X0Y1947D02*
X7Y1947D01*
X1774Y1947D02*
X1783Y1947D01*
X1918Y1947D02*
X1925Y1947D01*
X0Y1946D02*
X7Y1946D01*
X1774Y1946D02*
X1783Y1946D01*
X1918Y1946D02*
X1925Y1946D01*
X0Y1945D02*
X7Y1945D01*
X1774Y1945D02*
X1783Y1945D01*
X1918Y1945D02*
X1925Y1945D01*
X0Y1944D02*
X7Y1944D01*
X1918Y1944D02*
X1925Y1944D01*
X0Y1943D02*
X7Y1943D01*
X1918Y1943D02*
X1925Y1943D01*
X0Y1942D02*
X7Y1942D01*
X1918Y1942D02*
X1925Y1942D01*
X0Y1941D02*
X7Y1941D01*
X1918Y1941D02*
X1925Y1941D01*
X0Y1940D02*
X7Y1940D01*
X1918Y1940D02*
X1925Y1940D01*
X0Y1939D02*
X7Y1939D01*
X1918Y1939D02*
X1925Y1939D01*
X0Y1938D02*
X7Y1938D01*
X1918Y1938D02*
X1925Y1938D01*
X0Y1937D02*
X7Y1937D01*
X1918Y1937D02*
X1925Y1937D01*
X0Y1936D02*
X7Y1936D01*
X1918Y1936D02*
X1925Y1936D01*
X0Y1935D02*
X7Y1935D01*
X1918Y1935D02*
X1925Y1935D01*
X0Y1934D02*
X7Y1934D01*
X1918Y1934D02*
X1925Y1934D01*
X0Y1933D02*
X7Y1933D01*
X1918Y1933D02*
X1925Y1933D01*
X0Y1932D02*
X7Y1932D01*
X1918Y1932D02*
X1925Y1932D01*
X0Y1931D02*
X7Y1931D01*
X1918Y1931D02*
X1925Y1931D01*
X0Y1930D02*
X7Y1930D01*
X1918Y1930D02*
X1925Y1930D01*
X0Y1929D02*
X7Y1929D01*
X1918Y1929D02*
X1925Y1929D01*
X0Y1928D02*
X7Y1928D01*
X1918Y1928D02*
X1925Y1928D01*
X0Y1927D02*
X7Y1927D01*
X1918Y1927D02*
X1925Y1927D01*
X0Y1926D02*
X7Y1926D01*
X1918Y1926D02*
X1925Y1926D01*
X0Y1925D02*
X7Y1925D01*
X1918Y1925D02*
X1925Y1925D01*
X0Y1924D02*
X7Y1924D01*
X1918Y1924D02*
X1925Y1924D01*
X0Y1923D02*
X7Y1923D01*
X1918Y1923D02*
X1925Y1923D01*
X0Y1922D02*
X7Y1922D01*
X1918Y1922D02*
X1925Y1922D01*
X0Y1921D02*
X7Y1921D01*
X1918Y1921D02*
X1925Y1921D01*
X0Y1920D02*
X7Y1920D01*
X1918Y1920D02*
X1925Y1920D01*
X0Y1919D02*
X7Y1919D01*
X1918Y1919D02*
X1925Y1919D01*
X0Y1918D02*
X7Y1918D01*
X1918Y1918D02*
X1925Y1918D01*
X0Y1917D02*
X7Y1917D01*
X1918Y1917D02*
X1925Y1917D01*
X0Y1916D02*
X7Y1916D01*
X1918Y1916D02*
X1925Y1916D01*
X0Y1915D02*
X7Y1915D01*
X1918Y1915D02*
X1925Y1915D01*
X0Y1914D02*
X7Y1914D01*
X1918Y1914D02*
X1925Y1914D01*
X0Y1913D02*
X7Y1913D01*
X1918Y1913D02*
X1925Y1913D01*
X0Y1912D02*
X7Y1912D01*
X1918Y1912D02*
X1925Y1912D01*
X0Y1911D02*
X7Y1911D01*
X1918Y1911D02*
X1925Y1911D01*
X0Y1910D02*
X7Y1910D01*
X1918Y1910D02*
X1925Y1910D01*
X0Y1909D02*
X7Y1909D01*
X1918Y1909D02*
X1925Y1909D01*
X0Y1908D02*
X7Y1908D01*
X1918Y1908D02*
X1925Y1908D01*
X0Y1907D02*
X7Y1907D01*
X1918Y1907D02*
X1925Y1907D01*
X0Y1906D02*
X7Y1906D01*
X1918Y1906D02*
X1925Y1906D01*
X0Y1905D02*
X7Y1905D01*
X1918Y1905D02*
X1925Y1905D01*
X0Y1904D02*
X7Y1904D01*
X1918Y1904D02*
X1925Y1904D01*
X0Y1903D02*
X7Y1903D01*
X1918Y1903D02*
X1925Y1903D01*
X0Y1902D02*
X7Y1902D01*
X1918Y1902D02*
X1925Y1902D01*
X0Y1901D02*
X7Y1901D01*
X1918Y1901D02*
X1925Y1901D01*
X0Y1900D02*
X7Y1900D01*
X1918Y1900D02*
X1925Y1900D01*
X0Y1899D02*
X7Y1899D01*
X1918Y1899D02*
X1925Y1899D01*
X0Y1898D02*
X7Y1898D01*
X1918Y1898D02*
X1925Y1898D01*
X0Y1897D02*
X7Y1897D01*
X1918Y1897D02*
X1925Y1897D01*
X0Y1896D02*
X7Y1896D01*
X1918Y1896D02*
X1925Y1896D01*
X0Y1895D02*
X7Y1895D01*
X1918Y1895D02*
X1925Y1895D01*
X0Y1894D02*
X7Y1894D01*
X1918Y1894D02*
X1925Y1894D01*
X0Y1893D02*
X7Y1893D01*
X1918Y1893D02*
X1925Y1893D01*
X0Y1892D02*
X7Y1892D01*
X1918Y1892D02*
X1925Y1892D01*
X0Y1891D02*
X7Y1891D01*
X1918Y1891D02*
X1925Y1891D01*
X0Y1890D02*
X7Y1890D01*
X1918Y1890D02*
X1925Y1890D01*
X0Y1889D02*
X7Y1889D01*
X1918Y1889D02*
X1925Y1889D01*
X0Y1888D02*
X7Y1888D01*
X1918Y1888D02*
X1925Y1888D01*
X0Y1887D02*
X7Y1887D01*
X1918Y1887D02*
X1925Y1887D01*
X0Y1886D02*
X7Y1886D01*
X1918Y1886D02*
X1925Y1886D01*
X0Y1885D02*
X7Y1885D01*
X1918Y1885D02*
X1925Y1885D01*
X0Y1884D02*
X7Y1884D01*
X1918Y1884D02*
X1925Y1884D01*
X0Y1883D02*
X7Y1883D01*
X1918Y1883D02*
X1925Y1883D01*
X0Y1882D02*
X7Y1882D01*
X1918Y1882D02*
X1925Y1882D01*
X0Y1881D02*
X7Y1881D01*
X1918Y1881D02*
X1925Y1881D01*
X0Y1880D02*
X7Y1880D01*
X1918Y1880D02*
X1925Y1880D01*
X0Y1879D02*
X7Y1879D01*
X1918Y1879D02*
X1925Y1879D01*
X0Y1878D02*
X7Y1878D01*
X1918Y1878D02*
X1925Y1878D01*
X0Y1877D02*
X7Y1877D01*
X1918Y1877D02*
X1925Y1877D01*
X0Y1876D02*
X7Y1876D01*
X1918Y1876D02*
X1925Y1876D01*
X0Y1875D02*
X7Y1875D01*
X1918Y1875D02*
X1925Y1875D01*
X0Y1874D02*
X7Y1874D01*
X1918Y1874D02*
X1925Y1874D01*
X0Y1873D02*
X7Y1873D01*
X1918Y1873D02*
X1925Y1873D01*
X0Y1872D02*
X7Y1872D01*
X1918Y1872D02*
X1925Y1872D01*
X0Y1871D02*
X7Y1871D01*
X1918Y1871D02*
X1925Y1871D01*
X0Y1870D02*
X7Y1870D01*
X1918Y1870D02*
X1925Y1870D01*
X0Y1869D02*
X7Y1869D01*
X1918Y1869D02*
X1925Y1869D01*
X0Y1868D02*
X7Y1868D01*
X1918Y1868D02*
X1925Y1868D01*
X0Y1867D02*
X7Y1867D01*
X1918Y1867D02*
X1925Y1867D01*
X0Y1866D02*
X7Y1866D01*
X1918Y1866D02*
X1925Y1866D01*
X0Y1865D02*
X7Y1865D01*
X1918Y1865D02*
X1925Y1865D01*
X0Y1864D02*
X7Y1864D01*
X1918Y1864D02*
X1925Y1864D01*
X0Y1863D02*
X7Y1863D01*
X1918Y1863D02*
X1925Y1863D01*
X0Y1862D02*
X7Y1862D01*
X1918Y1862D02*
X1925Y1862D01*
X0Y1861D02*
X7Y1861D01*
X1918Y1861D02*
X1925Y1861D01*
X0Y1860D02*
X7Y1860D01*
X1918Y1860D02*
X1925Y1860D01*
X0Y1859D02*
X7Y1859D01*
X1918Y1859D02*
X1925Y1859D01*
X0Y1858D02*
X7Y1858D01*
X1918Y1858D02*
X1925Y1858D01*
X0Y1857D02*
X7Y1857D01*
X1918Y1857D02*
X1925Y1857D01*
X0Y1856D02*
X7Y1856D01*
X1918Y1856D02*
X1925Y1856D01*
X0Y1855D02*
X7Y1855D01*
X1918Y1855D02*
X1925Y1855D01*
X0Y1854D02*
X7Y1854D01*
X1918Y1854D02*
X1925Y1854D01*
X0Y1853D02*
X7Y1853D01*
X1918Y1853D02*
X1925Y1853D01*
X0Y1852D02*
X7Y1852D01*
X1918Y1852D02*
X1925Y1852D01*
X0Y1851D02*
X7Y1851D01*
X1918Y1851D02*
X1925Y1851D01*
X0Y1850D02*
X7Y1850D01*
X1918Y1850D02*
X1925Y1850D01*
X0Y1849D02*
X7Y1849D01*
X1918Y1849D02*
X1925Y1849D01*
X0Y1848D02*
X7Y1848D01*
X1918Y1848D02*
X1925Y1848D01*
X0Y1847D02*
X7Y1847D01*
X1918Y1847D02*
X1925Y1847D01*
X0Y1846D02*
X7Y1846D01*
X1918Y1846D02*
X1925Y1846D01*
X0Y1845D02*
X7Y1845D01*
X1918Y1845D02*
X1925Y1845D01*
X0Y1844D02*
X7Y1844D01*
X1918Y1844D02*
X1925Y1844D01*
X0Y1843D02*
X7Y1843D01*
X1918Y1843D02*
X1925Y1843D01*
X0Y1842D02*
X7Y1842D01*
X1918Y1842D02*
X1925Y1842D01*
X0Y1841D02*
X7Y1841D01*
X1918Y1841D02*
X1925Y1841D01*
X0Y1840D02*
X7Y1840D01*
X1918Y1840D02*
X1925Y1840D01*
X0Y1839D02*
X7Y1839D01*
X1918Y1839D02*
X1925Y1839D01*
X0Y1838D02*
X7Y1838D01*
X1918Y1838D02*
X1925Y1838D01*
X0Y1837D02*
X7Y1837D01*
X1918Y1837D02*
X1925Y1837D01*
X0Y1836D02*
X7Y1836D01*
X1918Y1836D02*
X1925Y1836D01*
X0Y1835D02*
X7Y1835D01*
X1918Y1835D02*
X1925Y1835D01*
X0Y1834D02*
X7Y1834D01*
X1918Y1834D02*
X1925Y1834D01*
X0Y1833D02*
X7Y1833D01*
X1918Y1833D02*
X1925Y1833D01*
X0Y1832D02*
X7Y1832D01*
X1918Y1832D02*
X1925Y1832D01*
X0Y1831D02*
X7Y1831D01*
X1918Y1831D02*
X1925Y1831D01*
X0Y1830D02*
X7Y1830D01*
X1918Y1830D02*
X1925Y1830D01*
X0Y1829D02*
X7Y1829D01*
X1918Y1829D02*
X1925Y1829D01*
X0Y1828D02*
X7Y1828D01*
X1918Y1828D02*
X1925Y1828D01*
X0Y1827D02*
X7Y1827D01*
X1918Y1827D02*
X1925Y1827D01*
X0Y1826D02*
X7Y1826D01*
X1918Y1826D02*
X1925Y1826D01*
X0Y1825D02*
X7Y1825D01*
X1918Y1825D02*
X1925Y1825D01*
X0Y1824D02*
X7Y1824D01*
X1918Y1824D02*
X1925Y1824D01*
X0Y1823D02*
X7Y1823D01*
X1918Y1823D02*
X1925Y1823D01*
X0Y1822D02*
X7Y1822D01*
X1918Y1822D02*
X1925Y1822D01*
X0Y1821D02*
X7Y1821D01*
X1918Y1821D02*
X1925Y1821D01*
X0Y1820D02*
X7Y1820D01*
X1918Y1820D02*
X1925Y1820D01*
X0Y1819D02*
X7Y1819D01*
X1918Y1819D02*
X1925Y1819D01*
X0Y1818D02*
X7Y1818D01*
X1918Y1818D02*
X1925Y1818D01*
X0Y1817D02*
X7Y1817D01*
X1918Y1817D02*
X1925Y1817D01*
X0Y1816D02*
X7Y1816D01*
X1918Y1816D02*
X1925Y1816D01*
X0Y1815D02*
X7Y1815D01*
X1918Y1815D02*
X1925Y1815D01*
X0Y1814D02*
X7Y1814D01*
X1918Y1814D02*
X1925Y1814D01*
X0Y1813D02*
X7Y1813D01*
X1918Y1813D02*
X1925Y1813D01*
X0Y1812D02*
X7Y1812D01*
X1918Y1812D02*
X1925Y1812D01*
X0Y1811D02*
X7Y1811D01*
X1918Y1811D02*
X1925Y1811D01*
X0Y1810D02*
X7Y1810D01*
X1918Y1810D02*
X1925Y1810D01*
X0Y1809D02*
X7Y1809D01*
X1918Y1809D02*
X1925Y1809D01*
X0Y1808D02*
X7Y1808D01*
X1918Y1808D02*
X1925Y1808D01*
X0Y1807D02*
X7Y1807D01*
X1918Y1807D02*
X1925Y1807D01*
X0Y1806D02*
X7Y1806D01*
X1918Y1806D02*
X1925Y1806D01*
X0Y1805D02*
X7Y1805D01*
X1918Y1805D02*
X1925Y1805D01*
X0Y1804D02*
X7Y1804D01*
X1918Y1804D02*
X1925Y1804D01*
X0Y1803D02*
X7Y1803D01*
X1918Y1803D02*
X1925Y1803D01*
X0Y1802D02*
X7Y1802D01*
X1918Y1802D02*
X1925Y1802D01*
X0Y1801D02*
X7Y1801D01*
X1918Y1801D02*
X1925Y1801D01*
X0Y1800D02*
X7Y1800D01*
X1918Y1800D02*
X1925Y1800D01*
X0Y1799D02*
X7Y1799D01*
X1918Y1799D02*
X1925Y1799D01*
X0Y1798D02*
X7Y1798D01*
X1918Y1798D02*
X1925Y1798D01*
X0Y1797D02*
X7Y1797D01*
X1918Y1797D02*
X1925Y1797D01*
X0Y1796D02*
X7Y1796D01*
X1918Y1796D02*
X1925Y1796D01*
X0Y1795D02*
X7Y1795D01*
X1918Y1795D02*
X1925Y1795D01*
X0Y1794D02*
X7Y1794D01*
X1918Y1794D02*
X1925Y1794D01*
X0Y1793D02*
X7Y1793D01*
X1918Y1793D02*
X1925Y1793D01*
X0Y1792D02*
X7Y1792D01*
X1918Y1792D02*
X1925Y1792D01*
X0Y1791D02*
X7Y1791D01*
X1918Y1791D02*
X1925Y1791D01*
X0Y1790D02*
X7Y1790D01*
X1918Y1790D02*
X1925Y1790D01*
X0Y1789D02*
X7Y1789D01*
X1918Y1789D02*
X1925Y1789D01*
X0Y1788D02*
X7Y1788D01*
X1918Y1788D02*
X1925Y1788D01*
X0Y1787D02*
X7Y1787D01*
X1918Y1787D02*
X1925Y1787D01*
X0Y1786D02*
X7Y1786D01*
X1918Y1786D02*
X1925Y1786D01*
X0Y1785D02*
X7Y1785D01*
X1918Y1785D02*
X1925Y1785D01*
X0Y1784D02*
X7Y1784D01*
X1918Y1784D02*
X1925Y1784D01*
X0Y1783D02*
X7Y1783D01*
X1918Y1783D02*
X1925Y1783D01*
X0Y1782D02*
X7Y1782D01*
X1918Y1782D02*
X1925Y1782D01*
X0Y1781D02*
X7Y1781D01*
X1918Y1781D02*
X1925Y1781D01*
X0Y1780D02*
X7Y1780D01*
X1918Y1780D02*
X1925Y1780D01*
X0Y1779D02*
X7Y1779D01*
X1918Y1779D02*
X1925Y1779D01*
X0Y1778D02*
X7Y1778D01*
X1918Y1778D02*
X1925Y1778D01*
X0Y1777D02*
X7Y1777D01*
X1918Y1777D02*
X1925Y1777D01*
X0Y1776D02*
X7Y1776D01*
X1918Y1776D02*
X1925Y1776D01*
X0Y1775D02*
X7Y1775D01*
X1918Y1775D02*
X1925Y1775D01*
X0Y1774D02*
X7Y1774D01*
X1918Y1774D02*
X1925Y1774D01*
X0Y1773D02*
X7Y1773D01*
X1918Y1773D02*
X1925Y1773D01*
X0Y1772D02*
X7Y1772D01*
X1918Y1772D02*
X1925Y1772D01*
X0Y1771D02*
X7Y1771D01*
X1918Y1771D02*
X1925Y1771D01*
X0Y1770D02*
X7Y1770D01*
X1918Y1770D02*
X1925Y1770D01*
X0Y1769D02*
X7Y1769D01*
X1918Y1769D02*
X1925Y1769D01*
X0Y1768D02*
X7Y1768D01*
X1918Y1768D02*
X1925Y1768D01*
X0Y1767D02*
X7Y1767D01*
X1918Y1767D02*
X1925Y1767D01*
X0Y1766D02*
X7Y1766D01*
X1918Y1766D02*
X1925Y1766D01*
X0Y1765D02*
X7Y1765D01*
X1918Y1765D02*
X1925Y1765D01*
X0Y1764D02*
X7Y1764D01*
X1918Y1764D02*
X1925Y1764D01*
X0Y1763D02*
X7Y1763D01*
X1918Y1763D02*
X1925Y1763D01*
X0Y1762D02*
X7Y1762D01*
X1918Y1762D02*
X1925Y1762D01*
X0Y1761D02*
X7Y1761D01*
X1918Y1761D02*
X1925Y1761D01*
X0Y1760D02*
X7Y1760D01*
X1918Y1760D02*
X1925Y1760D01*
X0Y1759D02*
X7Y1759D01*
X1918Y1759D02*
X1925Y1759D01*
X0Y1758D02*
X7Y1758D01*
X1918Y1758D02*
X1925Y1758D01*
X0Y1757D02*
X7Y1757D01*
X1918Y1757D02*
X1925Y1757D01*
X0Y1756D02*
X7Y1756D01*
X1918Y1756D02*
X1925Y1756D01*
X0Y1755D02*
X7Y1755D01*
X1918Y1755D02*
X1925Y1755D01*
X0Y1754D02*
X7Y1754D01*
X1918Y1754D02*
X1925Y1754D01*
X0Y1753D02*
X7Y1753D01*
X1918Y1753D02*
X1925Y1753D01*
X0Y1752D02*
X7Y1752D01*
X1918Y1752D02*
X1925Y1752D01*
X0Y1751D02*
X7Y1751D01*
X1918Y1751D02*
X1925Y1751D01*
X0Y1750D02*
X7Y1750D01*
X1918Y1750D02*
X1925Y1750D01*
X0Y1749D02*
X7Y1749D01*
X1918Y1749D02*
X1925Y1749D01*
X0Y1748D02*
X7Y1748D01*
X1918Y1748D02*
X1925Y1748D01*
X0Y1747D02*
X7Y1747D01*
X1918Y1747D02*
X1925Y1747D01*
X0Y1746D02*
X7Y1746D01*
X1918Y1746D02*
X1925Y1746D01*
X0Y1745D02*
X7Y1745D01*
X1918Y1745D02*
X1925Y1745D01*
X0Y1744D02*
X7Y1744D01*
X1774Y1744D02*
X1783Y1744D01*
X1918Y1744D02*
X1925Y1744D01*
X0Y1743D02*
X7Y1743D01*
X1774Y1743D02*
X1783Y1743D01*
X1918Y1743D02*
X1925Y1743D01*
X0Y1742D02*
X7Y1742D01*
X1774Y1742D02*
X1783Y1742D01*
X1918Y1742D02*
X1925Y1742D01*
X0Y1741D02*
X7Y1741D01*
X1774Y1741D02*
X1783Y1741D01*
X1918Y1741D02*
X1925Y1741D01*
X0Y1740D02*
X7Y1740D01*
X1774Y1740D02*
X1783Y1740D01*
X1918Y1740D02*
X1925Y1740D01*
X0Y1739D02*
X7Y1739D01*
X1774Y1739D02*
X1783Y1739D01*
X1918Y1739D02*
X1925Y1739D01*
X0Y1738D02*
X7Y1738D01*
X1774Y1738D02*
X1783Y1738D01*
X1918Y1738D02*
X1925Y1738D01*
X0Y1737D02*
X7Y1737D01*
X1774Y1737D02*
X1783Y1737D01*
X1918Y1737D02*
X1925Y1737D01*
X0Y1736D02*
X7Y1736D01*
X1774Y1736D02*
X1783Y1736D01*
X1918Y1736D02*
X1925Y1736D01*
X0Y1735D02*
X7Y1735D01*
X1774Y1735D02*
X1783Y1735D01*
X1918Y1735D02*
X1925Y1735D01*
X0Y1734D02*
X7Y1734D01*
X1774Y1734D02*
X1783Y1734D01*
X1918Y1734D02*
X1925Y1734D01*
X0Y1733D02*
X7Y1733D01*
X1774Y1733D02*
X1783Y1733D01*
X1918Y1733D02*
X1925Y1733D01*
X0Y1732D02*
X7Y1732D01*
X1774Y1732D02*
X1783Y1732D01*
X1918Y1732D02*
X1925Y1732D01*
X0Y1731D02*
X7Y1731D01*
X1774Y1731D02*
X1783Y1731D01*
X1918Y1731D02*
X1925Y1731D01*
X0Y1730D02*
X7Y1730D01*
X1774Y1730D02*
X1783Y1730D01*
X1918Y1730D02*
X1925Y1730D01*
X0Y1729D02*
X7Y1729D01*
X1774Y1729D02*
X1783Y1729D01*
X1918Y1729D02*
X1925Y1729D01*
X0Y1728D02*
X7Y1728D01*
X1774Y1728D02*
X1783Y1728D01*
X1918Y1728D02*
X1925Y1728D01*
X0Y1727D02*
X7Y1727D01*
X1774Y1727D02*
X1783Y1727D01*
X1918Y1727D02*
X1925Y1727D01*
X0Y1726D02*
X7Y1726D01*
X1774Y1726D02*
X1783Y1726D01*
X1918Y1726D02*
X1925Y1726D01*
X0Y1725D02*
X7Y1725D01*
X1774Y1725D02*
X1783Y1725D01*
X1918Y1725D02*
X1925Y1725D01*
X0Y1724D02*
X7Y1724D01*
X1774Y1724D02*
X1783Y1724D01*
X1918Y1724D02*
X1925Y1724D01*
X0Y1723D02*
X7Y1723D01*
X1774Y1723D02*
X1783Y1723D01*
X1918Y1723D02*
X1925Y1723D01*
X0Y1722D02*
X7Y1722D01*
X1774Y1722D02*
X1783Y1722D01*
X1918Y1722D02*
X1925Y1722D01*
X0Y1721D02*
X7Y1721D01*
X1774Y1721D02*
X1783Y1721D01*
X1918Y1721D02*
X1925Y1721D01*
X0Y1720D02*
X7Y1720D01*
X1774Y1720D02*
X1783Y1720D01*
X1918Y1720D02*
X1925Y1720D01*
X0Y1719D02*
X7Y1719D01*
X1774Y1719D02*
X1783Y1719D01*
X1918Y1719D02*
X1925Y1719D01*
X0Y1718D02*
X7Y1718D01*
X1774Y1718D02*
X1783Y1718D01*
X1918Y1718D02*
X1925Y1718D01*
X0Y1717D02*
X7Y1717D01*
X1774Y1717D02*
X1783Y1717D01*
X1918Y1717D02*
X1925Y1717D01*
X0Y1716D02*
X7Y1716D01*
X1774Y1716D02*
X1783Y1716D01*
X1918Y1716D02*
X1925Y1716D01*
X0Y1715D02*
X7Y1715D01*
X1774Y1715D02*
X1783Y1715D01*
X1918Y1715D02*
X1925Y1715D01*
X0Y1714D02*
X7Y1714D01*
X1774Y1714D02*
X1783Y1714D01*
X1918Y1714D02*
X1925Y1714D01*
X0Y1713D02*
X7Y1713D01*
X1774Y1713D02*
X1783Y1713D01*
X1918Y1713D02*
X1925Y1713D01*
X0Y1712D02*
X7Y1712D01*
X1774Y1712D02*
X1783Y1712D01*
X1918Y1712D02*
X1925Y1712D01*
X0Y1711D02*
X7Y1711D01*
X1774Y1711D02*
X1783Y1711D01*
X1918Y1711D02*
X1925Y1711D01*
X0Y1710D02*
X7Y1710D01*
X1774Y1710D02*
X1783Y1710D01*
X1918Y1710D02*
X1925Y1710D01*
X0Y1709D02*
X7Y1709D01*
X1774Y1709D02*
X1783Y1709D01*
X1918Y1709D02*
X1925Y1709D01*
X0Y1708D02*
X7Y1708D01*
X1774Y1708D02*
X1783Y1708D01*
X1918Y1708D02*
X1925Y1708D01*
X0Y1707D02*
X7Y1707D01*
X1774Y1707D02*
X1783Y1707D01*
X1918Y1707D02*
X1925Y1707D01*
X0Y1706D02*
X7Y1706D01*
X1774Y1706D02*
X1783Y1706D01*
X1918Y1706D02*
X1925Y1706D01*
X0Y1705D02*
X7Y1705D01*
X1774Y1705D02*
X1783Y1705D01*
X1918Y1705D02*
X1925Y1705D01*
X0Y1704D02*
X7Y1704D01*
X1774Y1704D02*
X1783Y1704D01*
X1918Y1704D02*
X1925Y1704D01*
X0Y1703D02*
X7Y1703D01*
X1774Y1703D02*
X1783Y1703D01*
X1918Y1703D02*
X1925Y1703D01*
X0Y1702D02*
X7Y1702D01*
X1774Y1702D02*
X1783Y1702D01*
X1918Y1702D02*
X1925Y1702D01*
X0Y1701D02*
X7Y1701D01*
X1774Y1701D02*
X1783Y1701D01*
X1918Y1701D02*
X1925Y1701D01*
X0Y1700D02*
X7Y1700D01*
X1774Y1700D02*
X1783Y1700D01*
X1918Y1700D02*
X1925Y1700D01*
X0Y1699D02*
X7Y1699D01*
X1774Y1699D02*
X1783Y1699D01*
X1918Y1699D02*
X1925Y1699D01*
X0Y1698D02*
X7Y1698D01*
X1774Y1698D02*
X1783Y1698D01*
X1918Y1698D02*
X1925Y1698D01*
X0Y1697D02*
X7Y1697D01*
X1774Y1697D02*
X1783Y1697D01*
X1918Y1697D02*
X1925Y1697D01*
X0Y1696D02*
X7Y1696D01*
X1774Y1696D02*
X1776Y1696D01*
X1781Y1696D02*
X1783Y1696D01*
X1918Y1696D02*
X1925Y1696D01*
X0Y1695D02*
X7Y1695D01*
X1918Y1695D02*
X1925Y1695D01*
X0Y1694D02*
X7Y1694D01*
X1918Y1694D02*
X1925Y1694D01*
X0Y1693D02*
X7Y1693D01*
X1918Y1693D02*
X1925Y1693D01*
X0Y1692D02*
X7Y1692D01*
X1918Y1692D02*
X1925Y1692D01*
X0Y1691D02*
X7Y1691D01*
X1918Y1691D02*
X1925Y1691D01*
X0Y1690D02*
X7Y1690D01*
X1918Y1690D02*
X1925Y1690D01*
X0Y1689D02*
X7Y1689D01*
X1918Y1689D02*
X1925Y1689D01*
X0Y1688D02*
X7Y1688D01*
X1918Y1688D02*
X1925Y1688D01*
X0Y1687D02*
X7Y1687D01*
X1918Y1687D02*
X1925Y1687D01*
X0Y1686D02*
X7Y1686D01*
X1918Y1686D02*
X1925Y1686D01*
X0Y1685D02*
X7Y1685D01*
X1918Y1685D02*
X1925Y1685D01*
X0Y1684D02*
X7Y1684D01*
X1918Y1684D02*
X1925Y1684D01*
X0Y1683D02*
X7Y1683D01*
X1918Y1683D02*
X1925Y1683D01*
X0Y1682D02*
X7Y1682D01*
X1918Y1682D02*
X1925Y1682D01*
X0Y1681D02*
X7Y1681D01*
X1918Y1681D02*
X1925Y1681D01*
X0Y1680D02*
X7Y1680D01*
X1918Y1680D02*
X1925Y1680D01*
X0Y1679D02*
X7Y1679D01*
X1918Y1679D02*
X1925Y1679D01*
X0Y1678D02*
X7Y1678D01*
X1918Y1678D02*
X1925Y1678D01*
X0Y1677D02*
X7Y1677D01*
X1918Y1677D02*
X1925Y1677D01*
X0Y1676D02*
X7Y1676D01*
X1918Y1676D02*
X1925Y1676D01*
X0Y1675D02*
X7Y1675D01*
X1918Y1675D02*
X1925Y1675D01*
X0Y1674D02*
X7Y1674D01*
X1918Y1674D02*
X1925Y1674D01*
X0Y1673D02*
X7Y1673D01*
X1918Y1673D02*
X1925Y1673D01*
X0Y1672D02*
X7Y1672D01*
X1918Y1672D02*
X1925Y1672D01*
X0Y1671D02*
X7Y1671D01*
X1918Y1671D02*
X1925Y1671D01*
X0Y1670D02*
X7Y1670D01*
X1918Y1670D02*
X1925Y1670D01*
X0Y1669D02*
X7Y1669D01*
X1918Y1669D02*
X1925Y1669D01*
X0Y1668D02*
X7Y1668D01*
X1918Y1668D02*
X1925Y1668D01*
X0Y1667D02*
X7Y1667D01*
X1918Y1667D02*
X1925Y1667D01*
X0Y1666D02*
X7Y1666D01*
X1918Y1666D02*
X1925Y1666D01*
X0Y1665D02*
X7Y1665D01*
X1918Y1665D02*
X1925Y1665D01*
X0Y1664D02*
X7Y1664D01*
X1918Y1664D02*
X1925Y1664D01*
X0Y1663D02*
X7Y1663D01*
X1918Y1663D02*
X1925Y1663D01*
X0Y1662D02*
X7Y1662D01*
X1918Y1662D02*
X1925Y1662D01*
X0Y1661D02*
X7Y1661D01*
X1918Y1661D02*
X1925Y1661D01*
X0Y1660D02*
X7Y1660D01*
X1918Y1660D02*
X1925Y1660D01*
X0Y1659D02*
X7Y1659D01*
X1918Y1659D02*
X1925Y1659D01*
X0Y1658D02*
X7Y1658D01*
X1918Y1658D02*
X1925Y1658D01*
X0Y1657D02*
X7Y1657D01*
X1918Y1657D02*
X1925Y1657D01*
X0Y1656D02*
X7Y1656D01*
X1918Y1656D02*
X1925Y1656D01*
X0Y1655D02*
X7Y1655D01*
X1918Y1655D02*
X1925Y1655D01*
X0Y1654D02*
X7Y1654D01*
X1918Y1654D02*
X1925Y1654D01*
X0Y1653D02*
X7Y1653D01*
X1918Y1653D02*
X1925Y1653D01*
X0Y1652D02*
X7Y1652D01*
X1918Y1652D02*
X1925Y1652D01*
X0Y1651D02*
X7Y1651D01*
X1918Y1651D02*
X1925Y1651D01*
X0Y1650D02*
X7Y1650D01*
X1918Y1650D02*
X1925Y1650D01*
X0Y1649D02*
X7Y1649D01*
X1918Y1649D02*
X1925Y1649D01*
X0Y1648D02*
X7Y1648D01*
X1918Y1648D02*
X1925Y1648D01*
X0Y1647D02*
X7Y1647D01*
X1918Y1647D02*
X1925Y1647D01*
X0Y1646D02*
X7Y1646D01*
X1918Y1646D02*
X1925Y1646D01*
X0Y1645D02*
X7Y1645D01*
X1918Y1645D02*
X1925Y1645D01*
X0Y1644D02*
X7Y1644D01*
X1918Y1644D02*
X1925Y1644D01*
X0Y1643D02*
X7Y1643D01*
X1918Y1643D02*
X1925Y1643D01*
X0Y1642D02*
X7Y1642D01*
X1918Y1642D02*
X1925Y1642D01*
X0Y1641D02*
X7Y1641D01*
X1918Y1641D02*
X1925Y1641D01*
X0Y1640D02*
X7Y1640D01*
X1918Y1640D02*
X1925Y1640D01*
X0Y1639D02*
X7Y1639D01*
X1918Y1639D02*
X1925Y1639D01*
X0Y1638D02*
X7Y1638D01*
X1918Y1638D02*
X1925Y1638D01*
X0Y1637D02*
X7Y1637D01*
X1918Y1637D02*
X1925Y1637D01*
X0Y1636D02*
X7Y1636D01*
X1918Y1636D02*
X1925Y1636D01*
X0Y1635D02*
X7Y1635D01*
X1918Y1635D02*
X1925Y1635D01*
X0Y1634D02*
X7Y1634D01*
X1918Y1634D02*
X1925Y1634D01*
X0Y1633D02*
X7Y1633D01*
X1918Y1633D02*
X1925Y1633D01*
X0Y1632D02*
X7Y1632D01*
X1918Y1632D02*
X1925Y1632D01*
X0Y1631D02*
X7Y1631D01*
X1918Y1631D02*
X1925Y1631D01*
X0Y1630D02*
X7Y1630D01*
X1918Y1630D02*
X1925Y1630D01*
X0Y1629D02*
X7Y1629D01*
X1918Y1629D02*
X1925Y1629D01*
X0Y1628D02*
X7Y1628D01*
X1918Y1628D02*
X1925Y1628D01*
X0Y1627D02*
X7Y1627D01*
X1918Y1627D02*
X1925Y1627D01*
X0Y1626D02*
X7Y1626D01*
X1918Y1626D02*
X1925Y1626D01*
X0Y1625D02*
X7Y1625D01*
X1918Y1625D02*
X1925Y1625D01*
X0Y1624D02*
X7Y1624D01*
X1918Y1624D02*
X1925Y1624D01*
X0Y1623D02*
X7Y1623D01*
X1918Y1623D02*
X1925Y1623D01*
X0Y1622D02*
X7Y1622D01*
X1918Y1622D02*
X1925Y1622D01*
X0Y1621D02*
X7Y1621D01*
X1918Y1621D02*
X1925Y1621D01*
X0Y1620D02*
X7Y1620D01*
X1918Y1620D02*
X1925Y1620D01*
X0Y1619D02*
X7Y1619D01*
X1918Y1619D02*
X1925Y1619D01*
X0Y1618D02*
X7Y1618D01*
X1918Y1618D02*
X1925Y1618D01*
X0Y1617D02*
X7Y1617D01*
X1918Y1617D02*
X1925Y1617D01*
X0Y1616D02*
X7Y1616D01*
X1918Y1616D02*
X1925Y1616D01*
X0Y1615D02*
X7Y1615D01*
X1918Y1615D02*
X1925Y1615D01*
X0Y1614D02*
X7Y1614D01*
X1918Y1614D02*
X1925Y1614D01*
X0Y1613D02*
X7Y1613D01*
X1918Y1613D02*
X1925Y1613D01*
X0Y1612D02*
X7Y1612D01*
X1918Y1612D02*
X1925Y1612D01*
X0Y1611D02*
X7Y1611D01*
X1918Y1611D02*
X1925Y1611D01*
X0Y1610D02*
X7Y1610D01*
X1918Y1610D02*
X1925Y1610D01*
X0Y1609D02*
X7Y1609D01*
X1918Y1609D02*
X1925Y1609D01*
X0Y1608D02*
X7Y1608D01*
X1656Y1608D02*
X1707Y1608D01*
X1918Y1608D02*
X1925Y1608D01*
X0Y1607D02*
X7Y1607D01*
X1656Y1607D02*
X1709Y1607D01*
X1918Y1607D02*
X1925Y1607D01*
X0Y1606D02*
X7Y1606D01*
X1656Y1606D02*
X1709Y1606D01*
X1918Y1606D02*
X1925Y1606D01*
X0Y1605D02*
X7Y1605D01*
X1656Y1605D02*
X1709Y1605D01*
X1918Y1605D02*
X1925Y1605D01*
X0Y1604D02*
X7Y1604D01*
X1656Y1604D02*
X1709Y1604D01*
X1918Y1604D02*
X1925Y1604D01*
X0Y1603D02*
X7Y1603D01*
X1656Y1603D02*
X1709Y1603D01*
X1918Y1603D02*
X1925Y1603D01*
X0Y1602D02*
X7Y1602D01*
X1656Y1602D02*
X1708Y1602D01*
X1918Y1602D02*
X1925Y1602D01*
X0Y1601D02*
X7Y1601D01*
X1656Y1601D02*
X1662Y1601D01*
X1674Y1601D02*
X1680Y1601D01*
X1918Y1601D02*
X1925Y1601D01*
X0Y1600D02*
X7Y1600D01*
X1656Y1600D02*
X1662Y1600D01*
X1674Y1600D02*
X1680Y1600D01*
X1918Y1600D02*
X1925Y1600D01*
X0Y1599D02*
X7Y1599D01*
X1656Y1599D02*
X1662Y1599D01*
X1674Y1599D02*
X1680Y1599D01*
X1918Y1599D02*
X1925Y1599D01*
X0Y1598D02*
X7Y1598D01*
X1656Y1598D02*
X1662Y1598D01*
X1674Y1598D02*
X1680Y1598D01*
X1918Y1598D02*
X1925Y1598D01*
X0Y1597D02*
X7Y1597D01*
X1656Y1597D02*
X1662Y1597D01*
X1674Y1597D02*
X1680Y1597D01*
X1918Y1597D02*
X1925Y1597D01*
X0Y1596D02*
X7Y1596D01*
X1656Y1596D02*
X1662Y1596D01*
X1674Y1596D02*
X1681Y1596D01*
X1918Y1596D02*
X1925Y1596D01*
X0Y1595D02*
X7Y1595D01*
X1656Y1595D02*
X1662Y1595D01*
X1674Y1595D02*
X1683Y1595D01*
X1918Y1595D02*
X1925Y1595D01*
X0Y1594D02*
X7Y1594D01*
X1656Y1594D02*
X1662Y1594D01*
X1674Y1594D02*
X1684Y1594D01*
X1918Y1594D02*
X1925Y1594D01*
X0Y1593D02*
X7Y1593D01*
X1656Y1593D02*
X1662Y1593D01*
X1674Y1593D02*
X1686Y1593D01*
X1918Y1593D02*
X1925Y1593D01*
X0Y1592D02*
X7Y1592D01*
X1656Y1592D02*
X1662Y1592D01*
X1674Y1592D02*
X1688Y1592D01*
X1918Y1592D02*
X1925Y1592D01*
X0Y1591D02*
X7Y1591D01*
X1656Y1591D02*
X1662Y1591D01*
X1674Y1591D02*
X1689Y1591D01*
X1918Y1591D02*
X1925Y1591D01*
X0Y1590D02*
X7Y1590D01*
X1656Y1590D02*
X1662Y1590D01*
X1674Y1590D02*
X1691Y1590D01*
X1918Y1590D02*
X1925Y1590D01*
X0Y1589D02*
X7Y1589D01*
X1656Y1589D02*
X1662Y1589D01*
X1674Y1589D02*
X1693Y1589D01*
X1918Y1589D02*
X1925Y1589D01*
X0Y1588D02*
X7Y1588D01*
X1656Y1588D02*
X1662Y1588D01*
X1674Y1588D02*
X1695Y1588D01*
X1918Y1588D02*
X1925Y1588D01*
X0Y1587D02*
X7Y1587D01*
X1656Y1587D02*
X1662Y1587D01*
X1674Y1587D02*
X1680Y1587D01*
X1683Y1587D02*
X1696Y1587D01*
X1918Y1587D02*
X1925Y1587D01*
X0Y1586D02*
X7Y1586D01*
X1656Y1586D02*
X1662Y1586D01*
X1674Y1586D02*
X1680Y1586D01*
X1685Y1586D02*
X1698Y1586D01*
X1918Y1586D02*
X1925Y1586D01*
X0Y1585D02*
X7Y1585D01*
X1656Y1585D02*
X1662Y1585D01*
X1674Y1585D02*
X1680Y1585D01*
X1687Y1585D02*
X1700Y1585D01*
X1918Y1585D02*
X1925Y1585D01*
X0Y1584D02*
X7Y1584D01*
X1656Y1584D02*
X1662Y1584D01*
X1674Y1584D02*
X1680Y1584D01*
X1688Y1584D02*
X1701Y1584D01*
X1918Y1584D02*
X1925Y1584D01*
X0Y1583D02*
X7Y1583D01*
X1656Y1583D02*
X1663Y1583D01*
X1674Y1583D02*
X1680Y1583D01*
X1690Y1583D02*
X1703Y1583D01*
X1918Y1583D02*
X1925Y1583D01*
X0Y1582D02*
X7Y1582D01*
X1657Y1582D02*
X1663Y1582D01*
X1673Y1582D02*
X1680Y1582D01*
X1692Y1582D02*
X1705Y1582D01*
X1918Y1582D02*
X1925Y1582D01*
X0Y1581D02*
X7Y1581D01*
X1657Y1581D02*
X1665Y1581D01*
X1672Y1581D02*
X1679Y1581D01*
X1694Y1581D02*
X1707Y1581D01*
X1918Y1581D02*
X1925Y1581D01*
X0Y1580D02*
X7Y1580D01*
X1657Y1580D02*
X1679Y1580D01*
X1695Y1580D02*
X1708Y1580D01*
X1918Y1580D02*
X1925Y1580D01*
X0Y1579D02*
X7Y1579D01*
X1658Y1579D02*
X1679Y1579D01*
X1697Y1579D02*
X1709Y1579D01*
X1918Y1579D02*
X1925Y1579D01*
X0Y1578D02*
X7Y1578D01*
X1658Y1578D02*
X1678Y1578D01*
X1699Y1578D02*
X1709Y1578D01*
X1918Y1578D02*
X1925Y1578D01*
X0Y1577D02*
X7Y1577D01*
X1659Y1577D02*
X1677Y1577D01*
X1700Y1577D02*
X1709Y1577D01*
X1918Y1577D02*
X1925Y1577D01*
X0Y1576D02*
X7Y1576D01*
X1660Y1576D02*
X1676Y1576D01*
X1702Y1576D02*
X1709Y1576D01*
X1918Y1576D02*
X1925Y1576D01*
X0Y1575D02*
X7Y1575D01*
X1662Y1575D02*
X1674Y1575D01*
X1704Y1575D02*
X1709Y1575D01*
X1918Y1575D02*
X1925Y1575D01*
X0Y1574D02*
X7Y1574D01*
X1664Y1574D02*
X1672Y1574D01*
X1706Y1574D02*
X1707Y1574D01*
X1918Y1574D02*
X1925Y1574D01*
X0Y1573D02*
X7Y1573D01*
X1918Y1573D02*
X1925Y1573D01*
X0Y1572D02*
X7Y1572D01*
X1918Y1572D02*
X1925Y1572D01*
X0Y1571D02*
X7Y1571D01*
X1918Y1571D02*
X1925Y1571D01*
X0Y1570D02*
X7Y1570D01*
X1918Y1570D02*
X1925Y1570D01*
X0Y1569D02*
X7Y1569D01*
X1918Y1569D02*
X1925Y1569D01*
X0Y1568D02*
X7Y1568D01*
X1918Y1568D02*
X1925Y1568D01*
X0Y1567D02*
X7Y1567D01*
X1918Y1567D02*
X1925Y1567D01*
X0Y1566D02*
X7Y1566D01*
X1918Y1566D02*
X1925Y1566D01*
X0Y1565D02*
X7Y1565D01*
X1918Y1565D02*
X1925Y1565D01*
X0Y1564D02*
X7Y1564D01*
X1918Y1564D02*
X1925Y1564D01*
X0Y1563D02*
X7Y1563D01*
X1918Y1563D02*
X1925Y1563D01*
X0Y1562D02*
X7Y1562D01*
X1918Y1562D02*
X1925Y1562D01*
X0Y1561D02*
X7Y1561D01*
X1918Y1561D02*
X1925Y1561D01*
X0Y1560D02*
X7Y1560D01*
X1918Y1560D02*
X1925Y1560D01*
X0Y1559D02*
X7Y1559D01*
X1918Y1559D02*
X1925Y1559D01*
X0Y1558D02*
X7Y1558D01*
X1659Y1558D02*
X1659Y1558D01*
X1918Y1558D02*
X1925Y1558D01*
X0Y1557D02*
X7Y1557D01*
X1657Y1557D02*
X1661Y1557D01*
X1704Y1557D02*
X1708Y1557D01*
X1918Y1557D02*
X1925Y1557D01*
X0Y1556D02*
X7Y1556D01*
X1657Y1556D02*
X1662Y1556D01*
X1704Y1556D02*
X1709Y1556D01*
X1918Y1556D02*
X1925Y1556D01*
X0Y1555D02*
X7Y1555D01*
X1656Y1555D02*
X1662Y1555D01*
X1704Y1555D02*
X1709Y1555D01*
X1918Y1555D02*
X1925Y1555D01*
X0Y1554D02*
X7Y1554D01*
X1656Y1554D02*
X1662Y1554D01*
X1703Y1554D02*
X1709Y1554D01*
X1918Y1554D02*
X1925Y1554D01*
X0Y1553D02*
X7Y1553D01*
X1656Y1553D02*
X1662Y1553D01*
X1703Y1553D02*
X1709Y1553D01*
X1918Y1553D02*
X1925Y1553D01*
X0Y1552D02*
X7Y1552D01*
X1656Y1552D02*
X1662Y1552D01*
X1703Y1552D02*
X1709Y1552D01*
X1918Y1552D02*
X1925Y1552D01*
X0Y1551D02*
X7Y1551D01*
X1656Y1551D02*
X1662Y1551D01*
X1703Y1551D02*
X1709Y1551D01*
X1918Y1551D02*
X1925Y1551D01*
X0Y1550D02*
X7Y1550D01*
X1656Y1550D02*
X1662Y1550D01*
X1703Y1550D02*
X1709Y1550D01*
X1918Y1550D02*
X1925Y1550D01*
X0Y1549D02*
X7Y1549D01*
X1656Y1549D02*
X1662Y1549D01*
X1703Y1549D02*
X1709Y1549D01*
X1918Y1549D02*
X1925Y1549D01*
X0Y1548D02*
X7Y1548D01*
X1656Y1548D02*
X1662Y1548D01*
X1703Y1548D02*
X1709Y1548D01*
X1918Y1548D02*
X1925Y1548D01*
X0Y1547D02*
X7Y1547D01*
X1656Y1547D02*
X1662Y1547D01*
X1703Y1547D02*
X1709Y1547D01*
X1918Y1547D02*
X1925Y1547D01*
X0Y1546D02*
X7Y1546D01*
X1656Y1546D02*
X1662Y1546D01*
X1703Y1546D02*
X1709Y1546D01*
X1918Y1546D02*
X1925Y1546D01*
X0Y1545D02*
X7Y1545D01*
X1656Y1545D02*
X1662Y1545D01*
X1703Y1545D02*
X1709Y1545D01*
X1918Y1545D02*
X1925Y1545D01*
X0Y1544D02*
X7Y1544D01*
X1656Y1544D02*
X1709Y1544D01*
X1918Y1544D02*
X1925Y1544D01*
X0Y1543D02*
X7Y1543D01*
X1656Y1543D02*
X1709Y1543D01*
X1918Y1543D02*
X1925Y1543D01*
X0Y1542D02*
X7Y1542D01*
X1656Y1542D02*
X1709Y1542D01*
X1918Y1542D02*
X1925Y1542D01*
X0Y1541D02*
X7Y1541D01*
X1656Y1541D02*
X1709Y1541D01*
X1918Y1541D02*
X1925Y1541D01*
X0Y1540D02*
X7Y1540D01*
X1656Y1540D02*
X1709Y1540D01*
X1918Y1540D02*
X1925Y1540D01*
X0Y1539D02*
X7Y1539D01*
X1656Y1539D02*
X1709Y1539D01*
X1918Y1539D02*
X1925Y1539D01*
X0Y1538D02*
X7Y1538D01*
X1656Y1538D02*
X1709Y1538D01*
X1918Y1538D02*
X1925Y1538D01*
X0Y1537D02*
X7Y1537D01*
X1703Y1537D02*
X1709Y1537D01*
X1918Y1537D02*
X1925Y1537D01*
X0Y1536D02*
X7Y1536D01*
X1703Y1536D02*
X1709Y1536D01*
X1918Y1536D02*
X1925Y1536D01*
X0Y1535D02*
X7Y1535D01*
X1703Y1535D02*
X1709Y1535D01*
X1918Y1535D02*
X1925Y1535D01*
X0Y1534D02*
X7Y1534D01*
X1703Y1534D02*
X1709Y1534D01*
X1918Y1534D02*
X1925Y1534D01*
X0Y1533D02*
X7Y1533D01*
X1703Y1533D02*
X1709Y1533D01*
X1918Y1533D02*
X1925Y1533D01*
X0Y1532D02*
X7Y1532D01*
X1703Y1532D02*
X1709Y1532D01*
X1918Y1532D02*
X1925Y1532D01*
X0Y1531D02*
X7Y1531D01*
X1703Y1531D02*
X1709Y1531D01*
X1918Y1531D02*
X1925Y1531D01*
X0Y1530D02*
X7Y1530D01*
X1688Y1530D02*
X1709Y1530D01*
X1918Y1530D02*
X1925Y1530D01*
X0Y1529D02*
X7Y1529D01*
X1686Y1529D02*
X1709Y1529D01*
X1918Y1529D02*
X1925Y1529D01*
X0Y1528D02*
X7Y1528D01*
X1686Y1528D02*
X1709Y1528D01*
X1918Y1528D02*
X1925Y1528D01*
X0Y1527D02*
X7Y1527D01*
X1686Y1527D02*
X1709Y1527D01*
X1918Y1527D02*
X1925Y1527D01*
X0Y1526D02*
X7Y1526D01*
X1686Y1526D02*
X1709Y1526D01*
X1918Y1526D02*
X1925Y1526D01*
X0Y1525D02*
X7Y1525D01*
X1686Y1525D02*
X1709Y1525D01*
X1918Y1525D02*
X1925Y1525D01*
X0Y1524D02*
X7Y1524D01*
X1688Y1524D02*
X1708Y1524D01*
X1918Y1524D02*
X1925Y1524D01*
X0Y1523D02*
X7Y1523D01*
X1918Y1523D02*
X1925Y1523D01*
X0Y1522D02*
X7Y1522D01*
X1918Y1522D02*
X1925Y1522D01*
X0Y1521D02*
X7Y1521D01*
X1918Y1521D02*
X1925Y1521D01*
X0Y1520D02*
X7Y1520D01*
X1918Y1520D02*
X1925Y1520D01*
X0Y1519D02*
X7Y1519D01*
X1918Y1519D02*
X1925Y1519D01*
X0Y1518D02*
X7Y1518D01*
X1918Y1518D02*
X1925Y1518D01*
X0Y1517D02*
X7Y1517D01*
X1918Y1517D02*
X1925Y1517D01*
X0Y1516D02*
X7Y1516D01*
X1918Y1516D02*
X1925Y1516D01*
X0Y1515D02*
X7Y1515D01*
X1918Y1515D02*
X1925Y1515D01*
X0Y1514D02*
X7Y1514D01*
X1918Y1514D02*
X1925Y1514D01*
X0Y1513D02*
X7Y1513D01*
X1918Y1513D02*
X1925Y1513D01*
X0Y1512D02*
X7Y1512D01*
X1918Y1512D02*
X1925Y1512D01*
X0Y1511D02*
X7Y1511D01*
X1918Y1511D02*
X1925Y1511D01*
X0Y1510D02*
X7Y1510D01*
X1918Y1510D02*
X1925Y1510D01*
X0Y1509D02*
X7Y1509D01*
X1918Y1509D02*
X1925Y1509D01*
X0Y1508D02*
X7Y1508D01*
X1918Y1508D02*
X1925Y1508D01*
X0Y1507D02*
X7Y1507D01*
X475Y1507D02*
X484Y1507D01*
X1918Y1507D02*
X1925Y1507D01*
X0Y1506D02*
X7Y1506D01*
X475Y1506D02*
X484Y1506D01*
X1918Y1506D02*
X1925Y1506D01*
X0Y1505D02*
X7Y1505D01*
X475Y1505D02*
X484Y1505D01*
X1918Y1505D02*
X1925Y1505D01*
X0Y1504D02*
X7Y1504D01*
X475Y1504D02*
X484Y1504D01*
X1918Y1504D02*
X1925Y1504D01*
X0Y1503D02*
X7Y1503D01*
X475Y1503D02*
X484Y1503D01*
X1918Y1503D02*
X1925Y1503D01*
X0Y1502D02*
X7Y1502D01*
X475Y1502D02*
X484Y1502D01*
X1918Y1502D02*
X1925Y1502D01*
X0Y1501D02*
X7Y1501D01*
X475Y1501D02*
X484Y1501D01*
X1918Y1501D02*
X1925Y1501D01*
X0Y1500D02*
X7Y1500D01*
X475Y1500D02*
X484Y1500D01*
X1918Y1500D02*
X1925Y1500D01*
X0Y1499D02*
X7Y1499D01*
X1918Y1499D02*
X1925Y1499D01*
X0Y1498D02*
X7Y1498D01*
X1918Y1498D02*
X1925Y1498D01*
X0Y1497D02*
X7Y1497D01*
X1918Y1497D02*
X1925Y1497D01*
X0Y1496D02*
X7Y1496D01*
X1918Y1496D02*
X1925Y1496D01*
X0Y1495D02*
X7Y1495D01*
X1918Y1495D02*
X1925Y1495D01*
X0Y1494D02*
X7Y1494D01*
X1918Y1494D02*
X1925Y1494D01*
X0Y1493D02*
X7Y1493D01*
X1918Y1493D02*
X1925Y1493D01*
X0Y1492D02*
X7Y1492D01*
X1918Y1492D02*
X1925Y1492D01*
X0Y1491D02*
X7Y1491D01*
X1918Y1491D02*
X1925Y1491D01*
X0Y1490D02*
X7Y1490D01*
X1918Y1490D02*
X1925Y1490D01*
X0Y1489D02*
X7Y1489D01*
X1918Y1489D02*
X1925Y1489D01*
X0Y1488D02*
X7Y1488D01*
X1918Y1488D02*
X1925Y1488D01*
X0Y1487D02*
X7Y1487D01*
X1918Y1487D02*
X1925Y1487D01*
X0Y1486D02*
X7Y1486D01*
X1918Y1486D02*
X1925Y1486D01*
X0Y1485D02*
X7Y1485D01*
X1918Y1485D02*
X1925Y1485D01*
X0Y1484D02*
X7Y1484D01*
X1918Y1484D02*
X1925Y1484D01*
X0Y1483D02*
X7Y1483D01*
X1918Y1483D02*
X1925Y1483D01*
X0Y1482D02*
X7Y1482D01*
X1918Y1482D02*
X1925Y1482D01*
X0Y1481D02*
X7Y1481D01*
X1918Y1481D02*
X1925Y1481D01*
X0Y1480D02*
X7Y1480D01*
X1918Y1480D02*
X1925Y1480D01*
X0Y1479D02*
X7Y1479D01*
X1918Y1479D02*
X1925Y1479D01*
X0Y1478D02*
X7Y1478D01*
X1918Y1478D02*
X1925Y1478D01*
X0Y1477D02*
X7Y1477D01*
X1918Y1477D02*
X1925Y1477D01*
X0Y1476D02*
X7Y1476D01*
X1918Y1476D02*
X1925Y1476D01*
X0Y1475D02*
X7Y1475D01*
X1918Y1475D02*
X1925Y1475D01*
X0Y1474D02*
X7Y1474D01*
X1918Y1474D02*
X1925Y1474D01*
X0Y1473D02*
X7Y1473D01*
X1918Y1473D02*
X1925Y1473D01*
X0Y1472D02*
X7Y1472D01*
X1918Y1472D02*
X1925Y1472D01*
X0Y1471D02*
X7Y1471D01*
X1918Y1471D02*
X1925Y1471D01*
X0Y1470D02*
X7Y1470D01*
X1918Y1470D02*
X1925Y1470D01*
X0Y1469D02*
X7Y1469D01*
X1918Y1469D02*
X1925Y1469D01*
X0Y1468D02*
X7Y1468D01*
X1918Y1468D02*
X1925Y1468D01*
X0Y1467D02*
X7Y1467D01*
X1918Y1467D02*
X1925Y1467D01*
X0Y1466D02*
X7Y1466D01*
X1918Y1466D02*
X1925Y1466D01*
X0Y1465D02*
X7Y1465D01*
X1918Y1465D02*
X1925Y1465D01*
X0Y1464D02*
X7Y1464D01*
X1918Y1464D02*
X1925Y1464D01*
X0Y1463D02*
X7Y1463D01*
X1918Y1463D02*
X1925Y1463D01*
X0Y1462D02*
X7Y1462D01*
X1918Y1462D02*
X1925Y1462D01*
X0Y1461D02*
X7Y1461D01*
X1918Y1461D02*
X1925Y1461D01*
X0Y1460D02*
X7Y1460D01*
X1918Y1460D02*
X1925Y1460D01*
X0Y1459D02*
X7Y1459D01*
X1918Y1459D02*
X1925Y1459D01*
X0Y1458D02*
X7Y1458D01*
X1918Y1458D02*
X1925Y1458D01*
X0Y1457D02*
X7Y1457D01*
X1918Y1457D02*
X1925Y1457D01*
X0Y1456D02*
X7Y1456D01*
X1918Y1456D02*
X1925Y1456D01*
X0Y1455D02*
X7Y1455D01*
X1918Y1455D02*
X1925Y1455D01*
X0Y1454D02*
X7Y1454D01*
X1918Y1454D02*
X1925Y1454D01*
X0Y1453D02*
X7Y1453D01*
X1918Y1453D02*
X1925Y1453D01*
X0Y1452D02*
X7Y1452D01*
X1918Y1452D02*
X1925Y1452D01*
X0Y1451D02*
X7Y1451D01*
X1918Y1451D02*
X1925Y1451D01*
X0Y1450D02*
X7Y1450D01*
X1918Y1450D02*
X1925Y1450D01*
X0Y1449D02*
X7Y1449D01*
X1918Y1449D02*
X1925Y1449D01*
X0Y1448D02*
X7Y1448D01*
X1918Y1448D02*
X1925Y1448D01*
X0Y1447D02*
X7Y1447D01*
X1918Y1447D02*
X1925Y1447D01*
X0Y1446D02*
X7Y1446D01*
X1918Y1446D02*
X1925Y1446D01*
X0Y1445D02*
X7Y1445D01*
X1918Y1445D02*
X1925Y1445D01*
X0Y1444D02*
X7Y1444D01*
X1918Y1444D02*
X1925Y1444D01*
X0Y1443D02*
X7Y1443D01*
X1918Y1443D02*
X1925Y1443D01*
X0Y1442D02*
X7Y1442D01*
X1918Y1442D02*
X1925Y1442D01*
X0Y1441D02*
X7Y1441D01*
X1918Y1441D02*
X1925Y1441D01*
X0Y1440D02*
X7Y1440D01*
X1918Y1440D02*
X1925Y1440D01*
X0Y1439D02*
X7Y1439D01*
X1918Y1439D02*
X1925Y1439D01*
X0Y1438D02*
X7Y1438D01*
X1918Y1438D02*
X1925Y1438D01*
X0Y1437D02*
X7Y1437D01*
X1918Y1437D02*
X1925Y1437D01*
X0Y1436D02*
X7Y1436D01*
X1918Y1436D02*
X1925Y1436D01*
X0Y1435D02*
X7Y1435D01*
X1918Y1435D02*
X1925Y1435D01*
X0Y1434D02*
X7Y1434D01*
X1918Y1434D02*
X1925Y1434D01*
X0Y1433D02*
X7Y1433D01*
X1918Y1433D02*
X1925Y1433D01*
X0Y1432D02*
X7Y1432D01*
X1918Y1432D02*
X1925Y1432D01*
X0Y1431D02*
X7Y1431D01*
X1918Y1431D02*
X1925Y1431D01*
X0Y1430D02*
X7Y1430D01*
X1918Y1430D02*
X1925Y1430D01*
X0Y1429D02*
X7Y1429D01*
X1918Y1429D02*
X1925Y1429D01*
X0Y1428D02*
X7Y1428D01*
X1918Y1428D02*
X1925Y1428D01*
X0Y1427D02*
X7Y1427D01*
X1918Y1427D02*
X1925Y1427D01*
X0Y1426D02*
X7Y1426D01*
X1918Y1426D02*
X1925Y1426D01*
X0Y1425D02*
X7Y1425D01*
X1918Y1425D02*
X1925Y1425D01*
X0Y1424D02*
X7Y1424D01*
X1918Y1424D02*
X1925Y1424D01*
X0Y1423D02*
X7Y1423D01*
X1918Y1423D02*
X1925Y1423D01*
X0Y1422D02*
X7Y1422D01*
X1918Y1422D02*
X1925Y1422D01*
X0Y1421D02*
X7Y1421D01*
X1918Y1421D02*
X1925Y1421D01*
X0Y1420D02*
X7Y1420D01*
X1918Y1420D02*
X1925Y1420D01*
X0Y1419D02*
X7Y1419D01*
X1918Y1419D02*
X1925Y1419D01*
X0Y1418D02*
X7Y1418D01*
X1918Y1418D02*
X1925Y1418D01*
X0Y1417D02*
X7Y1417D01*
X1918Y1417D02*
X1925Y1417D01*
X0Y1416D02*
X7Y1416D01*
X1918Y1416D02*
X1925Y1416D01*
X0Y1415D02*
X7Y1415D01*
X1918Y1415D02*
X1925Y1415D01*
X0Y1414D02*
X7Y1414D01*
X1918Y1414D02*
X1925Y1414D01*
X0Y1413D02*
X7Y1413D01*
X1918Y1413D02*
X1925Y1413D01*
X0Y1412D02*
X7Y1412D01*
X1918Y1412D02*
X1925Y1412D01*
X0Y1411D02*
X7Y1411D01*
X1918Y1411D02*
X1925Y1411D01*
X0Y1410D02*
X7Y1410D01*
X1918Y1410D02*
X1925Y1410D01*
X0Y1409D02*
X7Y1409D01*
X1918Y1409D02*
X1925Y1409D01*
X0Y1408D02*
X7Y1408D01*
X1918Y1408D02*
X1925Y1408D01*
X0Y1407D02*
X7Y1407D01*
X1918Y1407D02*
X1925Y1407D01*
X0Y1406D02*
X7Y1406D01*
X1918Y1406D02*
X1925Y1406D01*
X0Y1405D02*
X7Y1405D01*
X1918Y1405D02*
X1925Y1405D01*
X0Y1404D02*
X7Y1404D01*
X1918Y1404D02*
X1925Y1404D01*
X0Y1403D02*
X7Y1403D01*
X1918Y1403D02*
X1925Y1403D01*
X0Y1402D02*
X7Y1402D01*
X1918Y1402D02*
X1925Y1402D01*
X0Y1401D02*
X7Y1401D01*
X1918Y1401D02*
X1925Y1401D01*
X0Y1400D02*
X7Y1400D01*
X1918Y1400D02*
X1925Y1400D01*
X0Y1399D02*
X7Y1399D01*
X1918Y1399D02*
X1925Y1399D01*
X0Y1398D02*
X7Y1398D01*
X1918Y1398D02*
X1925Y1398D01*
X0Y1397D02*
X7Y1397D01*
X1918Y1397D02*
X1925Y1397D01*
X0Y1396D02*
X7Y1396D01*
X1918Y1396D02*
X1925Y1396D01*
X0Y1395D02*
X7Y1395D01*
X1918Y1395D02*
X1925Y1395D01*
X0Y1394D02*
X7Y1394D01*
X1918Y1394D02*
X1925Y1394D01*
X0Y1393D02*
X7Y1393D01*
X1918Y1393D02*
X1925Y1393D01*
X0Y1392D02*
X7Y1392D01*
X1918Y1392D02*
X1925Y1392D01*
X0Y1391D02*
X7Y1391D01*
X1918Y1391D02*
X1925Y1391D01*
X0Y1390D02*
X7Y1390D01*
X1918Y1390D02*
X1925Y1390D01*
X0Y1389D02*
X7Y1389D01*
X1918Y1389D02*
X1925Y1389D01*
X0Y1388D02*
X7Y1388D01*
X1918Y1388D02*
X1925Y1388D01*
X0Y1387D02*
X7Y1387D01*
X1918Y1387D02*
X1925Y1387D01*
X0Y1386D02*
X7Y1386D01*
X1918Y1386D02*
X1925Y1386D01*
X0Y1385D02*
X7Y1385D01*
X1918Y1385D02*
X1925Y1385D01*
X0Y1384D02*
X7Y1384D01*
X1918Y1384D02*
X1925Y1384D01*
X0Y1383D02*
X7Y1383D01*
X1918Y1383D02*
X1925Y1383D01*
X0Y1382D02*
X7Y1382D01*
X1918Y1382D02*
X1925Y1382D01*
X0Y1381D02*
X7Y1381D01*
X1918Y1381D02*
X1925Y1381D01*
X0Y1380D02*
X7Y1380D01*
X1918Y1380D02*
X1925Y1380D01*
X0Y1379D02*
X7Y1379D01*
X1918Y1379D02*
X1925Y1379D01*
X0Y1378D02*
X7Y1378D01*
X1918Y1378D02*
X1925Y1378D01*
X0Y1377D02*
X7Y1377D01*
X1918Y1377D02*
X1925Y1377D01*
X0Y1376D02*
X7Y1376D01*
X1918Y1376D02*
X1925Y1376D01*
X0Y1375D02*
X7Y1375D01*
X1918Y1375D02*
X1925Y1375D01*
X0Y1374D02*
X7Y1374D01*
X1918Y1374D02*
X1925Y1374D01*
X0Y1373D02*
X7Y1373D01*
X1918Y1373D02*
X1925Y1373D01*
X0Y1372D02*
X7Y1372D01*
X1918Y1372D02*
X1925Y1372D01*
X0Y1371D02*
X7Y1371D01*
X1918Y1371D02*
X1925Y1371D01*
X0Y1370D02*
X7Y1370D01*
X1918Y1370D02*
X1925Y1370D01*
X0Y1369D02*
X7Y1369D01*
X1918Y1369D02*
X1925Y1369D01*
X0Y1368D02*
X7Y1368D01*
X1918Y1368D02*
X1925Y1368D01*
X0Y1367D02*
X7Y1367D01*
X1918Y1367D02*
X1925Y1367D01*
X0Y1366D02*
X7Y1366D01*
X1918Y1366D02*
X1925Y1366D01*
X0Y1365D02*
X7Y1365D01*
X1918Y1365D02*
X1925Y1365D01*
X0Y1364D02*
X7Y1364D01*
X1918Y1364D02*
X1925Y1364D01*
X0Y1363D02*
X7Y1363D01*
X1918Y1363D02*
X1925Y1363D01*
X0Y1362D02*
X7Y1362D01*
X1918Y1362D02*
X1925Y1362D01*
X0Y1361D02*
X7Y1361D01*
X1918Y1361D02*
X1925Y1361D01*
X0Y1360D02*
X7Y1360D01*
X1918Y1360D02*
X1925Y1360D01*
X0Y1359D02*
X7Y1359D01*
X1918Y1359D02*
X1925Y1359D01*
X0Y1358D02*
X7Y1358D01*
X1918Y1358D02*
X1925Y1358D01*
X0Y1357D02*
X7Y1357D01*
X1918Y1357D02*
X1925Y1357D01*
X0Y1356D02*
X7Y1356D01*
X1918Y1356D02*
X1925Y1356D01*
X0Y1355D02*
X7Y1355D01*
X1918Y1355D02*
X1925Y1355D01*
X0Y1354D02*
X7Y1354D01*
X1918Y1354D02*
X1925Y1354D01*
X0Y1353D02*
X7Y1353D01*
X1918Y1353D02*
X1925Y1353D01*
X0Y1352D02*
X7Y1352D01*
X1918Y1352D02*
X1925Y1352D01*
X0Y1351D02*
X7Y1351D01*
X1918Y1351D02*
X1925Y1351D01*
X0Y1350D02*
X7Y1350D01*
X1918Y1350D02*
X1925Y1350D01*
X0Y1349D02*
X7Y1349D01*
X1918Y1349D02*
X1925Y1349D01*
X0Y1348D02*
X7Y1348D01*
X1918Y1348D02*
X1925Y1348D01*
X0Y1347D02*
X7Y1347D01*
X1918Y1347D02*
X1925Y1347D01*
X0Y1346D02*
X7Y1346D01*
X1918Y1346D02*
X1925Y1346D01*
X0Y1345D02*
X7Y1345D01*
X1918Y1345D02*
X1925Y1345D01*
X0Y1344D02*
X7Y1344D01*
X1918Y1344D02*
X1925Y1344D01*
X0Y1343D02*
X7Y1343D01*
X1918Y1343D02*
X1925Y1343D01*
X0Y1342D02*
X7Y1342D01*
X1918Y1342D02*
X1925Y1342D01*
X0Y1341D02*
X7Y1341D01*
X1918Y1341D02*
X1925Y1341D01*
X0Y1340D02*
X7Y1340D01*
X1918Y1340D02*
X1925Y1340D01*
X0Y1339D02*
X7Y1339D01*
X1918Y1339D02*
X1925Y1339D01*
X0Y1338D02*
X7Y1338D01*
X1918Y1338D02*
X1925Y1338D01*
X0Y1337D02*
X7Y1337D01*
X1918Y1337D02*
X1925Y1337D01*
X0Y1336D02*
X7Y1336D01*
X1918Y1336D02*
X1925Y1336D01*
X0Y1335D02*
X7Y1335D01*
X1918Y1335D02*
X1925Y1335D01*
X0Y1334D02*
X7Y1334D01*
X1918Y1334D02*
X1925Y1334D01*
X0Y1333D02*
X7Y1333D01*
X1918Y1333D02*
X1925Y1333D01*
X0Y1332D02*
X7Y1332D01*
X1918Y1332D02*
X1925Y1332D01*
X0Y1331D02*
X7Y1331D01*
X1918Y1331D02*
X1925Y1331D01*
X0Y1330D02*
X7Y1330D01*
X1918Y1330D02*
X1925Y1330D01*
X0Y1329D02*
X7Y1329D01*
X1918Y1329D02*
X1925Y1329D01*
X0Y1328D02*
X7Y1328D01*
X1918Y1328D02*
X1925Y1328D01*
X0Y1327D02*
X7Y1327D01*
X1918Y1327D02*
X1925Y1327D01*
X0Y1326D02*
X7Y1326D01*
X1918Y1326D02*
X1925Y1326D01*
X0Y1325D02*
X7Y1325D01*
X1918Y1325D02*
X1925Y1325D01*
X0Y1324D02*
X7Y1324D01*
X1918Y1324D02*
X1925Y1324D01*
X0Y1323D02*
X7Y1323D01*
X1918Y1323D02*
X1925Y1323D01*
X0Y1322D02*
X7Y1322D01*
X1918Y1322D02*
X1925Y1322D01*
X0Y1321D02*
X7Y1321D01*
X1918Y1321D02*
X1925Y1321D01*
X0Y1320D02*
X7Y1320D01*
X1918Y1320D02*
X1925Y1320D01*
X0Y1319D02*
X7Y1319D01*
X1918Y1319D02*
X1925Y1319D01*
X0Y1318D02*
X7Y1318D01*
X1918Y1318D02*
X1925Y1318D01*
X0Y1317D02*
X7Y1317D01*
X1918Y1317D02*
X1925Y1317D01*
X0Y1316D02*
X7Y1316D01*
X1918Y1316D02*
X1925Y1316D01*
X0Y1315D02*
X7Y1315D01*
X1918Y1315D02*
X1925Y1315D01*
X0Y1314D02*
X7Y1314D01*
X1918Y1314D02*
X1925Y1314D01*
X0Y1313D02*
X7Y1313D01*
X1918Y1313D02*
X1925Y1313D01*
X0Y1312D02*
X7Y1312D01*
X1918Y1312D02*
X1925Y1312D01*
X0Y1311D02*
X7Y1311D01*
X1918Y1311D02*
X1925Y1311D01*
X0Y1310D02*
X7Y1310D01*
X1918Y1310D02*
X1925Y1310D01*
X0Y1309D02*
X7Y1309D01*
X435Y1309D02*
X524Y1309D01*
X1918Y1309D02*
X1925Y1309D01*
X0Y1308D02*
X7Y1308D01*
X435Y1308D02*
X524Y1308D01*
X1918Y1308D02*
X1925Y1308D01*
X0Y1307D02*
X7Y1307D01*
X435Y1307D02*
X524Y1307D01*
X1918Y1307D02*
X1925Y1307D01*
X0Y1306D02*
X7Y1306D01*
X435Y1306D02*
X524Y1306D01*
X1918Y1306D02*
X1925Y1306D01*
X0Y1305D02*
X7Y1305D01*
X435Y1305D02*
X524Y1305D01*
X1918Y1305D02*
X1925Y1305D01*
X0Y1304D02*
X7Y1304D01*
X435Y1304D02*
X524Y1304D01*
X1918Y1304D02*
X1925Y1304D01*
X0Y1303D02*
X7Y1303D01*
X435Y1303D02*
X524Y1303D01*
X1918Y1303D02*
X1925Y1303D01*
X0Y1302D02*
X7Y1302D01*
X435Y1302D02*
X524Y1302D01*
X1918Y1302D02*
X1925Y1302D01*
X0Y1301D02*
X7Y1301D01*
X435Y1301D02*
X472Y1301D01*
X487Y1301D02*
X524Y1301D01*
X1918Y1301D02*
X1925Y1301D01*
X0Y1300D02*
X7Y1300D01*
X435Y1300D02*
X467Y1300D01*
X492Y1300D02*
X524Y1300D01*
X1918Y1300D02*
X1925Y1300D01*
X0Y1299D02*
X7Y1299D01*
X1918Y1299D02*
X1925Y1299D01*
X0Y1298D02*
X7Y1298D01*
X1918Y1298D02*
X1925Y1298D01*
X0Y1297D02*
X7Y1297D01*
X1918Y1297D02*
X1925Y1297D01*
X0Y1296D02*
X7Y1296D01*
X1918Y1296D02*
X1925Y1296D01*
X0Y1295D02*
X7Y1295D01*
X1918Y1295D02*
X1925Y1295D01*
X0Y1294D02*
X7Y1294D01*
X1918Y1294D02*
X1925Y1294D01*
X0Y1293D02*
X7Y1293D01*
X1918Y1293D02*
X1925Y1293D01*
X0Y1292D02*
X7Y1292D01*
X1918Y1292D02*
X1925Y1292D01*
X0Y1291D02*
X7Y1291D01*
X1918Y1291D02*
X1925Y1291D01*
X0Y1290D02*
X7Y1290D01*
X1918Y1290D02*
X1925Y1290D01*
X0Y1289D02*
X7Y1289D01*
X1918Y1289D02*
X1925Y1289D01*
X0Y1288D02*
X7Y1288D01*
X1918Y1288D02*
X1925Y1288D01*
X0Y1287D02*
X7Y1287D01*
X1918Y1287D02*
X1925Y1287D01*
X0Y1286D02*
X7Y1286D01*
X1918Y1286D02*
X1925Y1286D01*
X0Y1285D02*
X7Y1285D01*
X1918Y1285D02*
X1925Y1285D01*
X0Y1284D02*
X7Y1284D01*
X1918Y1284D02*
X1925Y1284D01*
X0Y1283D02*
X7Y1283D01*
X1918Y1283D02*
X1925Y1283D01*
X0Y1282D02*
X7Y1282D01*
X1918Y1282D02*
X1925Y1282D01*
X0Y1281D02*
X7Y1281D01*
X1918Y1281D02*
X1925Y1281D01*
X0Y1280D02*
X7Y1280D01*
X1918Y1280D02*
X1925Y1280D01*
X0Y1279D02*
X7Y1279D01*
X1918Y1279D02*
X1925Y1279D01*
X0Y1278D02*
X7Y1278D01*
X1918Y1278D02*
X1925Y1278D01*
X0Y1277D02*
X7Y1277D01*
X1918Y1277D02*
X1925Y1277D01*
X0Y1276D02*
X7Y1276D01*
X1918Y1276D02*
X1925Y1276D01*
X0Y1275D02*
X7Y1275D01*
X1918Y1275D02*
X1925Y1275D01*
X0Y1274D02*
X7Y1274D01*
X1918Y1274D02*
X1925Y1274D01*
X0Y1273D02*
X7Y1273D01*
X1918Y1273D02*
X1925Y1273D01*
X0Y1272D02*
X7Y1272D01*
X1918Y1272D02*
X1925Y1272D01*
X0Y1271D02*
X7Y1271D01*
X1918Y1271D02*
X1925Y1271D01*
X0Y1270D02*
X7Y1270D01*
X1918Y1270D02*
X1925Y1270D01*
X0Y1269D02*
X7Y1269D01*
X1918Y1269D02*
X1925Y1269D01*
X0Y1268D02*
X7Y1268D01*
X1918Y1268D02*
X1925Y1268D01*
X0Y1267D02*
X7Y1267D01*
X1918Y1267D02*
X1925Y1267D01*
X0Y1266D02*
X7Y1266D01*
X1918Y1266D02*
X1925Y1266D01*
X0Y1265D02*
X7Y1265D01*
X1918Y1265D02*
X1925Y1265D01*
X0Y1264D02*
X7Y1264D01*
X1918Y1264D02*
X1925Y1264D01*
X0Y1263D02*
X7Y1263D01*
X1918Y1263D02*
X1925Y1263D01*
X0Y1262D02*
X7Y1262D01*
X1918Y1262D02*
X1925Y1262D01*
X0Y1261D02*
X7Y1261D01*
X1918Y1261D02*
X1925Y1261D01*
X0Y1260D02*
X7Y1260D01*
X1918Y1260D02*
X1925Y1260D01*
X0Y1259D02*
X7Y1259D01*
X1918Y1259D02*
X1925Y1259D01*
X0Y1258D02*
X7Y1258D01*
X1918Y1258D02*
X1925Y1258D01*
X0Y1257D02*
X7Y1257D01*
X1918Y1257D02*
X1925Y1257D01*
X0Y1256D02*
X7Y1256D01*
X1918Y1256D02*
X1925Y1256D01*
X0Y1255D02*
X7Y1255D01*
X1918Y1255D02*
X1925Y1255D01*
X0Y1254D02*
X7Y1254D01*
X1918Y1254D02*
X1925Y1254D01*
X0Y1253D02*
X7Y1253D01*
X1918Y1253D02*
X1925Y1253D01*
X0Y1252D02*
X7Y1252D01*
X1918Y1252D02*
X1925Y1252D01*
X0Y1251D02*
X7Y1251D01*
X1918Y1251D02*
X1925Y1251D01*
X0Y1250D02*
X7Y1250D01*
X1918Y1250D02*
X1925Y1250D01*
X0Y1249D02*
X7Y1249D01*
X1918Y1249D02*
X1925Y1249D01*
X0Y1248D02*
X7Y1248D01*
X1918Y1248D02*
X1925Y1248D01*
X0Y1247D02*
X7Y1247D01*
X1918Y1247D02*
X1925Y1247D01*
X0Y1246D02*
X7Y1246D01*
X1918Y1246D02*
X1925Y1246D01*
X0Y1245D02*
X7Y1245D01*
X1918Y1245D02*
X1925Y1245D01*
X0Y1244D02*
X7Y1244D01*
X1918Y1244D02*
X1925Y1244D01*
X0Y1243D02*
X7Y1243D01*
X1918Y1243D02*
X1925Y1243D01*
X0Y1242D02*
X7Y1242D01*
X1918Y1242D02*
X1925Y1242D01*
X0Y1241D02*
X7Y1241D01*
X1918Y1241D02*
X1925Y1241D01*
X0Y1240D02*
X7Y1240D01*
X1918Y1240D02*
X1925Y1240D01*
X0Y1239D02*
X7Y1239D01*
X1918Y1239D02*
X1925Y1239D01*
X0Y1238D02*
X7Y1238D01*
X1918Y1238D02*
X1925Y1238D01*
X0Y1237D02*
X7Y1237D01*
X1918Y1237D02*
X1925Y1237D01*
X0Y1236D02*
X7Y1236D01*
X1918Y1236D02*
X1925Y1236D01*
X0Y1235D02*
X7Y1235D01*
X1918Y1235D02*
X1925Y1235D01*
X0Y1234D02*
X7Y1234D01*
X1918Y1234D02*
X1925Y1234D01*
X0Y1233D02*
X7Y1233D01*
X1918Y1233D02*
X1925Y1233D01*
X0Y1232D02*
X7Y1232D01*
X1918Y1232D02*
X1925Y1232D01*
X0Y1231D02*
X7Y1231D01*
X1918Y1231D02*
X1925Y1231D01*
X0Y1230D02*
X7Y1230D01*
X1918Y1230D02*
X1925Y1230D01*
X0Y1229D02*
X7Y1229D01*
X1918Y1229D02*
X1925Y1229D01*
X0Y1228D02*
X7Y1228D01*
X1918Y1228D02*
X1925Y1228D01*
X0Y1227D02*
X7Y1227D01*
X1918Y1227D02*
X1925Y1227D01*
X0Y1226D02*
X7Y1226D01*
X1918Y1226D02*
X1925Y1226D01*
X0Y1225D02*
X7Y1225D01*
X1918Y1225D02*
X1925Y1225D01*
X0Y1224D02*
X7Y1224D01*
X1918Y1224D02*
X1925Y1224D01*
X0Y1223D02*
X7Y1223D01*
X1918Y1223D02*
X1925Y1223D01*
X0Y1222D02*
X7Y1222D01*
X1918Y1222D02*
X1925Y1222D01*
X0Y1221D02*
X7Y1221D01*
X1918Y1221D02*
X1925Y1221D01*
X0Y1220D02*
X7Y1220D01*
X1918Y1220D02*
X1925Y1220D01*
X0Y1219D02*
X7Y1219D01*
X1918Y1219D02*
X1925Y1219D01*
X0Y1218D02*
X7Y1218D01*
X1918Y1218D02*
X1925Y1218D01*
X0Y1217D02*
X7Y1217D01*
X1918Y1217D02*
X1925Y1217D01*
X0Y1216D02*
X7Y1216D01*
X1918Y1216D02*
X1925Y1216D01*
X0Y1215D02*
X7Y1215D01*
X1918Y1215D02*
X1925Y1215D01*
X0Y1214D02*
X7Y1214D01*
X1918Y1214D02*
X1925Y1214D01*
X0Y1213D02*
X7Y1213D01*
X1918Y1213D02*
X1925Y1213D01*
X0Y1212D02*
X7Y1212D01*
X1918Y1212D02*
X1925Y1212D01*
X0Y1211D02*
X7Y1211D01*
X1918Y1211D02*
X1925Y1211D01*
X0Y1210D02*
X7Y1210D01*
X1918Y1210D02*
X1925Y1210D01*
X0Y1209D02*
X7Y1209D01*
X1918Y1209D02*
X1925Y1209D01*
X0Y1208D02*
X7Y1208D01*
X1918Y1208D02*
X1925Y1208D01*
X0Y1207D02*
X7Y1207D01*
X1918Y1207D02*
X1925Y1207D01*
X0Y1206D02*
X7Y1206D01*
X1918Y1206D02*
X1925Y1206D01*
X0Y1205D02*
X7Y1205D01*
X351Y1205D02*
X355Y1205D01*
X398Y1205D02*
X402Y1205D01*
X1918Y1205D02*
X1925Y1205D01*
X0Y1204D02*
X7Y1204D01*
X350Y1204D02*
X355Y1204D01*
X397Y1204D02*
X403Y1204D01*
X1918Y1204D02*
X1925Y1204D01*
X0Y1203D02*
X7Y1203D01*
X350Y1203D02*
X356Y1203D01*
X397Y1203D02*
X403Y1203D01*
X1918Y1203D02*
X1925Y1203D01*
X0Y1202D02*
X7Y1202D01*
X350Y1202D02*
X356Y1202D01*
X397Y1202D02*
X403Y1202D01*
X1918Y1202D02*
X1925Y1202D01*
X0Y1201D02*
X7Y1201D01*
X350Y1201D02*
X356Y1201D01*
X397Y1201D02*
X403Y1201D01*
X1918Y1201D02*
X1925Y1201D01*
X0Y1200D02*
X7Y1200D01*
X350Y1200D02*
X356Y1200D01*
X397Y1200D02*
X403Y1200D01*
X1918Y1200D02*
X1925Y1200D01*
X0Y1199D02*
X7Y1199D01*
X350Y1199D02*
X356Y1199D01*
X397Y1199D02*
X403Y1199D01*
X1918Y1199D02*
X1925Y1199D01*
X0Y1198D02*
X7Y1198D01*
X350Y1198D02*
X403Y1198D01*
X1918Y1198D02*
X1925Y1198D01*
X0Y1197D02*
X7Y1197D01*
X350Y1197D02*
X403Y1197D01*
X1918Y1197D02*
X1925Y1197D01*
X0Y1196D02*
X7Y1196D01*
X350Y1196D02*
X403Y1196D01*
X1918Y1196D02*
X1925Y1196D01*
X0Y1195D02*
X7Y1195D01*
X350Y1195D02*
X403Y1195D01*
X1918Y1195D02*
X1925Y1195D01*
X0Y1194D02*
X7Y1194D01*
X350Y1194D02*
X403Y1194D01*
X1918Y1194D02*
X1925Y1194D01*
X0Y1193D02*
X7Y1193D01*
X350Y1193D02*
X403Y1193D01*
X1918Y1193D02*
X1925Y1193D01*
X0Y1192D02*
X7Y1192D01*
X350Y1192D02*
X403Y1192D01*
X1918Y1192D02*
X1925Y1192D01*
X0Y1191D02*
X7Y1191D01*
X350Y1191D02*
X356Y1191D01*
X397Y1191D02*
X403Y1191D01*
X1918Y1191D02*
X1925Y1191D01*
X0Y1190D02*
X7Y1190D01*
X350Y1190D02*
X356Y1190D01*
X397Y1190D02*
X403Y1190D01*
X1918Y1190D02*
X1925Y1190D01*
X0Y1189D02*
X7Y1189D01*
X350Y1189D02*
X356Y1189D01*
X397Y1189D02*
X403Y1189D01*
X1918Y1189D02*
X1925Y1189D01*
X0Y1188D02*
X7Y1188D01*
X350Y1188D02*
X356Y1188D01*
X397Y1188D02*
X403Y1188D01*
X1918Y1188D02*
X1925Y1188D01*
X0Y1187D02*
X7Y1187D01*
X350Y1187D02*
X357Y1187D01*
X396Y1187D02*
X403Y1187D01*
X1918Y1187D02*
X1925Y1187D01*
X0Y1186D02*
X7Y1186D01*
X351Y1186D02*
X359Y1186D01*
X394Y1186D02*
X402Y1186D01*
X1918Y1186D02*
X1925Y1186D01*
X0Y1185D02*
X7Y1185D01*
X351Y1185D02*
X361Y1185D01*
X392Y1185D02*
X402Y1185D01*
X1918Y1185D02*
X1925Y1185D01*
X0Y1184D02*
X7Y1184D01*
X352Y1184D02*
X363Y1184D01*
X390Y1184D02*
X402Y1184D01*
X1918Y1184D02*
X1925Y1184D01*
X0Y1183D02*
X7Y1183D01*
X352Y1183D02*
X365Y1183D01*
X388Y1183D02*
X401Y1183D01*
X1918Y1183D02*
X1925Y1183D01*
X0Y1182D02*
X7Y1182D01*
X353Y1182D02*
X366Y1182D01*
X386Y1182D02*
X400Y1182D01*
X1918Y1182D02*
X1925Y1182D01*
X0Y1181D02*
X7Y1181D01*
X354Y1181D02*
X368Y1181D01*
X384Y1181D02*
X399Y1181D01*
X1918Y1181D02*
X1925Y1181D01*
X0Y1180D02*
X7Y1180D01*
X356Y1180D02*
X370Y1180D01*
X382Y1180D02*
X397Y1180D01*
X1918Y1180D02*
X1925Y1180D01*
X0Y1179D02*
X7Y1179D01*
X358Y1179D02*
X373Y1179D01*
X380Y1179D02*
X395Y1179D01*
X1918Y1179D02*
X1925Y1179D01*
X0Y1178D02*
X7Y1178D01*
X360Y1178D02*
X393Y1178D01*
X1918Y1178D02*
X1925Y1178D01*
X0Y1177D02*
X7Y1177D01*
X362Y1177D02*
X391Y1177D01*
X1918Y1177D02*
X1925Y1177D01*
X0Y1176D02*
X7Y1176D01*
X364Y1176D02*
X389Y1176D01*
X1918Y1176D02*
X1925Y1176D01*
X0Y1175D02*
X7Y1175D01*
X366Y1175D02*
X387Y1175D01*
X1918Y1175D02*
X1925Y1175D01*
X0Y1174D02*
X7Y1174D01*
X368Y1174D02*
X385Y1174D01*
X1918Y1174D02*
X1925Y1174D01*
X0Y1173D02*
X7Y1173D01*
X370Y1173D02*
X383Y1173D01*
X1918Y1173D02*
X1925Y1173D01*
X0Y1172D02*
X7Y1172D01*
X373Y1172D02*
X380Y1172D01*
X1918Y1172D02*
X1925Y1172D01*
X0Y1171D02*
X7Y1171D01*
X1918Y1171D02*
X1925Y1171D01*
X0Y1170D02*
X7Y1170D01*
X1918Y1170D02*
X1925Y1170D01*
X0Y1169D02*
X7Y1169D01*
X1918Y1169D02*
X1925Y1169D01*
X0Y1168D02*
X7Y1168D01*
X1918Y1168D02*
X1925Y1168D01*
X0Y1167D02*
X7Y1167D01*
X1918Y1167D02*
X1925Y1167D01*
X0Y1166D02*
X7Y1166D01*
X1918Y1166D02*
X1925Y1166D01*
X0Y1165D02*
X7Y1165D01*
X1918Y1165D02*
X1925Y1165D01*
X0Y1164D02*
X7Y1164D01*
X1918Y1164D02*
X1925Y1164D01*
X0Y1163D02*
X7Y1163D01*
X1918Y1163D02*
X1925Y1163D01*
X0Y1162D02*
X7Y1162D01*
X1918Y1162D02*
X1925Y1162D01*
X0Y1161D02*
X7Y1161D01*
X1918Y1161D02*
X1925Y1161D01*
X0Y1160D02*
X7Y1160D01*
X1918Y1160D02*
X1925Y1160D01*
X0Y1159D02*
X7Y1159D01*
X1918Y1159D02*
X1925Y1159D01*
X0Y1158D02*
X7Y1158D01*
X1918Y1158D02*
X1925Y1158D01*
X0Y1157D02*
X7Y1157D01*
X1918Y1157D02*
X1925Y1157D01*
X0Y1156D02*
X7Y1156D01*
X1918Y1156D02*
X1925Y1156D01*
X0Y1155D02*
X7Y1155D01*
X351Y1155D02*
X354Y1155D01*
X399Y1155D02*
X401Y1155D01*
X1918Y1155D02*
X1925Y1155D01*
X0Y1154D02*
X7Y1154D01*
X350Y1154D02*
X355Y1154D01*
X398Y1154D02*
X402Y1154D01*
X1918Y1154D02*
X1925Y1154D01*
X0Y1153D02*
X7Y1153D01*
X350Y1153D02*
X356Y1153D01*
X397Y1153D02*
X403Y1153D01*
X1918Y1153D02*
X1925Y1153D01*
X0Y1152D02*
X7Y1152D01*
X350Y1152D02*
X356Y1152D01*
X397Y1152D02*
X403Y1152D01*
X1918Y1152D02*
X1925Y1152D01*
X0Y1151D02*
X7Y1151D01*
X350Y1151D02*
X356Y1151D01*
X397Y1151D02*
X403Y1151D01*
X1918Y1151D02*
X1925Y1151D01*
X0Y1150D02*
X7Y1150D01*
X350Y1150D02*
X356Y1150D01*
X397Y1150D02*
X403Y1150D01*
X1918Y1150D02*
X1925Y1150D01*
X0Y1149D02*
X7Y1149D01*
X350Y1149D02*
X356Y1149D01*
X397Y1149D02*
X403Y1149D01*
X1918Y1149D02*
X1925Y1149D01*
X0Y1148D02*
X7Y1148D01*
X350Y1148D02*
X356Y1148D01*
X397Y1148D02*
X403Y1148D01*
X1918Y1148D02*
X1925Y1148D01*
X0Y1147D02*
X7Y1147D01*
X350Y1147D02*
X356Y1147D01*
X397Y1147D02*
X403Y1147D01*
X1918Y1147D02*
X1925Y1147D01*
X0Y1146D02*
X7Y1146D01*
X350Y1146D02*
X356Y1146D01*
X397Y1146D02*
X403Y1146D01*
X1918Y1146D02*
X1925Y1146D01*
X0Y1145D02*
X7Y1145D01*
X350Y1145D02*
X356Y1145D01*
X397Y1145D02*
X403Y1145D01*
X1918Y1145D02*
X1925Y1145D01*
X0Y1144D02*
X7Y1144D01*
X350Y1144D02*
X356Y1144D01*
X397Y1144D02*
X403Y1144D01*
X1918Y1144D02*
X1925Y1144D01*
X0Y1143D02*
X7Y1143D01*
X350Y1143D02*
X356Y1143D01*
X397Y1143D02*
X403Y1143D01*
X1918Y1143D02*
X1925Y1143D01*
X0Y1142D02*
X7Y1142D01*
X350Y1142D02*
X356Y1142D01*
X397Y1142D02*
X403Y1142D01*
X1918Y1142D02*
X1925Y1142D01*
X0Y1141D02*
X7Y1141D01*
X350Y1141D02*
X403Y1141D01*
X1918Y1141D02*
X1925Y1141D01*
X0Y1140D02*
X7Y1140D01*
X350Y1140D02*
X403Y1140D01*
X1918Y1140D02*
X1925Y1140D01*
X0Y1139D02*
X7Y1139D01*
X350Y1139D02*
X403Y1139D01*
X1918Y1139D02*
X1925Y1139D01*
X0Y1138D02*
X7Y1138D01*
X350Y1138D02*
X403Y1138D01*
X1918Y1138D02*
X1925Y1138D01*
X0Y1137D02*
X7Y1137D01*
X350Y1137D02*
X403Y1137D01*
X1918Y1137D02*
X1925Y1137D01*
X0Y1136D02*
X7Y1136D01*
X350Y1136D02*
X403Y1136D01*
X1918Y1136D02*
X1925Y1136D01*
X0Y1135D02*
X7Y1135D01*
X350Y1135D02*
X403Y1135D01*
X1918Y1135D02*
X1925Y1135D01*
X0Y1134D02*
X7Y1134D01*
X397Y1134D02*
X403Y1134D01*
X1918Y1134D02*
X1925Y1134D01*
X0Y1133D02*
X7Y1133D01*
X397Y1133D02*
X403Y1133D01*
X1918Y1133D02*
X1925Y1133D01*
X0Y1132D02*
X7Y1132D01*
X397Y1132D02*
X403Y1132D01*
X1918Y1132D02*
X1925Y1132D01*
X0Y1131D02*
X7Y1131D01*
X397Y1131D02*
X403Y1131D01*
X1918Y1131D02*
X1925Y1131D01*
X0Y1130D02*
X7Y1130D01*
X397Y1130D02*
X403Y1130D01*
X1918Y1130D02*
X1925Y1130D01*
X0Y1129D02*
X7Y1129D01*
X397Y1129D02*
X403Y1129D01*
X1918Y1129D02*
X1925Y1129D01*
X0Y1128D02*
X7Y1128D01*
X382Y1128D02*
X403Y1128D01*
X1918Y1128D02*
X1925Y1128D01*
X0Y1127D02*
X7Y1127D01*
X380Y1127D02*
X403Y1127D01*
X1918Y1127D02*
X1925Y1127D01*
X0Y1126D02*
X7Y1126D01*
X380Y1126D02*
X403Y1126D01*
X1918Y1126D02*
X1925Y1126D01*
X0Y1125D02*
X7Y1125D01*
X379Y1125D02*
X403Y1125D01*
X1918Y1125D02*
X1925Y1125D01*
X0Y1124D02*
X7Y1124D01*
X379Y1124D02*
X403Y1124D01*
X1918Y1124D02*
X1925Y1124D01*
X0Y1123D02*
X7Y1123D01*
X380Y1123D02*
X403Y1123D01*
X1918Y1123D02*
X1925Y1123D01*
X0Y1122D02*
X7Y1122D01*
X381Y1122D02*
X402Y1122D01*
X1918Y1122D02*
X1925Y1122D01*
X0Y1121D02*
X7Y1121D01*
X1918Y1121D02*
X1925Y1121D01*
X0Y1120D02*
X7Y1120D01*
X1918Y1120D02*
X1925Y1120D01*
X0Y1119D02*
X7Y1119D01*
X1918Y1119D02*
X1925Y1119D01*
X0Y1118D02*
X7Y1118D01*
X1918Y1118D02*
X1925Y1118D01*
X0Y1117D02*
X7Y1117D01*
X1918Y1117D02*
X1925Y1117D01*
X0Y1116D02*
X7Y1116D01*
X1918Y1116D02*
X1925Y1116D01*
X0Y1115D02*
X7Y1115D01*
X1918Y1115D02*
X1925Y1115D01*
X0Y1114D02*
X7Y1114D01*
X1918Y1114D02*
X1925Y1114D01*
X0Y1113D02*
X7Y1113D01*
X1918Y1113D02*
X1925Y1113D01*
X0Y1112D02*
X7Y1112D01*
X1918Y1112D02*
X1925Y1112D01*
X0Y1111D02*
X7Y1111D01*
X1918Y1111D02*
X1925Y1111D01*
X0Y1110D02*
X7Y1110D01*
X1918Y1110D02*
X1925Y1110D01*
X0Y1109D02*
X7Y1109D01*
X1918Y1109D02*
X1925Y1109D01*
X0Y1108D02*
X7Y1108D01*
X1918Y1108D02*
X1925Y1108D01*
X0Y1107D02*
X7Y1107D01*
X1918Y1107D02*
X1925Y1107D01*
X0Y1106D02*
X7Y1106D01*
X1918Y1106D02*
X1925Y1106D01*
X0Y1105D02*
X7Y1105D01*
X1918Y1105D02*
X1925Y1105D01*
X0Y1104D02*
X7Y1104D01*
X1918Y1104D02*
X1925Y1104D01*
X0Y1103D02*
X7Y1103D01*
X526Y1103D02*
X542Y1103D01*
X572Y1103D02*
X575Y1103D01*
X1918Y1103D02*
X1925Y1103D01*
X0Y1102D02*
X7Y1102D01*
X525Y1102D02*
X543Y1102D01*
X571Y1102D02*
X576Y1102D01*
X1918Y1102D02*
X1925Y1102D01*
X0Y1101D02*
X7Y1101D01*
X524Y1101D02*
X543Y1101D01*
X571Y1101D02*
X577Y1101D01*
X1918Y1101D02*
X1925Y1101D01*
X0Y1100D02*
X7Y1100D01*
X524Y1100D02*
X544Y1100D01*
X571Y1100D02*
X577Y1100D01*
X1918Y1100D02*
X1925Y1100D01*
X0Y1099D02*
X7Y1099D01*
X524Y1099D02*
X544Y1099D01*
X571Y1099D02*
X577Y1099D01*
X1918Y1099D02*
X1925Y1099D01*
X0Y1098D02*
X7Y1098D01*
X524Y1098D02*
X544Y1098D01*
X571Y1098D02*
X577Y1098D01*
X1918Y1098D02*
X1925Y1098D01*
X0Y1097D02*
X7Y1097D01*
X524Y1097D02*
X544Y1097D01*
X571Y1097D02*
X577Y1097D01*
X1918Y1097D02*
X1925Y1097D01*
X0Y1096D02*
X7Y1096D01*
X524Y1096D02*
X530Y1096D01*
X538Y1096D02*
X544Y1096D01*
X571Y1096D02*
X577Y1096D01*
X1918Y1096D02*
X1925Y1096D01*
X0Y1095D02*
X7Y1095D01*
X524Y1095D02*
X530Y1095D01*
X538Y1095D02*
X544Y1095D01*
X571Y1095D02*
X577Y1095D01*
X1918Y1095D02*
X1925Y1095D01*
X0Y1094D02*
X7Y1094D01*
X524Y1094D02*
X530Y1094D01*
X538Y1094D02*
X544Y1094D01*
X571Y1094D02*
X577Y1094D01*
X1918Y1094D02*
X1925Y1094D01*
X0Y1093D02*
X7Y1093D01*
X524Y1093D02*
X530Y1093D01*
X538Y1093D02*
X544Y1093D01*
X571Y1093D02*
X577Y1093D01*
X1918Y1093D02*
X1925Y1093D01*
X0Y1092D02*
X7Y1092D01*
X524Y1092D02*
X530Y1092D01*
X538Y1092D02*
X544Y1092D01*
X571Y1092D02*
X577Y1092D01*
X1918Y1092D02*
X1925Y1092D01*
X0Y1091D02*
X7Y1091D01*
X524Y1091D02*
X530Y1091D01*
X538Y1091D02*
X544Y1091D01*
X571Y1091D02*
X577Y1091D01*
X1918Y1091D02*
X1925Y1091D01*
X0Y1090D02*
X7Y1090D01*
X524Y1090D02*
X530Y1090D01*
X538Y1090D02*
X544Y1090D01*
X571Y1090D02*
X577Y1090D01*
X1918Y1090D02*
X1925Y1090D01*
X0Y1089D02*
X7Y1089D01*
X524Y1089D02*
X530Y1089D01*
X538Y1089D02*
X544Y1089D01*
X571Y1089D02*
X577Y1089D01*
X1918Y1089D02*
X1925Y1089D01*
X0Y1088D02*
X7Y1088D01*
X524Y1088D02*
X530Y1088D01*
X538Y1088D02*
X544Y1088D01*
X571Y1088D02*
X577Y1088D01*
X1918Y1088D02*
X1925Y1088D01*
X0Y1087D02*
X7Y1087D01*
X524Y1087D02*
X530Y1087D01*
X538Y1087D02*
X544Y1087D01*
X571Y1087D02*
X577Y1087D01*
X1918Y1087D02*
X1925Y1087D01*
X0Y1086D02*
X7Y1086D01*
X524Y1086D02*
X530Y1086D01*
X538Y1086D02*
X544Y1086D01*
X571Y1086D02*
X577Y1086D01*
X1918Y1086D02*
X1925Y1086D01*
X0Y1085D02*
X7Y1085D01*
X524Y1085D02*
X530Y1085D01*
X538Y1085D02*
X544Y1085D01*
X571Y1085D02*
X577Y1085D01*
X1918Y1085D02*
X1925Y1085D01*
X0Y1084D02*
X7Y1084D01*
X524Y1084D02*
X530Y1084D01*
X538Y1084D02*
X544Y1084D01*
X571Y1084D02*
X577Y1084D01*
X1918Y1084D02*
X1925Y1084D01*
X0Y1083D02*
X7Y1083D01*
X524Y1083D02*
X530Y1083D01*
X538Y1083D02*
X544Y1083D01*
X571Y1083D02*
X577Y1083D01*
X1918Y1083D02*
X1925Y1083D01*
X0Y1082D02*
X7Y1082D01*
X524Y1082D02*
X530Y1082D01*
X538Y1082D02*
X544Y1082D01*
X571Y1082D02*
X577Y1082D01*
X1918Y1082D02*
X1925Y1082D01*
X0Y1081D02*
X7Y1081D01*
X524Y1081D02*
X530Y1081D01*
X538Y1081D02*
X544Y1081D01*
X571Y1081D02*
X577Y1081D01*
X1918Y1081D02*
X1925Y1081D01*
X0Y1080D02*
X7Y1080D01*
X524Y1080D02*
X544Y1080D01*
X571Y1080D02*
X577Y1080D01*
X1918Y1080D02*
X1925Y1080D01*
X0Y1079D02*
X7Y1079D01*
X521Y1079D02*
X547Y1079D01*
X571Y1079D02*
X577Y1079D01*
X1918Y1079D02*
X1925Y1079D01*
X0Y1078D02*
X7Y1078D01*
X519Y1078D02*
X548Y1078D01*
X571Y1078D02*
X577Y1078D01*
X1918Y1078D02*
X1925Y1078D01*
X0Y1077D02*
X7Y1077D01*
X518Y1077D02*
X549Y1077D01*
X571Y1077D02*
X577Y1077D01*
X1918Y1077D02*
X1925Y1077D01*
X0Y1076D02*
X7Y1076D01*
X518Y1076D02*
X550Y1076D01*
X571Y1076D02*
X577Y1076D01*
X1918Y1076D02*
X1925Y1076D01*
X0Y1075D02*
X7Y1075D01*
X517Y1075D02*
X550Y1075D01*
X571Y1075D02*
X577Y1075D01*
X1918Y1075D02*
X1925Y1075D01*
X0Y1074D02*
X7Y1074D01*
X517Y1074D02*
X551Y1074D01*
X571Y1074D02*
X577Y1074D01*
X594Y1074D02*
X595Y1074D01*
X1918Y1074D02*
X1925Y1074D01*
X0Y1073D02*
X7Y1073D01*
X517Y1073D02*
X524Y1073D01*
X544Y1073D02*
X551Y1073D01*
X571Y1073D02*
X577Y1073D01*
X592Y1073D02*
X596Y1073D01*
X1918Y1073D02*
X1925Y1073D01*
X0Y1072D02*
X7Y1072D01*
X517Y1072D02*
X523Y1072D01*
X545Y1072D02*
X551Y1072D01*
X571Y1072D02*
X577Y1072D01*
X592Y1072D02*
X597Y1072D01*
X1918Y1072D02*
X1925Y1072D01*
X0Y1071D02*
X7Y1071D01*
X517Y1071D02*
X523Y1071D01*
X545Y1071D02*
X551Y1071D01*
X571Y1071D02*
X577Y1071D01*
X591Y1071D02*
X597Y1071D01*
X1918Y1071D02*
X1925Y1071D01*
X0Y1070D02*
X7Y1070D01*
X517Y1070D02*
X523Y1070D01*
X545Y1070D02*
X551Y1070D01*
X571Y1070D02*
X577Y1070D01*
X591Y1070D02*
X597Y1070D01*
X1918Y1070D02*
X1925Y1070D01*
X0Y1069D02*
X7Y1069D01*
X517Y1069D02*
X523Y1069D01*
X545Y1069D02*
X551Y1069D01*
X571Y1069D02*
X577Y1069D01*
X591Y1069D02*
X597Y1069D01*
X1918Y1069D02*
X1925Y1069D01*
X0Y1068D02*
X7Y1068D01*
X517Y1068D02*
X523Y1068D01*
X545Y1068D02*
X551Y1068D01*
X571Y1068D02*
X577Y1068D01*
X591Y1068D02*
X597Y1068D01*
X1918Y1068D02*
X1925Y1068D01*
X0Y1067D02*
X7Y1067D01*
X517Y1067D02*
X523Y1067D01*
X545Y1067D02*
X551Y1067D01*
X571Y1067D02*
X577Y1067D01*
X591Y1067D02*
X597Y1067D01*
X1918Y1067D02*
X1925Y1067D01*
X0Y1066D02*
X7Y1066D01*
X517Y1066D02*
X523Y1066D01*
X545Y1066D02*
X551Y1066D01*
X571Y1066D02*
X577Y1066D01*
X591Y1066D02*
X597Y1066D01*
X1918Y1066D02*
X1925Y1066D01*
X0Y1065D02*
X7Y1065D01*
X517Y1065D02*
X523Y1065D01*
X545Y1065D02*
X551Y1065D01*
X571Y1065D02*
X577Y1065D01*
X591Y1065D02*
X597Y1065D01*
X1918Y1065D02*
X1925Y1065D01*
X0Y1064D02*
X7Y1064D01*
X517Y1064D02*
X523Y1064D01*
X545Y1064D02*
X551Y1064D01*
X571Y1064D02*
X577Y1064D01*
X591Y1064D02*
X597Y1064D01*
X1918Y1064D02*
X1925Y1064D01*
X0Y1063D02*
X7Y1063D01*
X517Y1063D02*
X523Y1063D01*
X545Y1063D02*
X551Y1063D01*
X571Y1063D02*
X577Y1063D01*
X591Y1063D02*
X597Y1063D01*
X1918Y1063D02*
X1925Y1063D01*
X0Y1062D02*
X7Y1062D01*
X517Y1062D02*
X523Y1062D01*
X545Y1062D02*
X551Y1062D01*
X571Y1062D02*
X577Y1062D01*
X591Y1062D02*
X597Y1062D01*
X1918Y1062D02*
X1925Y1062D01*
X0Y1061D02*
X7Y1061D01*
X517Y1061D02*
X523Y1061D01*
X545Y1061D02*
X551Y1061D01*
X571Y1061D02*
X577Y1061D01*
X591Y1061D02*
X597Y1061D01*
X1918Y1061D02*
X1925Y1061D01*
X0Y1060D02*
X7Y1060D01*
X517Y1060D02*
X523Y1060D01*
X545Y1060D02*
X551Y1060D01*
X571Y1060D02*
X577Y1060D01*
X591Y1060D02*
X597Y1060D01*
X1918Y1060D02*
X1925Y1060D01*
X0Y1059D02*
X7Y1059D01*
X517Y1059D02*
X523Y1059D01*
X545Y1059D02*
X551Y1059D01*
X571Y1059D02*
X577Y1059D01*
X591Y1059D02*
X597Y1059D01*
X1918Y1059D02*
X1925Y1059D01*
X0Y1058D02*
X7Y1058D01*
X517Y1058D02*
X523Y1058D01*
X545Y1058D02*
X551Y1058D01*
X571Y1058D02*
X577Y1058D01*
X591Y1058D02*
X597Y1058D01*
X1918Y1058D02*
X1925Y1058D01*
X0Y1057D02*
X7Y1057D01*
X517Y1057D02*
X523Y1057D01*
X545Y1057D02*
X551Y1057D01*
X571Y1057D02*
X578Y1057D01*
X590Y1057D02*
X597Y1057D01*
X1918Y1057D02*
X1925Y1057D01*
X0Y1056D02*
X7Y1056D01*
X517Y1056D02*
X551Y1056D01*
X571Y1056D02*
X597Y1056D01*
X1918Y1056D02*
X1925Y1056D01*
X0Y1055D02*
X7Y1055D01*
X517Y1055D02*
X550Y1055D01*
X572Y1055D02*
X596Y1055D01*
X1918Y1055D02*
X1925Y1055D01*
X0Y1054D02*
X7Y1054D01*
X517Y1054D02*
X550Y1054D01*
X573Y1054D02*
X596Y1054D01*
X1918Y1054D02*
X1925Y1054D01*
X0Y1053D02*
X7Y1053D01*
X518Y1053D02*
X550Y1053D01*
X573Y1053D02*
X595Y1053D01*
X1918Y1053D02*
X1925Y1053D01*
X0Y1052D02*
X7Y1052D01*
X519Y1052D02*
X549Y1052D01*
X574Y1052D02*
X594Y1052D01*
X1918Y1052D02*
X1925Y1052D01*
X0Y1051D02*
X7Y1051D01*
X520Y1051D02*
X548Y1051D01*
X576Y1051D02*
X592Y1051D01*
X1918Y1051D02*
X1925Y1051D01*
X0Y1050D02*
X7Y1050D01*
X521Y1050D02*
X546Y1050D01*
X578Y1050D02*
X590Y1050D01*
X1918Y1050D02*
X1925Y1050D01*
X0Y1049D02*
X7Y1049D01*
X1918Y1049D02*
X1925Y1049D01*
X0Y1048D02*
X7Y1048D01*
X1918Y1048D02*
X1925Y1048D01*
X0Y1047D02*
X7Y1047D01*
X1918Y1047D02*
X1925Y1047D01*
X0Y1046D02*
X7Y1046D01*
X1918Y1046D02*
X1925Y1046D01*
X0Y1045D02*
X7Y1045D01*
X1918Y1045D02*
X1925Y1045D01*
X0Y1044D02*
X7Y1044D01*
X1918Y1044D02*
X1925Y1044D01*
X0Y1043D02*
X7Y1043D01*
X1918Y1043D02*
X1925Y1043D01*
X0Y1042D02*
X7Y1042D01*
X1918Y1042D02*
X1925Y1042D01*
X0Y1041D02*
X7Y1041D01*
X1918Y1041D02*
X1925Y1041D01*
X0Y1040D02*
X7Y1040D01*
X1918Y1040D02*
X1925Y1040D01*
X0Y1039D02*
X7Y1039D01*
X1918Y1039D02*
X1925Y1039D01*
X0Y1038D02*
X7Y1038D01*
X1918Y1038D02*
X1925Y1038D01*
X0Y1037D02*
X7Y1037D01*
X1918Y1037D02*
X1925Y1037D01*
X0Y1036D02*
X7Y1036D01*
X1918Y1036D02*
X1925Y1036D01*
X0Y1035D02*
X7Y1035D01*
X1918Y1035D02*
X1925Y1035D01*
X0Y1034D02*
X7Y1034D01*
X1918Y1034D02*
X1925Y1034D01*
X0Y1033D02*
X7Y1033D01*
X1918Y1033D02*
X1925Y1033D01*
X0Y1032D02*
X7Y1032D01*
X1918Y1032D02*
X1925Y1032D01*
X0Y1031D02*
X7Y1031D01*
X1918Y1031D02*
X1925Y1031D01*
X0Y1030D02*
X7Y1030D01*
X1918Y1030D02*
X1925Y1030D01*
X0Y1029D02*
X7Y1029D01*
X1918Y1029D02*
X1925Y1029D01*
X0Y1028D02*
X7Y1028D01*
X1918Y1028D02*
X1925Y1028D01*
X0Y1027D02*
X7Y1027D01*
X1918Y1027D02*
X1925Y1027D01*
X0Y1026D02*
X7Y1026D01*
X1918Y1026D02*
X1925Y1026D01*
X0Y1025D02*
X7Y1025D01*
X1918Y1025D02*
X1925Y1025D01*
X0Y1024D02*
X7Y1024D01*
X1918Y1024D02*
X1925Y1024D01*
X0Y1023D02*
X7Y1023D01*
X1918Y1023D02*
X1925Y1023D01*
X0Y1022D02*
X7Y1022D01*
X1918Y1022D02*
X1925Y1022D01*
X0Y1021D02*
X7Y1021D01*
X1918Y1021D02*
X1925Y1021D01*
X0Y1020D02*
X7Y1020D01*
X1918Y1020D02*
X1925Y1020D01*
X0Y1019D02*
X7Y1019D01*
X1918Y1019D02*
X1925Y1019D01*
X0Y1018D02*
X7Y1018D01*
X1918Y1018D02*
X1925Y1018D01*
X0Y1017D02*
X7Y1017D01*
X1918Y1017D02*
X1925Y1017D01*
X0Y1016D02*
X7Y1016D01*
X1918Y1016D02*
X1925Y1016D01*
X0Y1015D02*
X7Y1015D01*
X1918Y1015D02*
X1925Y1015D01*
X0Y1014D02*
X7Y1014D01*
X1918Y1014D02*
X1925Y1014D01*
X0Y1013D02*
X7Y1013D01*
X1918Y1013D02*
X1925Y1013D01*
X0Y1012D02*
X7Y1012D01*
X1918Y1012D02*
X1925Y1012D01*
X0Y1011D02*
X7Y1011D01*
X1918Y1011D02*
X1925Y1011D01*
X0Y1010D02*
X7Y1010D01*
X1918Y1010D02*
X1925Y1010D01*
X0Y1009D02*
X7Y1009D01*
X1918Y1009D02*
X1925Y1009D01*
X0Y1008D02*
X7Y1008D01*
X1918Y1008D02*
X1925Y1008D01*
X0Y1007D02*
X7Y1007D01*
X1918Y1007D02*
X1925Y1007D01*
X0Y1006D02*
X7Y1006D01*
X1918Y1006D02*
X1925Y1006D01*
X0Y1005D02*
X7Y1005D01*
X696Y1005D02*
X696Y1005D01*
X1918Y1005D02*
X1925Y1005D01*
X0Y1004D02*
X7Y1004D01*
X695Y1004D02*
X697Y1004D01*
X1918Y1004D02*
X1925Y1004D01*
X0Y1003D02*
X7Y1003D01*
X694Y1003D02*
X698Y1003D01*
X1918Y1003D02*
X1925Y1003D01*
X0Y1002D02*
X7Y1002D01*
X693Y1002D02*
X699Y1002D01*
X1918Y1002D02*
X1925Y1002D01*
X0Y1001D02*
X7Y1001D01*
X694Y1001D02*
X700Y1001D01*
X1918Y1001D02*
X1925Y1001D01*
X0Y1000D02*
X7Y1000D01*
X695Y1000D02*
X701Y1000D01*
X1918Y1000D02*
X1925Y1000D01*
X0Y999D02*
X7Y999D01*
X696Y999D02*
X702Y999D01*
X1918Y999D02*
X1925Y999D01*
X0Y998D02*
X7Y998D01*
X697Y998D02*
X703Y998D01*
X1918Y998D02*
X1925Y998D01*
X0Y997D02*
X7Y997D01*
X698Y997D02*
X704Y997D01*
X1918Y997D02*
X1925Y997D01*
X0Y996D02*
X7Y996D01*
X699Y996D02*
X705Y996D01*
X1918Y996D02*
X1925Y996D01*
X0Y995D02*
X7Y995D01*
X700Y995D02*
X706Y995D01*
X1918Y995D02*
X1925Y995D01*
X0Y994D02*
X7Y994D01*
X701Y994D02*
X707Y994D01*
X1918Y994D02*
X1925Y994D01*
X0Y993D02*
X7Y993D01*
X702Y993D02*
X708Y993D01*
X1918Y993D02*
X1925Y993D01*
X0Y992D02*
X7Y992D01*
X703Y992D02*
X709Y992D01*
X1918Y992D02*
X1925Y992D01*
X0Y991D02*
X7Y991D01*
X704Y991D02*
X710Y991D01*
X1918Y991D02*
X1925Y991D01*
X0Y990D02*
X7Y990D01*
X705Y990D02*
X711Y990D01*
X1918Y990D02*
X1925Y990D01*
X0Y989D02*
X7Y989D01*
X706Y989D02*
X712Y989D01*
X1918Y989D02*
X1925Y989D01*
X0Y988D02*
X7Y988D01*
X707Y988D02*
X713Y988D01*
X1918Y988D02*
X1925Y988D01*
X0Y987D02*
X7Y987D01*
X708Y987D02*
X714Y987D01*
X1918Y987D02*
X1925Y987D01*
X0Y986D02*
X7Y986D01*
X709Y986D02*
X715Y986D01*
X1918Y986D02*
X1925Y986D01*
X0Y985D02*
X7Y985D01*
X711Y985D02*
X716Y985D01*
X1918Y985D02*
X1925Y985D01*
X0Y984D02*
X7Y984D01*
X711Y984D02*
X717Y984D01*
X1918Y984D02*
X1925Y984D01*
X0Y983D02*
X7Y983D01*
X712Y983D02*
X718Y983D01*
X1918Y983D02*
X1925Y983D01*
X0Y982D02*
X7Y982D01*
X713Y982D02*
X719Y982D01*
X1918Y982D02*
X1925Y982D01*
X0Y981D02*
X7Y981D01*
X714Y981D02*
X720Y981D01*
X1918Y981D02*
X1925Y981D01*
X0Y980D02*
X7Y980D01*
X715Y980D02*
X721Y980D01*
X1918Y980D02*
X1925Y980D01*
X0Y979D02*
X7Y979D01*
X716Y979D02*
X722Y979D01*
X1918Y979D02*
X1925Y979D01*
X0Y978D02*
X7Y978D01*
X717Y978D02*
X723Y978D01*
X1918Y978D02*
X1925Y978D01*
X0Y977D02*
X7Y977D01*
X718Y977D02*
X724Y977D01*
X1918Y977D02*
X1925Y977D01*
X0Y976D02*
X7Y976D01*
X719Y976D02*
X725Y976D01*
X1918Y976D02*
X1925Y976D01*
X0Y975D02*
X7Y975D01*
X720Y975D02*
X726Y975D01*
X1918Y975D02*
X1925Y975D01*
X0Y974D02*
X7Y974D01*
X721Y974D02*
X727Y974D01*
X1918Y974D02*
X1925Y974D01*
X0Y973D02*
X7Y973D01*
X722Y973D02*
X728Y973D01*
X1918Y973D02*
X1925Y973D01*
X0Y972D02*
X7Y972D01*
X723Y972D02*
X729Y972D01*
X1918Y972D02*
X1925Y972D01*
X0Y971D02*
X7Y971D01*
X724Y971D02*
X730Y971D01*
X1918Y971D02*
X1925Y971D01*
X0Y970D02*
X7Y970D01*
X725Y970D02*
X730Y970D01*
X1918Y970D02*
X1925Y970D01*
X0Y969D02*
X7Y969D01*
X726Y969D02*
X729Y969D01*
X1918Y969D02*
X1925Y969D01*
X0Y968D02*
X7Y968D01*
X727Y968D02*
X728Y968D01*
X1918Y968D02*
X1925Y968D01*
X0Y967D02*
X7Y967D01*
X1918Y967D02*
X1925Y967D01*
X0Y966D02*
X7Y966D01*
X1918Y966D02*
X1925Y966D01*
X0Y965D02*
X7Y965D01*
X1918Y965D02*
X1925Y965D01*
X0Y964D02*
X7Y964D01*
X1918Y964D02*
X1925Y964D01*
X0Y963D02*
X7Y963D01*
X1918Y963D02*
X1925Y963D01*
X0Y962D02*
X7Y962D01*
X1918Y962D02*
X1925Y962D01*
X0Y961D02*
X7Y961D01*
X1918Y961D02*
X1925Y961D01*
X0Y960D02*
X7Y960D01*
X1918Y960D02*
X1925Y960D01*
X0Y959D02*
X7Y959D01*
X1918Y959D02*
X1925Y959D01*
X0Y958D02*
X7Y958D01*
X1918Y958D02*
X1925Y958D01*
X0Y957D02*
X7Y957D01*
X1918Y957D02*
X1925Y957D01*
X0Y956D02*
X7Y956D01*
X1918Y956D02*
X1925Y956D01*
X0Y955D02*
X7Y955D01*
X1918Y955D02*
X1925Y955D01*
X0Y954D02*
X7Y954D01*
X1918Y954D02*
X1925Y954D01*
X0Y953D02*
X7Y953D01*
X1918Y953D02*
X1925Y953D01*
X0Y952D02*
X7Y952D01*
X1918Y952D02*
X1925Y952D01*
X0Y951D02*
X7Y951D01*
X1918Y951D02*
X1925Y951D01*
X0Y950D02*
X7Y950D01*
X1918Y950D02*
X1925Y950D01*
X0Y949D02*
X7Y949D01*
X1918Y949D02*
X1925Y949D01*
X0Y948D02*
X7Y948D01*
X1918Y948D02*
X1925Y948D01*
X0Y947D02*
X7Y947D01*
X1918Y947D02*
X1925Y947D01*
X0Y946D02*
X7Y946D01*
X1918Y946D02*
X1925Y946D01*
X0Y945D02*
X7Y945D01*
X1918Y945D02*
X1925Y945D01*
X0Y944D02*
X7Y944D01*
X1918Y944D02*
X1925Y944D01*
X0Y943D02*
X7Y943D01*
X1918Y943D02*
X1925Y943D01*
X0Y942D02*
X7Y942D01*
X1918Y942D02*
X1925Y942D01*
X0Y941D02*
X7Y941D01*
X1918Y941D02*
X1925Y941D01*
X0Y940D02*
X7Y940D01*
X1918Y940D02*
X1925Y940D01*
X0Y939D02*
X7Y939D01*
X1918Y939D02*
X1925Y939D01*
X0Y938D02*
X7Y938D01*
X1918Y938D02*
X1925Y938D01*
X0Y937D02*
X7Y937D01*
X1918Y937D02*
X1925Y937D01*
X0Y936D02*
X7Y936D01*
X1918Y936D02*
X1925Y936D01*
X0Y935D02*
X7Y935D01*
X1918Y935D02*
X1925Y935D01*
X0Y934D02*
X7Y934D01*
X1918Y934D02*
X1925Y934D01*
X0Y933D02*
X7Y933D01*
X1918Y933D02*
X1925Y933D01*
X0Y932D02*
X7Y932D01*
X1918Y932D02*
X1925Y932D01*
X0Y931D02*
X7Y931D01*
X1918Y931D02*
X1925Y931D01*
X0Y930D02*
X7Y930D01*
X1918Y930D02*
X1925Y930D01*
X0Y929D02*
X7Y929D01*
X1918Y929D02*
X1925Y929D01*
X0Y928D02*
X7Y928D01*
X1918Y928D02*
X1925Y928D01*
X0Y927D02*
X7Y927D01*
X1918Y927D02*
X1925Y927D01*
X0Y926D02*
X7Y926D01*
X1918Y926D02*
X1925Y926D01*
X0Y925D02*
X7Y925D01*
X1918Y925D02*
X1925Y925D01*
X0Y924D02*
X7Y924D01*
X1918Y924D02*
X1925Y924D01*
X0Y923D02*
X7Y923D01*
X1918Y923D02*
X1925Y923D01*
X0Y922D02*
X7Y922D01*
X1918Y922D02*
X1925Y922D01*
X0Y921D02*
X7Y921D01*
X1918Y921D02*
X1925Y921D01*
X0Y920D02*
X7Y920D01*
X1918Y920D02*
X1925Y920D01*
X0Y919D02*
X7Y919D01*
X1918Y919D02*
X1925Y919D01*
X0Y918D02*
X7Y918D01*
X1918Y918D02*
X1925Y918D01*
X0Y917D02*
X7Y917D01*
X1918Y917D02*
X1925Y917D01*
X0Y916D02*
X7Y916D01*
X1918Y916D02*
X1925Y916D01*
X0Y915D02*
X7Y915D01*
X1918Y915D02*
X1925Y915D01*
X0Y914D02*
X7Y914D01*
X1918Y914D02*
X1925Y914D01*
X0Y913D02*
X7Y913D01*
X1918Y913D02*
X1925Y913D01*
X0Y912D02*
X7Y912D01*
X1918Y912D02*
X1925Y912D01*
X0Y911D02*
X7Y911D01*
X1918Y911D02*
X1925Y911D01*
X0Y910D02*
X7Y910D01*
X1918Y910D02*
X1925Y910D01*
X0Y909D02*
X7Y909D01*
X1918Y909D02*
X1925Y909D01*
X0Y908D02*
X7Y908D01*
X1918Y908D02*
X1925Y908D01*
X0Y907D02*
X7Y907D01*
X1918Y907D02*
X1925Y907D01*
X0Y906D02*
X7Y906D01*
X1918Y906D02*
X1925Y906D01*
X0Y905D02*
X7Y905D01*
X1918Y905D02*
X1925Y905D01*
X0Y904D02*
X7Y904D01*
X1918Y904D02*
X1925Y904D01*
X0Y903D02*
X7Y903D01*
X1918Y903D02*
X1925Y903D01*
X0Y902D02*
X7Y902D01*
X1918Y902D02*
X1925Y902D01*
X0Y901D02*
X7Y901D01*
X1918Y901D02*
X1925Y901D01*
X0Y900D02*
X7Y900D01*
X1918Y900D02*
X1925Y900D01*
X0Y899D02*
X7Y899D01*
X1918Y899D02*
X1925Y899D01*
X0Y898D02*
X7Y898D01*
X1918Y898D02*
X1925Y898D01*
X0Y897D02*
X7Y897D01*
X1918Y897D02*
X1925Y897D01*
X0Y896D02*
X7Y896D01*
X1918Y896D02*
X1925Y896D01*
X0Y895D02*
X7Y895D01*
X1918Y895D02*
X1925Y895D01*
X0Y894D02*
X7Y894D01*
X1918Y894D02*
X1925Y894D01*
X0Y893D02*
X7Y893D01*
X1918Y893D02*
X1925Y893D01*
X0Y892D02*
X7Y892D01*
X1918Y892D02*
X1925Y892D01*
X0Y891D02*
X7Y891D01*
X1918Y891D02*
X1925Y891D01*
X0Y890D02*
X7Y890D01*
X1918Y890D02*
X1925Y890D01*
X0Y889D02*
X7Y889D01*
X1918Y889D02*
X1925Y889D01*
X0Y888D02*
X7Y888D01*
X1918Y888D02*
X1925Y888D01*
X0Y887D02*
X7Y887D01*
X1918Y887D02*
X1925Y887D01*
X0Y886D02*
X7Y886D01*
X1918Y886D02*
X1925Y886D01*
X0Y885D02*
X7Y885D01*
X1918Y885D02*
X1925Y885D01*
X0Y884D02*
X7Y884D01*
X1918Y884D02*
X1925Y884D01*
X0Y883D02*
X7Y883D01*
X1918Y883D02*
X1925Y883D01*
X0Y882D02*
X7Y882D01*
X1918Y882D02*
X1925Y882D01*
X0Y881D02*
X7Y881D01*
X1918Y881D02*
X1925Y881D01*
X0Y880D02*
X7Y880D01*
X1918Y880D02*
X1925Y880D01*
X0Y879D02*
X7Y879D01*
X1918Y879D02*
X1925Y879D01*
X0Y878D02*
X7Y878D01*
X1918Y878D02*
X1925Y878D01*
X0Y877D02*
X7Y877D01*
X1918Y877D02*
X1925Y877D01*
X0Y876D02*
X7Y876D01*
X1918Y876D02*
X1925Y876D01*
X0Y875D02*
X7Y875D01*
X1918Y875D02*
X1925Y875D01*
X0Y874D02*
X7Y874D01*
X1918Y874D02*
X1925Y874D01*
X0Y873D02*
X7Y873D01*
X1918Y873D02*
X1925Y873D01*
X0Y872D02*
X7Y872D01*
X1918Y872D02*
X1925Y872D01*
X0Y871D02*
X7Y871D01*
X1918Y871D02*
X1925Y871D01*
X0Y870D02*
X7Y870D01*
X1918Y870D02*
X1925Y870D01*
X0Y869D02*
X7Y869D01*
X1918Y869D02*
X1925Y869D01*
X0Y868D02*
X7Y868D01*
X1918Y868D02*
X1925Y868D01*
X0Y867D02*
X7Y867D01*
X1918Y867D02*
X1925Y867D01*
X0Y866D02*
X7Y866D01*
X1918Y866D02*
X1925Y866D01*
X0Y865D02*
X7Y865D01*
X1918Y865D02*
X1925Y865D01*
X0Y864D02*
X7Y864D01*
X1918Y864D02*
X1925Y864D01*
X0Y863D02*
X7Y863D01*
X1918Y863D02*
X1925Y863D01*
X0Y862D02*
X7Y862D01*
X1918Y862D02*
X1925Y862D01*
X0Y861D02*
X7Y861D01*
X1918Y861D02*
X1925Y861D01*
X0Y860D02*
X7Y860D01*
X1918Y860D02*
X1925Y860D01*
X0Y859D02*
X7Y859D01*
X1918Y859D02*
X1925Y859D01*
X0Y858D02*
X7Y858D01*
X1918Y858D02*
X1925Y858D01*
X0Y857D02*
X7Y857D01*
X1918Y857D02*
X1925Y857D01*
X0Y856D02*
X7Y856D01*
X1918Y856D02*
X1925Y856D01*
X0Y855D02*
X7Y855D01*
X1918Y855D02*
X1925Y855D01*
X0Y854D02*
X7Y854D01*
X1918Y854D02*
X1925Y854D01*
X0Y853D02*
X7Y853D01*
X1918Y853D02*
X1925Y853D01*
X0Y852D02*
X7Y852D01*
X1918Y852D02*
X1925Y852D01*
X0Y851D02*
X7Y851D01*
X1918Y851D02*
X1925Y851D01*
X0Y850D02*
X7Y850D01*
X1918Y850D02*
X1925Y850D01*
X0Y849D02*
X7Y849D01*
X1918Y849D02*
X1925Y849D01*
X0Y848D02*
X7Y848D01*
X1918Y848D02*
X1925Y848D01*
X0Y847D02*
X7Y847D01*
X1918Y847D02*
X1925Y847D01*
X0Y846D02*
X7Y846D01*
X1918Y846D02*
X1925Y846D01*
X0Y845D02*
X7Y845D01*
X1918Y845D02*
X1925Y845D01*
X0Y844D02*
X7Y844D01*
X1918Y844D02*
X1925Y844D01*
X0Y843D02*
X7Y843D01*
X1918Y843D02*
X1925Y843D01*
X0Y842D02*
X7Y842D01*
X1918Y842D02*
X1925Y842D01*
X0Y841D02*
X7Y841D01*
X1918Y841D02*
X1925Y841D01*
X0Y840D02*
X7Y840D01*
X1918Y840D02*
X1925Y840D01*
X0Y839D02*
X7Y839D01*
X1918Y839D02*
X1925Y839D01*
X0Y838D02*
X7Y838D01*
X1918Y838D02*
X1925Y838D01*
X0Y837D02*
X7Y837D01*
X1918Y837D02*
X1925Y837D01*
X0Y836D02*
X7Y836D01*
X1918Y836D02*
X1925Y836D01*
X0Y835D02*
X7Y835D01*
X1918Y835D02*
X1925Y835D01*
X0Y834D02*
X7Y834D01*
X1918Y834D02*
X1925Y834D01*
X0Y833D02*
X7Y833D01*
X1918Y833D02*
X1925Y833D01*
X0Y832D02*
X7Y832D01*
X1918Y832D02*
X1925Y832D01*
X0Y831D02*
X7Y831D01*
X1918Y831D02*
X1925Y831D01*
X0Y830D02*
X7Y830D01*
X1918Y830D02*
X1925Y830D01*
X0Y829D02*
X7Y829D01*
X1918Y829D02*
X1925Y829D01*
X0Y828D02*
X7Y828D01*
X1918Y828D02*
X1925Y828D01*
X0Y827D02*
X7Y827D01*
X1918Y827D02*
X1925Y827D01*
X0Y826D02*
X7Y826D01*
X1918Y826D02*
X1925Y826D01*
X0Y825D02*
X7Y825D01*
X1918Y825D02*
X1925Y825D01*
X0Y824D02*
X7Y824D01*
X1918Y824D02*
X1925Y824D01*
X0Y823D02*
X7Y823D01*
X1918Y823D02*
X1925Y823D01*
X0Y822D02*
X7Y822D01*
X1918Y822D02*
X1925Y822D01*
X0Y821D02*
X7Y821D01*
X1918Y821D02*
X1925Y821D01*
X0Y820D02*
X7Y820D01*
X1918Y820D02*
X1925Y820D01*
X0Y819D02*
X7Y819D01*
X1918Y819D02*
X1925Y819D01*
X0Y818D02*
X7Y818D01*
X1918Y818D02*
X1925Y818D01*
X0Y817D02*
X7Y817D01*
X1918Y817D02*
X1925Y817D01*
X0Y816D02*
X7Y816D01*
X1918Y816D02*
X1925Y816D01*
X0Y815D02*
X7Y815D01*
X1918Y815D02*
X1925Y815D01*
X0Y814D02*
X7Y814D01*
X1918Y814D02*
X1925Y814D01*
X0Y813D02*
X7Y813D01*
X1918Y813D02*
X1925Y813D01*
X0Y812D02*
X7Y812D01*
X1918Y812D02*
X1925Y812D01*
X0Y811D02*
X7Y811D01*
X1918Y811D02*
X1925Y811D01*
X0Y810D02*
X7Y810D01*
X1918Y810D02*
X1925Y810D01*
X0Y809D02*
X7Y809D01*
X1918Y809D02*
X1925Y809D01*
X0Y808D02*
X7Y808D01*
X1918Y808D02*
X1925Y808D01*
X0Y807D02*
X7Y807D01*
X1918Y807D02*
X1925Y807D01*
X0Y806D02*
X7Y806D01*
X1918Y806D02*
X1925Y806D01*
X0Y805D02*
X7Y805D01*
X1918Y805D02*
X1925Y805D01*
X0Y804D02*
X7Y804D01*
X1918Y804D02*
X1925Y804D01*
X0Y803D02*
X7Y803D01*
X417Y803D02*
X449Y803D01*
X472Y803D02*
X475Y803D01*
X1918Y803D02*
X1925Y803D01*
X0Y802D02*
X7Y802D01*
X417Y802D02*
X450Y802D01*
X471Y802D02*
X476Y802D01*
X1918Y802D02*
X1925Y802D01*
X0Y801D02*
X7Y801D01*
X417Y801D02*
X450Y801D01*
X471Y801D02*
X477Y801D01*
X1918Y801D02*
X1925Y801D01*
X0Y800D02*
X7Y800D01*
X417Y800D02*
X451Y800D01*
X471Y800D02*
X477Y800D01*
X1918Y800D02*
X1925Y800D01*
X0Y799D02*
X7Y799D01*
X417Y799D02*
X451Y799D01*
X471Y799D02*
X477Y799D01*
X1918Y799D02*
X1925Y799D01*
X0Y798D02*
X7Y798D01*
X417Y798D02*
X451Y798D01*
X471Y798D02*
X477Y798D01*
X1918Y798D02*
X1925Y798D01*
X0Y797D02*
X7Y797D01*
X417Y797D02*
X451Y797D01*
X471Y797D02*
X477Y797D01*
X1918Y797D02*
X1925Y797D01*
X0Y796D02*
X7Y796D01*
X417Y796D02*
X423Y796D01*
X445Y796D02*
X450Y796D01*
X471Y796D02*
X477Y796D01*
X1918Y796D02*
X1925Y796D01*
X0Y795D02*
X7Y795D01*
X417Y795D02*
X423Y795D01*
X445Y795D02*
X450Y795D01*
X471Y795D02*
X477Y795D01*
X1918Y795D02*
X1925Y795D01*
X0Y794D02*
X7Y794D01*
X417Y794D02*
X423Y794D01*
X447Y794D02*
X449Y794D01*
X471Y794D02*
X477Y794D01*
X1918Y794D02*
X1925Y794D01*
X0Y793D02*
X7Y793D01*
X417Y793D02*
X423Y793D01*
X471Y793D02*
X477Y793D01*
X1918Y793D02*
X1925Y793D01*
X0Y792D02*
X7Y792D01*
X417Y792D02*
X423Y792D01*
X471Y792D02*
X473Y792D01*
X1918Y792D02*
X1925Y792D01*
X0Y791D02*
X7Y791D01*
X417Y791D02*
X423Y791D01*
X1918Y791D02*
X1925Y791D01*
X0Y790D02*
X7Y790D01*
X417Y790D02*
X423Y790D01*
X1918Y790D02*
X1925Y790D01*
X0Y789D02*
X7Y789D01*
X417Y789D02*
X423Y789D01*
X1918Y789D02*
X1925Y789D01*
X0Y788D02*
X7Y788D01*
X417Y788D02*
X423Y788D01*
X1918Y788D02*
X1925Y788D01*
X0Y787D02*
X7Y787D01*
X417Y787D02*
X423Y787D01*
X1918Y787D02*
X1925Y787D01*
X0Y786D02*
X7Y786D01*
X417Y786D02*
X423Y786D01*
X1918Y786D02*
X1925Y786D01*
X0Y785D02*
X7Y785D01*
X417Y785D02*
X423Y785D01*
X1918Y785D02*
X1925Y785D01*
X0Y784D02*
X7Y784D01*
X417Y784D02*
X423Y784D01*
X1918Y784D02*
X1925Y784D01*
X0Y783D02*
X7Y783D01*
X417Y783D02*
X424Y783D01*
X1918Y783D02*
X1925Y783D01*
X0Y782D02*
X7Y782D01*
X417Y782D02*
X425Y782D01*
X1918Y782D02*
X1925Y782D01*
X0Y781D02*
X7Y781D01*
X417Y781D02*
X427Y781D01*
X1918Y781D02*
X1925Y781D01*
X0Y780D02*
X7Y780D01*
X418Y780D02*
X428Y780D01*
X1918Y780D02*
X1925Y780D01*
X0Y779D02*
X7Y779D01*
X419Y779D02*
X429Y779D01*
X1918Y779D02*
X1925Y779D01*
X0Y778D02*
X7Y778D01*
X420Y778D02*
X430Y778D01*
X1918Y778D02*
X1925Y778D01*
X0Y777D02*
X7Y777D01*
X422Y777D02*
X431Y777D01*
X1918Y777D02*
X1925Y777D01*
X0Y776D02*
X7Y776D01*
X423Y776D02*
X433Y776D01*
X1918Y776D02*
X1925Y776D01*
X0Y775D02*
X7Y775D01*
X424Y775D02*
X434Y775D01*
X1918Y775D02*
X1925Y775D01*
X0Y774D02*
X7Y774D01*
X425Y774D02*
X435Y774D01*
X1918Y774D02*
X1925Y774D01*
X0Y773D02*
X7Y773D01*
X426Y773D02*
X436Y773D01*
X1918Y773D02*
X1925Y773D01*
X0Y772D02*
X7Y772D01*
X427Y772D02*
X437Y772D01*
X1918Y772D02*
X1925Y772D01*
X0Y771D02*
X7Y771D01*
X429Y771D02*
X437Y771D01*
X1918Y771D02*
X1925Y771D01*
X0Y770D02*
X7Y770D01*
X430Y770D02*
X437Y770D01*
X1918Y770D02*
X1925Y770D01*
X0Y769D02*
X7Y769D01*
X431Y769D02*
X437Y769D01*
X1918Y769D02*
X1925Y769D01*
X0Y768D02*
X7Y768D01*
X431Y768D02*
X437Y768D01*
X1918Y768D02*
X1925Y768D01*
X0Y767D02*
X7Y767D01*
X431Y767D02*
X437Y767D01*
X1918Y767D02*
X1925Y767D01*
X0Y766D02*
X7Y766D01*
X431Y766D02*
X437Y766D01*
X1918Y766D02*
X1925Y766D01*
X0Y765D02*
X7Y765D01*
X431Y765D02*
X437Y765D01*
X1918Y765D02*
X1925Y765D01*
X0Y764D02*
X7Y764D01*
X431Y764D02*
X437Y764D01*
X1918Y764D02*
X1925Y764D01*
X0Y763D02*
X7Y763D01*
X431Y763D02*
X437Y763D01*
X1918Y763D02*
X1925Y763D01*
X0Y762D02*
X7Y762D01*
X431Y762D02*
X437Y762D01*
X1918Y762D02*
X1925Y762D01*
X0Y761D02*
X7Y761D01*
X431Y761D02*
X437Y761D01*
X1918Y761D02*
X1925Y761D01*
X0Y760D02*
X7Y760D01*
X431Y760D02*
X437Y760D01*
X1918Y760D02*
X1925Y760D01*
X0Y759D02*
X7Y759D01*
X431Y759D02*
X437Y759D01*
X1918Y759D02*
X1925Y759D01*
X0Y758D02*
X7Y758D01*
X431Y758D02*
X437Y758D01*
X1918Y758D02*
X1925Y758D01*
X0Y757D02*
X7Y757D01*
X431Y757D02*
X437Y757D01*
X1918Y757D02*
X1925Y757D01*
X0Y756D02*
X7Y756D01*
X431Y756D02*
X437Y756D01*
X1918Y756D02*
X1925Y756D01*
X0Y755D02*
X7Y755D01*
X431Y755D02*
X437Y755D01*
X1918Y755D02*
X1925Y755D01*
X0Y754D02*
X7Y754D01*
X431Y754D02*
X437Y754D01*
X1918Y754D02*
X1925Y754D01*
X0Y753D02*
X7Y753D01*
X431Y753D02*
X437Y753D01*
X1918Y753D02*
X1925Y753D01*
X0Y752D02*
X7Y752D01*
X431Y752D02*
X437Y752D01*
X1918Y752D02*
X1925Y752D01*
X0Y751D02*
X7Y751D01*
X432Y751D02*
X436Y751D01*
X1918Y751D02*
X1925Y751D01*
X0Y750D02*
X7Y750D01*
X433Y750D02*
X435Y750D01*
X1918Y750D02*
X1925Y750D01*
X0Y749D02*
X7Y749D01*
X1918Y749D02*
X1925Y749D01*
X0Y748D02*
X7Y748D01*
X1918Y748D02*
X1925Y748D01*
X0Y747D02*
X7Y747D01*
X1918Y747D02*
X1925Y747D01*
X0Y746D02*
X7Y746D01*
X1918Y746D02*
X1925Y746D01*
X0Y745D02*
X7Y745D01*
X1918Y745D02*
X1925Y745D01*
X0Y744D02*
X7Y744D01*
X1918Y744D02*
X1925Y744D01*
X0Y743D02*
X7Y743D01*
X1918Y743D02*
X1925Y743D01*
X0Y742D02*
X7Y742D01*
X1918Y742D02*
X1925Y742D01*
X0Y741D02*
X7Y741D01*
X1918Y741D02*
X1925Y741D01*
X0Y740D02*
X7Y740D01*
X1918Y740D02*
X1925Y740D01*
X0Y739D02*
X7Y739D01*
X1918Y739D02*
X1925Y739D01*
X0Y738D02*
X7Y738D01*
X1918Y738D02*
X1925Y738D01*
X0Y737D02*
X7Y737D01*
X1918Y737D02*
X1925Y737D01*
X0Y736D02*
X7Y736D01*
X1918Y736D02*
X1925Y736D01*
X0Y735D02*
X7Y735D01*
X1918Y735D02*
X1925Y735D01*
X0Y734D02*
X7Y734D01*
X1918Y734D02*
X1925Y734D01*
X0Y733D02*
X7Y733D01*
X1918Y733D02*
X1925Y733D01*
X0Y732D02*
X7Y732D01*
X1918Y732D02*
X1925Y732D01*
X0Y731D02*
X7Y731D01*
X1918Y731D02*
X1925Y731D01*
X0Y730D02*
X7Y730D01*
X1918Y730D02*
X1925Y730D01*
X0Y729D02*
X7Y729D01*
X1918Y729D02*
X1925Y729D01*
X0Y728D02*
X7Y728D01*
X1918Y728D02*
X1925Y728D01*
X0Y727D02*
X7Y727D01*
X1918Y727D02*
X1925Y727D01*
X0Y726D02*
X7Y726D01*
X1918Y726D02*
X1925Y726D01*
X0Y725D02*
X7Y725D01*
X1918Y725D02*
X1925Y725D01*
X0Y724D02*
X7Y724D01*
X1918Y724D02*
X1925Y724D01*
X0Y723D02*
X7Y723D01*
X1918Y723D02*
X1925Y723D01*
X0Y722D02*
X7Y722D01*
X1918Y722D02*
X1925Y722D01*
X0Y721D02*
X7Y721D01*
X1918Y721D02*
X1925Y721D01*
X0Y720D02*
X7Y720D01*
X1918Y720D02*
X1925Y720D01*
X0Y719D02*
X7Y719D01*
X1918Y719D02*
X1925Y719D01*
X0Y718D02*
X7Y718D01*
X1918Y718D02*
X1925Y718D01*
X0Y717D02*
X7Y717D01*
X1918Y717D02*
X1925Y717D01*
X0Y716D02*
X7Y716D01*
X1918Y716D02*
X1925Y716D01*
X0Y715D02*
X7Y715D01*
X1918Y715D02*
X1925Y715D01*
X0Y714D02*
X7Y714D01*
X1918Y714D02*
X1925Y714D01*
X0Y713D02*
X7Y713D01*
X1918Y713D02*
X1925Y713D01*
X0Y712D02*
X7Y712D01*
X1918Y712D02*
X1925Y712D01*
X0Y711D02*
X7Y711D01*
X1918Y711D02*
X1925Y711D01*
X0Y710D02*
X7Y710D01*
X1918Y710D02*
X1925Y710D01*
X0Y709D02*
X7Y709D01*
X1918Y709D02*
X1925Y709D01*
X0Y708D02*
X7Y708D01*
X1918Y708D02*
X1925Y708D01*
X0Y707D02*
X7Y707D01*
X1918Y707D02*
X1925Y707D01*
X0Y706D02*
X7Y706D01*
X1918Y706D02*
X1925Y706D01*
X0Y705D02*
X7Y705D01*
X596Y705D02*
X596Y705D01*
X1918Y705D02*
X1925Y705D01*
X0Y704D02*
X7Y704D01*
X595Y704D02*
X597Y704D01*
X1918Y704D02*
X1925Y704D01*
X0Y703D02*
X7Y703D01*
X594Y703D02*
X598Y703D01*
X1918Y703D02*
X1925Y703D01*
X0Y702D02*
X7Y702D01*
X593Y702D02*
X599Y702D01*
X1918Y702D02*
X1925Y702D01*
X0Y701D02*
X7Y701D01*
X594Y701D02*
X600Y701D01*
X1918Y701D02*
X1925Y701D01*
X0Y700D02*
X7Y700D01*
X595Y700D02*
X601Y700D01*
X1918Y700D02*
X1925Y700D01*
X0Y699D02*
X7Y699D01*
X596Y699D02*
X602Y699D01*
X1918Y699D02*
X1925Y699D01*
X0Y698D02*
X7Y698D01*
X597Y698D02*
X603Y698D01*
X1918Y698D02*
X1925Y698D01*
X0Y697D02*
X7Y697D01*
X598Y697D02*
X604Y697D01*
X1918Y697D02*
X1925Y697D01*
X0Y696D02*
X7Y696D01*
X599Y696D02*
X605Y696D01*
X1918Y696D02*
X1925Y696D01*
X0Y695D02*
X7Y695D01*
X600Y695D02*
X606Y695D01*
X1918Y695D02*
X1925Y695D01*
X0Y694D02*
X7Y694D01*
X601Y694D02*
X607Y694D01*
X1918Y694D02*
X1925Y694D01*
X0Y693D02*
X7Y693D01*
X602Y693D02*
X608Y693D01*
X1918Y693D02*
X1925Y693D01*
X0Y692D02*
X7Y692D01*
X603Y692D02*
X609Y692D01*
X1918Y692D02*
X1925Y692D01*
X0Y691D02*
X7Y691D01*
X604Y691D02*
X610Y691D01*
X1918Y691D02*
X1925Y691D01*
X0Y690D02*
X7Y690D01*
X605Y690D02*
X611Y690D01*
X1918Y690D02*
X1925Y690D01*
X0Y689D02*
X7Y689D01*
X606Y689D02*
X612Y689D01*
X1918Y689D02*
X1925Y689D01*
X0Y688D02*
X7Y688D01*
X607Y688D02*
X613Y688D01*
X1918Y688D02*
X1925Y688D01*
X0Y687D02*
X7Y687D01*
X608Y687D02*
X614Y687D01*
X1918Y687D02*
X1925Y687D01*
X0Y686D02*
X7Y686D01*
X609Y686D02*
X615Y686D01*
X1918Y686D02*
X1925Y686D01*
X0Y685D02*
X7Y685D01*
X611Y685D02*
X616Y685D01*
X1918Y685D02*
X1925Y685D01*
X0Y684D02*
X7Y684D01*
X612Y684D02*
X617Y684D01*
X1918Y684D02*
X1925Y684D01*
X0Y683D02*
X7Y683D01*
X612Y683D02*
X618Y683D01*
X1918Y683D02*
X1925Y683D01*
X0Y682D02*
X7Y682D01*
X613Y682D02*
X619Y682D01*
X1918Y682D02*
X1925Y682D01*
X0Y681D02*
X7Y681D01*
X614Y681D02*
X620Y681D01*
X1918Y681D02*
X1925Y681D01*
X0Y680D02*
X7Y680D01*
X615Y680D02*
X621Y680D01*
X1918Y680D02*
X1925Y680D01*
X0Y679D02*
X7Y679D01*
X616Y679D02*
X622Y679D01*
X1918Y679D02*
X1925Y679D01*
X0Y678D02*
X7Y678D01*
X617Y678D02*
X623Y678D01*
X1918Y678D02*
X1925Y678D01*
X0Y677D02*
X7Y677D01*
X618Y677D02*
X624Y677D01*
X1918Y677D02*
X1925Y677D01*
X0Y676D02*
X7Y676D01*
X619Y676D02*
X625Y676D01*
X1918Y676D02*
X1925Y676D01*
X0Y675D02*
X7Y675D01*
X620Y675D02*
X626Y675D01*
X1918Y675D02*
X1925Y675D01*
X0Y674D02*
X7Y674D01*
X621Y674D02*
X627Y674D01*
X1918Y674D02*
X1925Y674D01*
X0Y673D02*
X7Y673D01*
X622Y673D02*
X628Y673D01*
X1918Y673D02*
X1925Y673D01*
X0Y672D02*
X7Y672D01*
X623Y672D02*
X629Y672D01*
X1918Y672D02*
X1925Y672D01*
X0Y671D02*
X7Y671D01*
X624Y671D02*
X630Y671D01*
X1918Y671D02*
X1925Y671D01*
X0Y670D02*
X7Y670D01*
X625Y670D02*
X630Y670D01*
X1918Y670D02*
X1925Y670D01*
X0Y669D02*
X7Y669D01*
X626Y669D02*
X629Y669D01*
X1918Y669D02*
X1925Y669D01*
X0Y668D02*
X7Y668D01*
X627Y668D02*
X628Y668D01*
X1918Y668D02*
X1925Y668D01*
X0Y667D02*
X7Y667D01*
X1918Y667D02*
X1925Y667D01*
X0Y666D02*
X7Y666D01*
X1918Y666D02*
X1925Y666D01*
X0Y665D02*
X7Y665D01*
X1918Y665D02*
X1925Y665D01*
X0Y664D02*
X7Y664D01*
X1918Y664D02*
X1925Y664D01*
X0Y663D02*
X7Y663D01*
X1918Y663D02*
X1925Y663D01*
X0Y662D02*
X7Y662D01*
X1918Y662D02*
X1925Y662D01*
X0Y661D02*
X7Y661D01*
X1918Y661D02*
X1925Y661D01*
X0Y660D02*
X7Y660D01*
X1918Y660D02*
X1925Y660D01*
X0Y659D02*
X7Y659D01*
X1918Y659D02*
X1925Y659D01*
X0Y658D02*
X7Y658D01*
X1918Y658D02*
X1925Y658D01*
X0Y657D02*
X7Y657D01*
X1918Y657D02*
X1925Y657D01*
X0Y656D02*
X7Y656D01*
X1918Y656D02*
X1925Y656D01*
X0Y655D02*
X7Y655D01*
X1918Y655D02*
X1925Y655D01*
X0Y654D02*
X7Y654D01*
X1918Y654D02*
X1925Y654D01*
X0Y653D02*
X7Y653D01*
X1918Y653D02*
X1925Y653D01*
X0Y652D02*
X7Y652D01*
X1918Y652D02*
X1925Y652D01*
X0Y651D02*
X7Y651D01*
X1918Y651D02*
X1925Y651D01*
X0Y650D02*
X7Y650D01*
X1918Y650D02*
X1925Y650D01*
X0Y649D02*
X7Y649D01*
X1918Y649D02*
X1925Y649D01*
X0Y648D02*
X7Y648D01*
X1918Y648D02*
X1925Y648D01*
X0Y647D02*
X7Y647D01*
X1918Y647D02*
X1925Y647D01*
X0Y646D02*
X7Y646D01*
X1918Y646D02*
X1925Y646D01*
X0Y645D02*
X7Y645D01*
X1918Y645D02*
X1925Y645D01*
X0Y644D02*
X7Y644D01*
X1918Y644D02*
X1925Y644D01*
X0Y643D02*
X7Y643D01*
X1918Y643D02*
X1925Y643D01*
X0Y642D02*
X7Y642D01*
X1918Y642D02*
X1925Y642D01*
X0Y641D02*
X7Y641D01*
X1918Y641D02*
X1925Y641D01*
X0Y640D02*
X7Y640D01*
X1918Y640D02*
X1925Y640D01*
X0Y639D02*
X7Y639D01*
X1918Y639D02*
X1925Y639D01*
X0Y638D02*
X7Y638D01*
X1918Y638D02*
X1925Y638D01*
X0Y637D02*
X7Y637D01*
X1918Y637D02*
X1925Y637D01*
X0Y636D02*
X7Y636D01*
X1918Y636D02*
X1925Y636D01*
X0Y635D02*
X7Y635D01*
X1918Y635D02*
X1925Y635D01*
X0Y634D02*
X7Y634D01*
X1918Y634D02*
X1925Y634D01*
X0Y633D02*
X7Y633D01*
X1918Y633D02*
X1925Y633D01*
X0Y632D02*
X7Y632D01*
X1918Y632D02*
X1925Y632D01*
X0Y631D02*
X7Y631D01*
X1918Y631D02*
X1925Y631D01*
X0Y630D02*
X7Y630D01*
X1918Y630D02*
X1925Y630D01*
X0Y629D02*
X7Y629D01*
X1918Y629D02*
X1925Y629D01*
X0Y628D02*
X7Y628D01*
X1918Y628D02*
X1925Y628D01*
X0Y627D02*
X7Y627D01*
X1918Y627D02*
X1925Y627D01*
X0Y626D02*
X7Y626D01*
X1918Y626D02*
X1925Y626D01*
X0Y625D02*
X7Y625D01*
X1918Y625D02*
X1925Y625D01*
X0Y624D02*
X7Y624D01*
X1918Y624D02*
X1925Y624D01*
X0Y623D02*
X7Y623D01*
X1918Y623D02*
X1925Y623D01*
X0Y622D02*
X7Y622D01*
X1918Y622D02*
X1925Y622D01*
X0Y621D02*
X7Y621D01*
X1918Y621D02*
X1925Y621D01*
X0Y620D02*
X7Y620D01*
X1918Y620D02*
X1925Y620D01*
X0Y619D02*
X7Y619D01*
X1918Y619D02*
X1925Y619D01*
X0Y618D02*
X7Y618D01*
X1918Y618D02*
X1925Y618D01*
X0Y617D02*
X7Y617D01*
X1918Y617D02*
X1925Y617D01*
X0Y616D02*
X7Y616D01*
X1918Y616D02*
X1925Y616D01*
X0Y615D02*
X7Y615D01*
X1918Y615D02*
X1925Y615D01*
X0Y614D02*
X7Y614D01*
X1918Y614D02*
X1925Y614D01*
X0Y613D02*
X7Y613D01*
X1918Y613D02*
X1925Y613D01*
X0Y612D02*
X7Y612D01*
X1918Y612D02*
X1925Y612D01*
X0Y611D02*
X7Y611D01*
X1918Y611D02*
X1925Y611D01*
X0Y610D02*
X7Y610D01*
X1918Y610D02*
X1925Y610D01*
X0Y609D02*
X7Y609D01*
X1918Y609D02*
X1925Y609D01*
X0Y608D02*
X7Y608D01*
X1918Y608D02*
X1925Y608D01*
X0Y607D02*
X7Y607D01*
X1918Y607D02*
X1925Y607D01*
X0Y606D02*
X7Y606D01*
X1918Y606D02*
X1925Y606D01*
X0Y605D02*
X7Y605D01*
X1918Y605D02*
X1925Y605D01*
X0Y604D02*
X7Y604D01*
X1918Y604D02*
X1925Y604D01*
X0Y603D02*
X7Y603D01*
X1918Y603D02*
X1925Y603D01*
X0Y602D02*
X7Y602D01*
X1918Y602D02*
X1925Y602D01*
X0Y601D02*
X7Y601D01*
X1918Y601D02*
X1925Y601D01*
X0Y600D02*
X7Y600D01*
X1918Y600D02*
X1925Y600D01*
X0Y599D02*
X7Y599D01*
X1918Y599D02*
X1925Y599D01*
X0Y598D02*
X7Y598D01*
X1918Y598D02*
X1925Y598D01*
X0Y597D02*
X7Y597D01*
X1918Y597D02*
X1925Y597D01*
X0Y596D02*
X7Y596D01*
X1918Y596D02*
X1925Y596D01*
X0Y595D02*
X7Y595D01*
X1918Y595D02*
X1925Y595D01*
X0Y594D02*
X7Y594D01*
X1918Y594D02*
X1925Y594D01*
X0Y593D02*
X7Y593D01*
X1918Y593D02*
X1925Y593D01*
X0Y592D02*
X7Y592D01*
X1918Y592D02*
X1925Y592D01*
X0Y591D02*
X7Y591D01*
X1918Y591D02*
X1925Y591D01*
X0Y590D02*
X7Y590D01*
X1918Y590D02*
X1925Y590D01*
X0Y589D02*
X7Y589D01*
X1918Y589D02*
X1925Y589D01*
X0Y588D02*
X7Y588D01*
X1918Y588D02*
X1925Y588D01*
X0Y587D02*
X7Y587D01*
X1918Y587D02*
X1925Y587D01*
X0Y586D02*
X7Y586D01*
X1918Y586D02*
X1925Y586D01*
X0Y585D02*
X7Y585D01*
X1918Y585D02*
X1925Y585D01*
X0Y584D02*
X7Y584D01*
X1918Y584D02*
X1925Y584D01*
X0Y583D02*
X7Y583D01*
X1918Y583D02*
X1925Y583D01*
X0Y582D02*
X7Y582D01*
X1918Y582D02*
X1925Y582D01*
X0Y581D02*
X7Y581D01*
X1918Y581D02*
X1925Y581D01*
X0Y580D02*
X7Y580D01*
X1918Y580D02*
X1925Y580D01*
X0Y579D02*
X7Y579D01*
X1918Y579D02*
X1925Y579D01*
X0Y578D02*
X7Y578D01*
X1918Y578D02*
X1925Y578D01*
X0Y577D02*
X7Y577D01*
X1918Y577D02*
X1925Y577D01*
X0Y576D02*
X7Y576D01*
X1918Y576D02*
X1925Y576D01*
X0Y575D02*
X7Y575D01*
X1918Y575D02*
X1925Y575D01*
X0Y574D02*
X7Y574D01*
X1918Y574D02*
X1925Y574D01*
X0Y573D02*
X7Y573D01*
X1918Y573D02*
X1925Y573D01*
X0Y572D02*
X7Y572D01*
X1918Y572D02*
X1925Y572D01*
X0Y571D02*
X7Y571D01*
X1918Y571D02*
X1925Y571D01*
X0Y570D02*
X7Y570D01*
X1918Y570D02*
X1925Y570D01*
X0Y569D02*
X7Y569D01*
X1918Y569D02*
X1925Y569D01*
X0Y568D02*
X7Y568D01*
X1918Y568D02*
X1925Y568D01*
X0Y567D02*
X7Y567D01*
X1918Y567D02*
X1925Y567D01*
X0Y566D02*
X7Y566D01*
X1918Y566D02*
X1925Y566D01*
X0Y565D02*
X7Y565D01*
X1918Y565D02*
X1925Y565D01*
X0Y564D02*
X7Y564D01*
X1918Y564D02*
X1925Y564D01*
X0Y563D02*
X7Y563D01*
X1918Y563D02*
X1925Y563D01*
X0Y562D02*
X7Y562D01*
X1918Y562D02*
X1925Y562D01*
X0Y561D02*
X7Y561D01*
X1918Y561D02*
X1925Y561D01*
X0Y560D02*
X7Y560D01*
X1918Y560D02*
X1925Y560D01*
X0Y559D02*
X7Y559D01*
X1918Y559D02*
X1925Y559D01*
X0Y558D02*
X7Y558D01*
X1918Y558D02*
X1925Y558D01*
X0Y557D02*
X7Y557D01*
X1918Y557D02*
X1925Y557D01*
X0Y556D02*
X7Y556D01*
X1918Y556D02*
X1925Y556D01*
X0Y555D02*
X7Y555D01*
X1918Y555D02*
X1925Y555D01*
X0Y554D02*
X7Y554D01*
X1918Y554D02*
X1925Y554D01*
X0Y553D02*
X7Y553D01*
X1918Y553D02*
X1925Y553D01*
X0Y552D02*
X7Y552D01*
X1918Y552D02*
X1925Y552D01*
X0Y551D02*
X7Y551D01*
X1918Y551D02*
X1925Y551D01*
X0Y550D02*
X7Y550D01*
X1918Y550D02*
X1925Y550D01*
X0Y549D02*
X7Y549D01*
X1918Y549D02*
X1925Y549D01*
X0Y548D02*
X7Y548D01*
X1918Y548D02*
X1925Y548D01*
X0Y547D02*
X7Y547D01*
X1918Y547D02*
X1925Y547D01*
X0Y546D02*
X7Y546D01*
X1918Y546D02*
X1925Y546D01*
X0Y545D02*
X7Y545D01*
X1918Y545D02*
X1925Y545D01*
X0Y544D02*
X7Y544D01*
X1918Y544D02*
X1925Y544D01*
X0Y543D02*
X7Y543D01*
X1918Y543D02*
X1925Y543D01*
X0Y542D02*
X7Y542D01*
X1918Y542D02*
X1925Y542D01*
X0Y541D02*
X7Y541D01*
X1918Y541D02*
X1925Y541D01*
X0Y540D02*
X7Y540D01*
X1918Y540D02*
X1925Y540D01*
X0Y539D02*
X7Y539D01*
X1918Y539D02*
X1925Y539D01*
X0Y538D02*
X7Y538D01*
X1918Y538D02*
X1925Y538D01*
X0Y537D02*
X7Y537D01*
X1918Y537D02*
X1925Y537D01*
X0Y536D02*
X7Y536D01*
X1918Y536D02*
X1925Y536D01*
X0Y535D02*
X7Y535D01*
X1918Y535D02*
X1925Y535D01*
X0Y534D02*
X7Y534D01*
X1918Y534D02*
X1925Y534D01*
X0Y533D02*
X7Y533D01*
X1918Y533D02*
X1925Y533D01*
X0Y532D02*
X7Y532D01*
X1918Y532D02*
X1925Y532D01*
X0Y531D02*
X7Y531D01*
X1918Y531D02*
X1925Y531D01*
X0Y530D02*
X7Y530D01*
X1918Y530D02*
X1925Y530D01*
X0Y529D02*
X7Y529D01*
X1918Y529D02*
X1925Y529D01*
X0Y528D02*
X7Y528D01*
X1918Y528D02*
X1925Y528D01*
X0Y527D02*
X7Y527D01*
X1918Y527D02*
X1925Y527D01*
X0Y526D02*
X7Y526D01*
X1918Y526D02*
X1925Y526D01*
X0Y525D02*
X7Y525D01*
X1918Y525D02*
X1925Y525D01*
X0Y524D02*
X7Y524D01*
X1918Y524D02*
X1925Y524D01*
X0Y523D02*
X7Y523D01*
X1918Y523D02*
X1925Y523D01*
X0Y522D02*
X7Y522D01*
X1918Y522D02*
X1925Y522D01*
X0Y521D02*
X7Y521D01*
X1918Y521D02*
X1925Y521D01*
X0Y520D02*
X7Y520D01*
X1918Y520D02*
X1925Y520D01*
X0Y519D02*
X7Y519D01*
X1918Y519D02*
X1925Y519D01*
X0Y518D02*
X7Y518D01*
X1918Y518D02*
X1925Y518D01*
X0Y517D02*
X7Y517D01*
X1918Y517D02*
X1925Y517D01*
X0Y516D02*
X7Y516D01*
X1918Y516D02*
X1925Y516D01*
X0Y515D02*
X7Y515D01*
X1918Y515D02*
X1925Y515D01*
X0Y514D02*
X7Y514D01*
X1918Y514D02*
X1925Y514D01*
X0Y513D02*
X7Y513D01*
X1918Y513D02*
X1925Y513D01*
X0Y512D02*
X7Y512D01*
X1918Y512D02*
X1925Y512D01*
X0Y511D02*
X7Y511D01*
X1918Y511D02*
X1925Y511D01*
X0Y510D02*
X7Y510D01*
X1918Y510D02*
X1925Y510D01*
X0Y509D02*
X7Y509D01*
X1918Y509D02*
X1925Y509D01*
X0Y508D02*
X7Y508D01*
X1918Y508D02*
X1925Y508D01*
X0Y507D02*
X7Y507D01*
X1918Y507D02*
X1925Y507D01*
X0Y506D02*
X7Y506D01*
X1918Y506D02*
X1925Y506D01*
X0Y505D02*
X7Y505D01*
X1918Y505D02*
X1925Y505D01*
X0Y504D02*
X7Y504D01*
X1918Y504D02*
X1925Y504D01*
X0Y503D02*
X7Y503D01*
X1918Y503D02*
X1925Y503D01*
X0Y502D02*
X7Y502D01*
X1918Y502D02*
X1925Y502D01*
X0Y501D02*
X7Y501D01*
X1918Y501D02*
X1925Y501D01*
X0Y500D02*
X7Y500D01*
X1918Y500D02*
X1925Y500D01*
X0Y499D02*
X7Y499D01*
X1918Y499D02*
X1925Y499D01*
X0Y498D02*
X7Y498D01*
X1918Y498D02*
X1925Y498D01*
X0Y497D02*
X7Y497D01*
X1918Y497D02*
X1925Y497D01*
X0Y496D02*
X7Y496D01*
X1918Y496D02*
X1925Y496D01*
X0Y495D02*
X7Y495D01*
X1918Y495D02*
X1925Y495D01*
X0Y494D02*
X7Y494D01*
X1918Y494D02*
X1925Y494D01*
X0Y493D02*
X7Y493D01*
X1918Y493D02*
X1925Y493D01*
X0Y492D02*
X7Y492D01*
X1918Y492D02*
X1925Y492D01*
X0Y491D02*
X7Y491D01*
X1918Y491D02*
X1925Y491D01*
X0Y490D02*
X7Y490D01*
X1918Y490D02*
X1925Y490D01*
X0Y489D02*
X7Y489D01*
X1918Y489D02*
X1925Y489D01*
X0Y488D02*
X7Y488D01*
X1918Y488D02*
X1925Y488D01*
X0Y487D02*
X7Y487D01*
X1918Y487D02*
X1925Y487D01*
X0Y486D02*
X7Y486D01*
X1918Y486D02*
X1925Y486D01*
X0Y485D02*
X7Y485D01*
X1918Y485D02*
X1925Y485D01*
X0Y484D02*
X7Y484D01*
X1918Y484D02*
X1925Y484D01*
X0Y483D02*
X7Y483D01*
X1918Y483D02*
X1925Y483D01*
X0Y482D02*
X7Y482D01*
X1918Y482D02*
X1925Y482D01*
X0Y481D02*
X7Y481D01*
X1918Y481D02*
X1925Y481D01*
X0Y480D02*
X7Y480D01*
X1918Y480D02*
X1925Y480D01*
X0Y479D02*
X7Y479D01*
X1918Y479D02*
X1925Y479D01*
X0Y478D02*
X7Y478D01*
X1918Y478D02*
X1925Y478D01*
X0Y477D02*
X7Y477D01*
X1918Y477D02*
X1925Y477D01*
X0Y476D02*
X7Y476D01*
X1918Y476D02*
X1925Y476D01*
X0Y475D02*
X7Y475D01*
X1918Y475D02*
X1925Y475D01*
X0Y474D02*
X7Y474D01*
X1918Y474D02*
X1925Y474D01*
X0Y473D02*
X7Y473D01*
X1918Y473D02*
X1925Y473D01*
X0Y472D02*
X7Y472D01*
X1918Y472D02*
X1925Y472D01*
X0Y471D02*
X7Y471D01*
X1918Y471D02*
X1925Y471D01*
X0Y470D02*
X7Y470D01*
X1918Y470D02*
X1925Y470D01*
X0Y469D02*
X7Y469D01*
X1918Y469D02*
X1925Y469D01*
X0Y468D02*
X7Y468D01*
X1918Y468D02*
X1925Y468D01*
X0Y467D02*
X7Y467D01*
X1918Y467D02*
X1925Y467D01*
X0Y466D02*
X7Y466D01*
X1918Y466D02*
X1925Y466D01*
X0Y465D02*
X7Y465D01*
X1918Y465D02*
X1925Y465D01*
X0Y464D02*
X7Y464D01*
X1918Y464D02*
X1925Y464D01*
X0Y463D02*
X7Y463D01*
X1918Y463D02*
X1925Y463D01*
X0Y462D02*
X7Y462D01*
X1918Y462D02*
X1925Y462D01*
X0Y461D02*
X7Y461D01*
X1918Y461D02*
X1925Y461D01*
X0Y460D02*
X7Y460D01*
X1918Y460D02*
X1925Y460D01*
X0Y459D02*
X7Y459D01*
X1918Y459D02*
X1925Y459D01*
X0Y458D02*
X7Y458D01*
X1918Y458D02*
X1925Y458D01*
X0Y457D02*
X7Y457D01*
X1918Y457D02*
X1925Y457D01*
X0Y456D02*
X7Y456D01*
X1918Y456D02*
X1925Y456D01*
X0Y455D02*
X7Y455D01*
X1918Y455D02*
X1925Y455D01*
X0Y454D02*
X7Y454D01*
X1918Y454D02*
X1925Y454D01*
X0Y453D02*
X7Y453D01*
X1918Y453D02*
X1925Y453D01*
X0Y452D02*
X7Y452D01*
X1918Y452D02*
X1925Y452D01*
X0Y451D02*
X7Y451D01*
X1918Y451D02*
X1925Y451D01*
X0Y450D02*
X7Y450D01*
X1918Y450D02*
X1925Y450D01*
X0Y449D02*
X7Y449D01*
X1918Y449D02*
X1925Y449D01*
X0Y448D02*
X7Y448D01*
X1918Y448D02*
X1925Y448D01*
X0Y447D02*
X7Y447D01*
X1918Y447D02*
X1925Y447D01*
X0Y446D02*
X7Y446D01*
X1918Y446D02*
X1925Y446D01*
X0Y445D02*
X7Y445D01*
X1918Y445D02*
X1925Y445D01*
X0Y444D02*
X7Y444D01*
X1918Y444D02*
X1925Y444D01*
X0Y443D02*
X7Y443D01*
X1918Y443D02*
X1925Y443D01*
X0Y442D02*
X7Y442D01*
X1918Y442D02*
X1925Y442D01*
X0Y441D02*
X7Y441D01*
X1918Y441D02*
X1925Y441D01*
X0Y440D02*
X7Y440D01*
X1918Y440D02*
X1925Y440D01*
X0Y439D02*
X7Y439D01*
X1918Y439D02*
X1925Y439D01*
X0Y438D02*
X7Y438D01*
X1918Y438D02*
X1925Y438D01*
X0Y437D02*
X7Y437D01*
X1918Y437D02*
X1925Y437D01*
X0Y436D02*
X7Y436D01*
X1918Y436D02*
X1925Y436D01*
X0Y435D02*
X7Y435D01*
X1918Y435D02*
X1925Y435D01*
X0Y434D02*
X7Y434D01*
X1918Y434D02*
X1925Y434D01*
X0Y433D02*
X7Y433D01*
X1918Y433D02*
X1925Y433D01*
X0Y432D02*
X7Y432D01*
X1918Y432D02*
X1925Y432D01*
X0Y431D02*
X7Y431D01*
X1918Y431D02*
X1925Y431D01*
X0Y430D02*
X7Y430D01*
X1918Y430D02*
X1925Y430D01*
X0Y429D02*
X7Y429D01*
X1918Y429D02*
X1925Y429D01*
X0Y428D02*
X7Y428D01*
X1918Y428D02*
X1925Y428D01*
X0Y427D02*
X7Y427D01*
X1918Y427D02*
X1925Y427D01*
X0Y426D02*
X7Y426D01*
X1918Y426D02*
X1925Y426D01*
X0Y425D02*
X7Y425D01*
X1918Y425D02*
X1925Y425D01*
X0Y424D02*
X7Y424D01*
X1918Y424D02*
X1925Y424D01*
X0Y423D02*
X7Y423D01*
X1918Y423D02*
X1925Y423D01*
X0Y422D02*
X7Y422D01*
X1918Y422D02*
X1925Y422D01*
X0Y421D02*
X7Y421D01*
X1918Y421D02*
X1925Y421D01*
X0Y420D02*
X7Y420D01*
X1918Y420D02*
X1925Y420D01*
X0Y419D02*
X7Y419D01*
X1918Y419D02*
X1925Y419D01*
X0Y418D02*
X7Y418D01*
X1918Y418D02*
X1925Y418D01*
X0Y417D02*
X7Y417D01*
X1918Y417D02*
X1925Y417D01*
X0Y416D02*
X7Y416D01*
X1918Y416D02*
X1925Y416D01*
X0Y415D02*
X7Y415D01*
X1918Y415D02*
X1925Y415D01*
X0Y414D02*
X7Y414D01*
X1918Y414D02*
X1925Y414D01*
X0Y413D02*
X7Y413D01*
X1918Y413D02*
X1925Y413D01*
X0Y412D02*
X7Y412D01*
X1918Y412D02*
X1925Y412D01*
X0Y411D02*
X7Y411D01*
X1918Y411D02*
X1925Y411D01*
X0Y410D02*
X7Y410D01*
X1918Y410D02*
X1925Y410D01*
X0Y409D02*
X7Y409D01*
X1918Y409D02*
X1925Y409D01*
X0Y408D02*
X7Y408D01*
X1918Y408D02*
X1925Y408D01*
X0Y407D02*
X7Y407D01*
X1918Y407D02*
X1925Y407D01*
X0Y406D02*
X7Y406D01*
X1918Y406D02*
X1925Y406D01*
X0Y405D02*
X7Y405D01*
X1918Y405D02*
X1925Y405D01*
X0Y404D02*
X7Y404D01*
X1918Y404D02*
X1925Y404D01*
X0Y403D02*
X7Y403D01*
X1918Y403D02*
X1925Y403D01*
X0Y402D02*
X7Y402D01*
X1918Y402D02*
X1925Y402D01*
X0Y401D02*
X7Y401D01*
X1918Y401D02*
X1925Y401D01*
X0Y400D02*
X7Y400D01*
X1918Y400D02*
X1925Y400D01*
X0Y399D02*
X7Y399D01*
X1918Y399D02*
X1925Y399D01*
X0Y398D02*
X7Y398D01*
X1918Y398D02*
X1925Y398D01*
X0Y397D02*
X7Y397D01*
X1918Y397D02*
X1925Y397D01*
X0Y396D02*
X7Y396D01*
X1918Y396D02*
X1925Y396D01*
X0Y395D02*
X7Y395D01*
X1918Y395D02*
X1925Y395D01*
X0Y394D02*
X7Y394D01*
X1918Y394D02*
X1925Y394D01*
X0Y393D02*
X7Y393D01*
X1918Y393D02*
X1925Y393D01*
X0Y392D02*
X7Y392D01*
X1918Y392D02*
X1925Y392D01*
X0Y391D02*
X7Y391D01*
X1918Y391D02*
X1925Y391D01*
X0Y390D02*
X7Y390D01*
X1918Y390D02*
X1925Y390D01*
X0Y389D02*
X7Y389D01*
X1918Y389D02*
X1925Y389D01*
X0Y388D02*
X7Y388D01*
X1918Y388D02*
X1925Y388D01*
X0Y387D02*
X7Y387D01*
X1918Y387D02*
X1925Y387D01*
X0Y386D02*
X7Y386D01*
X1918Y386D02*
X1925Y386D01*
X0Y385D02*
X7Y385D01*
X1918Y385D02*
X1925Y385D01*
X0Y384D02*
X7Y384D01*
X1918Y384D02*
X1925Y384D01*
X0Y383D02*
X7Y383D01*
X1918Y383D02*
X1925Y383D01*
X0Y382D02*
X7Y382D01*
X1918Y382D02*
X1925Y382D01*
X0Y381D02*
X7Y381D01*
X1918Y381D02*
X1925Y381D01*
X0Y380D02*
X7Y380D01*
X1918Y380D02*
X1925Y380D01*
X0Y379D02*
X7Y379D01*
X1918Y379D02*
X1925Y379D01*
X0Y378D02*
X7Y378D01*
X1918Y378D02*
X1925Y378D01*
X0Y377D02*
X7Y377D01*
X1918Y377D02*
X1925Y377D01*
X0Y376D02*
X7Y376D01*
X1918Y376D02*
X1925Y376D01*
X0Y375D02*
X7Y375D01*
X1918Y375D02*
X1925Y375D01*
X0Y374D02*
X7Y374D01*
X1918Y374D02*
X1925Y374D01*
X0Y373D02*
X7Y373D01*
X1918Y373D02*
X1925Y373D01*
X0Y372D02*
X7Y372D01*
X1918Y372D02*
X1925Y372D01*
X0Y371D02*
X7Y371D01*
X1918Y371D02*
X1925Y371D01*
X0Y370D02*
X7Y370D01*
X1918Y370D02*
X1925Y370D01*
X0Y369D02*
X7Y369D01*
X1918Y369D02*
X1925Y369D01*
X0Y368D02*
X7Y368D01*
X1918Y368D02*
X1925Y368D01*
X0Y367D02*
X7Y367D01*
X1918Y367D02*
X1925Y367D01*
X0Y366D02*
X7Y366D01*
X1918Y366D02*
X1925Y366D01*
X0Y365D02*
X7Y365D01*
X1918Y365D02*
X1925Y365D01*
X0Y364D02*
X7Y364D01*
X1918Y364D02*
X1925Y364D01*
X0Y363D02*
X7Y363D01*
X1918Y363D02*
X1925Y363D01*
X0Y362D02*
X7Y362D01*
X1918Y362D02*
X1925Y362D01*
X0Y361D02*
X7Y361D01*
X1918Y361D02*
X1925Y361D01*
X0Y360D02*
X7Y360D01*
X1918Y360D02*
X1925Y360D01*
X0Y359D02*
X7Y359D01*
X1918Y359D02*
X1925Y359D01*
X0Y358D02*
X7Y358D01*
X1918Y358D02*
X1925Y358D01*
X0Y357D02*
X7Y357D01*
X1918Y357D02*
X1925Y357D01*
X0Y356D02*
X7Y356D01*
X1918Y356D02*
X1925Y356D01*
X0Y355D02*
X7Y355D01*
X1918Y355D02*
X1925Y355D01*
X0Y354D02*
X7Y354D01*
X1918Y354D02*
X1925Y354D01*
X0Y353D02*
X7Y353D01*
X1918Y353D02*
X1925Y353D01*
X0Y352D02*
X7Y352D01*
X1918Y352D02*
X1925Y352D01*
X0Y351D02*
X7Y351D01*
X1918Y351D02*
X1925Y351D01*
X0Y350D02*
X7Y350D01*
X1918Y350D02*
X1925Y350D01*
X0Y349D02*
X7Y349D01*
X1918Y349D02*
X1925Y349D01*
X0Y348D02*
X7Y348D01*
X1918Y348D02*
X1925Y348D01*
X0Y347D02*
X7Y347D01*
X1918Y347D02*
X1925Y347D01*
X0Y346D02*
X7Y346D01*
X1918Y346D02*
X1925Y346D01*
X0Y345D02*
X7Y345D01*
X1918Y345D02*
X1925Y345D01*
X0Y344D02*
X7Y344D01*
X1918Y344D02*
X1925Y344D01*
X0Y343D02*
X7Y343D01*
X1918Y343D02*
X1925Y343D01*
X0Y342D02*
X7Y342D01*
X1918Y342D02*
X1925Y342D01*
X0Y341D02*
X7Y341D01*
X1918Y341D02*
X1925Y341D01*
X0Y340D02*
X7Y340D01*
X1918Y340D02*
X1925Y340D01*
X0Y339D02*
X7Y339D01*
X1918Y339D02*
X1925Y339D01*
X0Y338D02*
X7Y338D01*
X1918Y338D02*
X1925Y338D01*
X0Y337D02*
X7Y337D01*
X1918Y337D02*
X1925Y337D01*
X0Y336D02*
X7Y336D01*
X1918Y336D02*
X1925Y336D01*
X0Y335D02*
X7Y335D01*
X1918Y335D02*
X1925Y335D01*
X0Y334D02*
X7Y334D01*
X1918Y334D02*
X1925Y334D01*
X0Y333D02*
X7Y333D01*
X1918Y333D02*
X1925Y333D01*
X0Y332D02*
X7Y332D01*
X1918Y332D02*
X1925Y332D01*
X0Y331D02*
X7Y331D01*
X1918Y331D02*
X1925Y331D01*
X0Y330D02*
X7Y330D01*
X1918Y330D02*
X1925Y330D01*
X0Y329D02*
X7Y329D01*
X1918Y329D02*
X1925Y329D01*
X0Y328D02*
X7Y328D01*
X1918Y328D02*
X1925Y328D01*
X0Y327D02*
X7Y327D01*
X1918Y327D02*
X1925Y327D01*
X0Y326D02*
X7Y326D01*
X1918Y326D02*
X1925Y326D01*
X0Y325D02*
X7Y325D01*
X1918Y325D02*
X1925Y325D01*
X0Y324D02*
X7Y324D01*
X1918Y324D02*
X1925Y324D01*
X0Y323D02*
X7Y323D01*
X1918Y323D02*
X1925Y323D01*
X0Y322D02*
X7Y322D01*
X1918Y322D02*
X1925Y322D01*
X0Y321D02*
X7Y321D01*
X1918Y321D02*
X1925Y321D01*
X0Y320D02*
X7Y320D01*
X1918Y320D02*
X1925Y320D01*
X0Y319D02*
X7Y319D01*
X1918Y319D02*
X1925Y319D01*
X0Y318D02*
X7Y318D01*
X1918Y318D02*
X1925Y318D01*
X0Y317D02*
X7Y317D01*
X1918Y317D02*
X1925Y317D01*
X0Y316D02*
X7Y316D01*
X1918Y316D02*
X1925Y316D01*
X0Y315D02*
X7Y315D01*
X1918Y315D02*
X1925Y315D01*
X0Y314D02*
X7Y314D01*
X1918Y314D02*
X1925Y314D01*
X0Y313D02*
X7Y313D01*
X1918Y313D02*
X1925Y313D01*
X0Y312D02*
X7Y312D01*
X1918Y312D02*
X1925Y312D01*
X0Y311D02*
X7Y311D01*
X1918Y311D02*
X1925Y311D01*
X0Y310D02*
X7Y310D01*
X1918Y310D02*
X1925Y310D01*
X0Y309D02*
X7Y309D01*
X1918Y309D02*
X1925Y309D01*
X0Y308D02*
X7Y308D01*
X1918Y308D02*
X1925Y308D01*
X0Y307D02*
X7Y307D01*
X1918Y307D02*
X1925Y307D01*
X0Y306D02*
X7Y306D01*
X1918Y306D02*
X1925Y306D01*
X0Y305D02*
X7Y305D01*
X1918Y305D02*
X1925Y305D01*
X0Y304D02*
X7Y304D01*
X1918Y304D02*
X1925Y304D01*
X0Y303D02*
X7Y303D01*
X1918Y303D02*
X1925Y303D01*
X0Y302D02*
X7Y302D01*
X1918Y302D02*
X1925Y302D01*
X0Y301D02*
X7Y301D01*
X1918Y301D02*
X1925Y301D01*
X0Y300D02*
X7Y300D01*
X1918Y300D02*
X1925Y300D01*
X0Y299D02*
X7Y299D01*
X1918Y299D02*
X1925Y299D01*
X0Y298D02*
X7Y298D01*
X1918Y298D02*
X1925Y298D01*
X0Y297D02*
X7Y297D01*
X1918Y297D02*
X1925Y297D01*
X0Y296D02*
X7Y296D01*
X1918Y296D02*
X1925Y296D01*
X0Y295D02*
X7Y295D01*
X1918Y295D02*
X1925Y295D01*
X0Y294D02*
X7Y294D01*
X1918Y294D02*
X1925Y294D01*
X0Y293D02*
X7Y293D01*
X1918Y293D02*
X1925Y293D01*
X0Y292D02*
X7Y292D01*
X1918Y292D02*
X1925Y292D01*
X0Y291D02*
X7Y291D01*
X1918Y291D02*
X1925Y291D01*
X0Y290D02*
X7Y290D01*
X1918Y290D02*
X1925Y290D01*
X0Y289D02*
X7Y289D01*
X1918Y289D02*
X1925Y289D01*
X0Y288D02*
X7Y288D01*
X1918Y288D02*
X1925Y288D01*
X0Y287D02*
X7Y287D01*
X1918Y287D02*
X1925Y287D01*
X0Y286D02*
X7Y286D01*
X1918Y286D02*
X1925Y286D01*
X0Y285D02*
X7Y285D01*
X1918Y285D02*
X1925Y285D01*
X0Y284D02*
X7Y284D01*
X1918Y284D02*
X1925Y284D01*
X0Y283D02*
X7Y283D01*
X1918Y283D02*
X1925Y283D01*
X0Y282D02*
X7Y282D01*
X1918Y282D02*
X1925Y282D01*
X0Y281D02*
X7Y281D01*
X1918Y281D02*
X1925Y281D01*
X0Y280D02*
X7Y280D01*
X1918Y280D02*
X1925Y280D01*
X0Y279D02*
X7Y279D01*
X1918Y279D02*
X1925Y279D01*
X0Y278D02*
X7Y278D01*
X1918Y278D02*
X1925Y278D01*
X0Y277D02*
X7Y277D01*
X1918Y277D02*
X1925Y277D01*
X0Y276D02*
X7Y276D01*
X1918Y276D02*
X1925Y276D01*
X0Y275D02*
X7Y275D01*
X1918Y275D02*
X1925Y275D01*
X0Y274D02*
X7Y274D01*
X1918Y274D02*
X1925Y274D01*
X0Y273D02*
X7Y273D01*
X1918Y273D02*
X1925Y273D01*
X0Y272D02*
X7Y272D01*
X1918Y272D02*
X1925Y272D01*
X0Y271D02*
X7Y271D01*
X1918Y271D02*
X1925Y271D01*
X0Y270D02*
X7Y270D01*
X1918Y270D02*
X1925Y270D01*
X0Y269D02*
X7Y269D01*
X1918Y269D02*
X1925Y269D01*
X0Y268D02*
X7Y268D01*
X1918Y268D02*
X1925Y268D01*
X0Y267D02*
X7Y267D01*
X1918Y267D02*
X1925Y267D01*
X0Y266D02*
X7Y266D01*
X1918Y266D02*
X1925Y266D01*
X0Y265D02*
X7Y265D01*
X1918Y265D02*
X1925Y265D01*
X0Y264D02*
X7Y264D01*
X1918Y264D02*
X1925Y264D01*
X0Y263D02*
X7Y263D01*
X1918Y263D02*
X1925Y263D01*
X0Y262D02*
X7Y262D01*
X1918Y262D02*
X1925Y262D01*
X0Y261D02*
X7Y261D01*
X1918Y261D02*
X1925Y261D01*
X0Y260D02*
X7Y260D01*
X1918Y260D02*
X1925Y260D01*
X0Y259D02*
X7Y259D01*
X1918Y259D02*
X1925Y259D01*
X0Y258D02*
X7Y258D01*
X1918Y258D02*
X1925Y258D01*
X0Y257D02*
X7Y257D01*
X1918Y257D02*
X1925Y257D01*
X0Y256D02*
X7Y256D01*
X1918Y256D02*
X1925Y256D01*
X0Y255D02*
X7Y255D01*
X1918Y255D02*
X1925Y255D01*
X0Y254D02*
X7Y254D01*
X1918Y254D02*
X1925Y254D01*
X0Y253D02*
X7Y253D01*
X1918Y253D02*
X1925Y253D01*
X0Y252D02*
X7Y252D01*
X1918Y252D02*
X1925Y252D01*
X0Y251D02*
X7Y251D01*
X1918Y251D02*
X1925Y251D01*
X0Y250D02*
X7Y250D01*
X1918Y250D02*
X1925Y250D01*
X0Y249D02*
X7Y249D01*
X1918Y249D02*
X1925Y249D01*
X0Y248D02*
X7Y248D01*
X1918Y248D02*
X1925Y248D01*
X0Y247D02*
X7Y247D01*
X1918Y247D02*
X1925Y247D01*
X0Y246D02*
X7Y246D01*
X1918Y246D02*
X1925Y246D01*
X0Y245D02*
X7Y245D01*
X1918Y245D02*
X1925Y245D01*
X0Y244D02*
X7Y244D01*
X1918Y244D02*
X1925Y244D01*
X0Y243D02*
X7Y243D01*
X1918Y243D02*
X1925Y243D01*
X0Y242D02*
X7Y242D01*
X1918Y242D02*
X1925Y242D01*
X0Y241D02*
X7Y241D01*
X1918Y241D02*
X1925Y241D01*
X0Y240D02*
X7Y240D01*
X1918Y240D02*
X1925Y240D01*
X0Y239D02*
X7Y239D01*
X1918Y239D02*
X1925Y239D01*
X0Y238D02*
X7Y238D01*
X1918Y238D02*
X1925Y238D01*
X0Y237D02*
X7Y237D01*
X1918Y237D02*
X1925Y237D01*
X0Y236D02*
X7Y236D01*
X1918Y236D02*
X1925Y236D01*
X0Y235D02*
X7Y235D01*
X1918Y235D02*
X1925Y235D01*
X0Y234D02*
X7Y234D01*
X1918Y234D02*
X1925Y234D01*
X0Y233D02*
X7Y233D01*
X1918Y233D02*
X1925Y233D01*
X0Y232D02*
X7Y232D01*
X1918Y232D02*
X1925Y232D01*
X0Y231D02*
X7Y231D01*
X1918Y231D02*
X1925Y231D01*
X0Y230D02*
X7Y230D01*
X1918Y230D02*
X1925Y230D01*
X0Y229D02*
X7Y229D01*
X1918Y229D02*
X1925Y229D01*
X0Y228D02*
X7Y228D01*
X1918Y228D02*
X1925Y228D01*
X0Y227D02*
X7Y227D01*
X1918Y227D02*
X1925Y227D01*
X0Y226D02*
X7Y226D01*
X1918Y226D02*
X1925Y226D01*
X0Y225D02*
X7Y225D01*
X1918Y225D02*
X1925Y225D01*
X0Y224D02*
X7Y224D01*
X1918Y224D02*
X1925Y224D01*
X0Y223D02*
X7Y223D01*
X1918Y223D02*
X1925Y223D01*
X0Y222D02*
X7Y222D01*
X1918Y222D02*
X1925Y222D01*
X0Y221D02*
X7Y221D01*
X1918Y221D02*
X1925Y221D01*
X0Y220D02*
X7Y220D01*
X1918Y220D02*
X1925Y220D01*
X0Y219D02*
X7Y219D01*
X1918Y219D02*
X1925Y219D01*
X0Y218D02*
X7Y218D01*
X1918Y218D02*
X1925Y218D01*
X0Y217D02*
X7Y217D01*
X1918Y217D02*
X1925Y217D01*
X0Y216D02*
X7Y216D01*
X1918Y216D02*
X1925Y216D01*
X0Y215D02*
X7Y215D01*
X1918Y215D02*
X1925Y215D01*
X0Y214D02*
X7Y214D01*
X1918Y214D02*
X1925Y214D01*
X0Y213D02*
X7Y213D01*
X1918Y213D02*
X1925Y213D01*
X0Y212D02*
X7Y212D01*
X1918Y212D02*
X1925Y212D01*
X0Y211D02*
X7Y211D01*
X1918Y211D02*
X1925Y211D01*
X0Y210D02*
X7Y210D01*
X1918Y210D02*
X1925Y210D01*
X0Y209D02*
X7Y209D01*
X1918Y209D02*
X1925Y209D01*
X0Y208D02*
X7Y208D01*
X1918Y208D02*
X1925Y208D01*
X0Y207D02*
X7Y207D01*
X1918Y207D02*
X1925Y207D01*
X0Y206D02*
X7Y206D01*
X1918Y206D02*
X1925Y206D01*
X0Y205D02*
X7Y205D01*
X1918Y205D02*
X1925Y205D01*
X0Y204D02*
X7Y204D01*
X1918Y204D02*
X1925Y204D01*
X0Y203D02*
X7Y203D01*
X1918Y203D02*
X1925Y203D01*
X0Y202D02*
X7Y202D01*
X1918Y202D02*
X1925Y202D01*
X0Y201D02*
X7Y201D01*
X1918Y201D02*
X1925Y201D01*
X0Y200D02*
X7Y200D01*
X1918Y200D02*
X1925Y200D01*
X0Y199D02*
X7Y199D01*
X1918Y199D02*
X1925Y199D01*
X0Y198D02*
X7Y198D01*
X1918Y198D02*
X1925Y198D01*
X0Y197D02*
X7Y197D01*
X1918Y197D02*
X1925Y197D01*
X0Y196D02*
X7Y196D01*
X1918Y196D02*
X1925Y196D01*
X0Y195D02*
X7Y195D01*
X1918Y195D02*
X1925Y195D01*
X0Y194D02*
X7Y194D01*
X1918Y194D02*
X1925Y194D01*
X0Y193D02*
X7Y193D01*
X1918Y193D02*
X1925Y193D01*
X0Y192D02*
X7Y192D01*
X1918Y192D02*
X1925Y192D01*
X0Y191D02*
X7Y191D01*
X1918Y191D02*
X1925Y191D01*
X0Y190D02*
X7Y190D01*
X1918Y190D02*
X1925Y190D01*
X0Y189D02*
X7Y189D01*
X1918Y189D02*
X1925Y189D01*
X0Y188D02*
X7Y188D01*
X1918Y188D02*
X1925Y188D01*
X0Y187D02*
X7Y187D01*
X1918Y187D02*
X1925Y187D01*
X0Y186D02*
X7Y186D01*
X1918Y186D02*
X1925Y186D01*
X0Y185D02*
X7Y185D01*
X1918Y185D02*
X1925Y185D01*
X0Y184D02*
X7Y184D01*
X1918Y184D02*
X1925Y184D01*
X0Y183D02*
X7Y183D01*
X1918Y183D02*
X1925Y183D01*
X0Y182D02*
X7Y182D01*
X1918Y182D02*
X1925Y182D01*
X0Y181D02*
X7Y181D01*
X1918Y181D02*
X1925Y181D01*
X0Y180D02*
X7Y180D01*
X1918Y180D02*
X1925Y180D01*
X0Y179D02*
X7Y179D01*
X1918Y179D02*
X1925Y179D01*
X0Y178D02*
X7Y178D01*
X1918Y178D02*
X1925Y178D01*
X0Y177D02*
X7Y177D01*
X1918Y177D02*
X1925Y177D01*
X0Y176D02*
X7Y176D01*
X1918Y176D02*
X1925Y176D01*
X0Y175D02*
X7Y175D01*
X1918Y175D02*
X1925Y175D01*
X0Y174D02*
X7Y174D01*
X1918Y174D02*
X1925Y174D01*
X0Y173D02*
X7Y173D01*
X1918Y173D02*
X1925Y173D01*
X0Y172D02*
X7Y172D01*
X1918Y172D02*
X1925Y172D01*
X0Y171D02*
X7Y171D01*
X1918Y171D02*
X1925Y171D01*
X0Y170D02*
X7Y170D01*
X1918Y170D02*
X1925Y170D01*
X0Y169D02*
X7Y169D01*
X1918Y169D02*
X1925Y169D01*
X0Y168D02*
X7Y168D01*
X1918Y168D02*
X1925Y168D01*
X0Y167D02*
X7Y167D01*
X1918Y167D02*
X1925Y167D01*
X0Y166D02*
X7Y166D01*
X1918Y166D02*
X1925Y166D01*
X0Y165D02*
X7Y165D01*
X1918Y165D02*
X1925Y165D01*
X0Y164D02*
X7Y164D01*
X1918Y164D02*
X1925Y164D01*
X0Y163D02*
X7Y163D01*
X1918Y163D02*
X1925Y163D01*
X0Y162D02*
X7Y162D01*
X1918Y162D02*
X1925Y162D01*
X0Y161D02*
X7Y161D01*
X1918Y161D02*
X1925Y161D01*
X0Y160D02*
X7Y160D01*
X1918Y160D02*
X1925Y160D01*
X0Y159D02*
X7Y159D01*
X1918Y159D02*
X1925Y159D01*
X0Y158D02*
X7Y158D01*
X1918Y158D02*
X1925Y158D01*
X0Y157D02*
X7Y157D01*
X1918Y157D02*
X1925Y157D01*
X0Y156D02*
X7Y156D01*
X1918Y156D02*
X1925Y156D01*
X0Y155D02*
X7Y155D01*
X1918Y155D02*
X1925Y155D01*
X0Y154D02*
X7Y154D01*
X1918Y154D02*
X1925Y154D01*
X0Y153D02*
X7Y153D01*
X1918Y153D02*
X1925Y153D01*
X0Y152D02*
X7Y152D01*
X1918Y152D02*
X1925Y152D01*
X0Y151D02*
X7Y151D01*
X1918Y151D02*
X1925Y151D01*
X0Y150D02*
X7Y150D01*
X1918Y150D02*
X1925Y150D01*
X0Y149D02*
X7Y149D01*
X1918Y149D02*
X1925Y149D01*
X0Y148D02*
X7Y148D01*
X1918Y148D02*
X1925Y148D01*
X0Y147D02*
X7Y147D01*
X1918Y147D02*
X1925Y147D01*
X0Y146D02*
X7Y146D01*
X1918Y146D02*
X1925Y146D01*
X0Y145D02*
X7Y145D01*
X1918Y145D02*
X1925Y145D01*
X0Y144D02*
X7Y144D01*
X1918Y144D02*
X1925Y144D01*
X0Y143D02*
X7Y143D01*
X1918Y143D02*
X1925Y143D01*
X0Y142D02*
X7Y142D01*
X1918Y142D02*
X1925Y142D01*
X0Y141D02*
X7Y141D01*
X1918Y141D02*
X1925Y141D01*
X0Y140D02*
X7Y140D01*
X1918Y140D02*
X1925Y140D01*
X0Y139D02*
X7Y139D01*
X1918Y139D02*
X1925Y139D01*
X0Y138D02*
X7Y138D01*
X1918Y138D02*
X1925Y138D01*
X0Y137D02*
X7Y137D01*
X1918Y137D02*
X1925Y137D01*
X0Y136D02*
X7Y136D01*
X1918Y136D02*
X1925Y136D01*
X0Y135D02*
X7Y135D01*
X1918Y135D02*
X1925Y135D01*
X0Y134D02*
X7Y134D01*
X1918Y134D02*
X1925Y134D01*
X0Y133D02*
X7Y133D01*
X1918Y133D02*
X1925Y133D01*
X0Y132D02*
X7Y132D01*
X1918Y132D02*
X1925Y132D01*
X0Y131D02*
X7Y131D01*
X1918Y131D02*
X1925Y131D01*
X0Y130D02*
X7Y130D01*
X1918Y130D02*
X1925Y130D01*
X0Y129D02*
X7Y129D01*
X1918Y129D02*
X1925Y129D01*
X0Y128D02*
X7Y128D01*
X1918Y128D02*
X1925Y128D01*
X0Y127D02*
X7Y127D01*
X1918Y127D02*
X1925Y127D01*
X0Y126D02*
X7Y126D01*
X1918Y126D02*
X1925Y126D01*
X0Y125D02*
X7Y125D01*
X1918Y125D02*
X1925Y125D01*
X0Y124D02*
X7Y124D01*
X1918Y124D02*
X1925Y124D01*
X0Y123D02*
X7Y123D01*
X1918Y123D02*
X1925Y123D01*
X0Y122D02*
X7Y122D01*
X1918Y122D02*
X1925Y122D01*
X0Y121D02*
X7Y121D01*
X1918Y121D02*
X1925Y121D01*
X0Y120D02*
X7Y120D01*
X1918Y120D02*
X1925Y120D01*
X0Y119D02*
X7Y119D01*
X1918Y119D02*
X1925Y119D01*
X0Y118D02*
X7Y118D01*
X1918Y118D02*
X1925Y118D01*
X0Y117D02*
X7Y117D01*
X1918Y117D02*
X1925Y117D01*
X0Y116D02*
X7Y116D01*
X1918Y116D02*
X1925Y116D01*
X0Y115D02*
X7Y115D01*
X1918Y115D02*
X1925Y115D01*
X0Y114D02*
X7Y114D01*
X1918Y114D02*
X1925Y114D01*
X0Y113D02*
X7Y113D01*
X1918Y113D02*
X1925Y113D01*
X0Y112D02*
X7Y112D01*
X1918Y112D02*
X1925Y112D01*
X0Y111D02*
X7Y111D01*
X1918Y111D02*
X1925Y111D01*
X0Y110D02*
X7Y110D01*
X1918Y110D02*
X1925Y110D01*
X0Y109D02*
X7Y109D01*
X1918Y109D02*
X1925Y109D01*
X0Y108D02*
X7Y108D01*
X1918Y108D02*
X1925Y108D01*
X0Y107D02*
X7Y107D01*
X1918Y107D02*
X1925Y107D01*
X0Y106D02*
X7Y106D01*
X1918Y106D02*
X1925Y106D01*
X0Y105D02*
X7Y105D01*
X1918Y105D02*
X1925Y105D01*
X0Y104D02*
X7Y104D01*
X1918Y104D02*
X1925Y104D01*
X0Y103D02*
X7Y103D01*
X1918Y103D02*
X1925Y103D01*
X0Y102D02*
X7Y102D01*
X1918Y102D02*
X1925Y102D01*
X0Y101D02*
X7Y101D01*
X1918Y101D02*
X1925Y101D01*
X0Y100D02*
X7Y100D01*
X1918Y100D02*
X1925Y100D01*
X0Y99D02*
X7Y99D01*
X1918Y99D02*
X1925Y99D01*
X0Y98D02*
X7Y98D01*
X1918Y98D02*
X1925Y98D01*
X0Y97D02*
X7Y97D01*
X1918Y97D02*
X1925Y97D01*
X0Y96D02*
X7Y96D01*
X1918Y96D02*
X1925Y96D01*
X0Y95D02*
X7Y95D01*
X1918Y95D02*
X1925Y95D01*
X0Y94D02*
X7Y94D01*
X1918Y94D02*
X1925Y94D01*
X0Y93D02*
X7Y93D01*
X1918Y93D02*
X1925Y93D01*
X0Y92D02*
X7Y92D01*
X1918Y92D02*
X1925Y92D01*
X0Y91D02*
X7Y91D01*
X1918Y91D02*
X1925Y91D01*
X0Y90D02*
X7Y90D01*
X1918Y90D02*
X1925Y90D01*
X0Y89D02*
X7Y89D01*
X1918Y89D02*
X1925Y89D01*
X0Y88D02*
X7Y88D01*
X1918Y88D02*
X1925Y88D01*
X0Y87D02*
X7Y87D01*
X1918Y87D02*
X1925Y87D01*
X0Y86D02*
X7Y86D01*
X1918Y86D02*
X1925Y86D01*
X0Y85D02*
X7Y85D01*
X1918Y85D02*
X1925Y85D01*
X0Y84D02*
X7Y84D01*
X1918Y84D02*
X1925Y84D01*
X0Y83D02*
X7Y83D01*
X1918Y83D02*
X1925Y83D01*
X0Y82D02*
X7Y82D01*
X1918Y82D02*
X1925Y82D01*
X0Y81D02*
X7Y81D01*
X1918Y81D02*
X1925Y81D01*
X0Y80D02*
X7Y80D01*
X1918Y80D02*
X1925Y80D01*
X0Y79D02*
X7Y79D01*
X1918Y79D02*
X1925Y79D01*
X0Y78D02*
X7Y78D01*
X1918Y78D02*
X1925Y78D01*
X0Y77D02*
X7Y77D01*
X1918Y77D02*
X1925Y77D01*
X0Y76D02*
X7Y76D01*
X1918Y76D02*
X1925Y76D01*
X0Y75D02*
X7Y75D01*
X1918Y75D02*
X1925Y75D01*
X0Y74D02*
X7Y74D01*
X1918Y74D02*
X1925Y74D01*
X0Y73D02*
X7Y73D01*
X1918Y73D02*
X1925Y73D01*
X0Y72D02*
X7Y72D01*
X1918Y72D02*
X1925Y72D01*
X0Y71D02*
X7Y71D01*
X1918Y71D02*
X1925Y71D01*
X0Y70D02*
X7Y70D01*
X1918Y70D02*
X1925Y70D01*
X0Y69D02*
X7Y69D01*
X1918Y69D02*
X1925Y69D01*
X0Y68D02*
X7Y68D01*
X1918Y68D02*
X1925Y68D01*
X0Y67D02*
X7Y67D01*
X1918Y67D02*
X1925Y67D01*
X0Y66D02*
X7Y66D01*
X1918Y66D02*
X1925Y66D01*
X0Y65D02*
X7Y65D01*
X1918Y65D02*
X1925Y65D01*
X0Y64D02*
X7Y64D01*
X1918Y64D02*
X1925Y64D01*
X0Y63D02*
X7Y63D01*
X1918Y63D02*
X1925Y63D01*
X0Y62D02*
X7Y62D01*
X1918Y62D02*
X1925Y62D01*
X0Y61D02*
X7Y61D01*
X1918Y61D02*
X1925Y61D01*
X0Y60D02*
X7Y60D01*
X1918Y60D02*
X1925Y60D01*
X0Y59D02*
X7Y59D01*
X1918Y59D02*
X1925Y59D01*
X0Y58D02*
X7Y58D01*
X1918Y58D02*
X1925Y58D01*
X0Y57D02*
X7Y57D01*
X1918Y57D02*
X1925Y57D01*
X0Y56D02*
X7Y56D01*
X1918Y56D02*
X1925Y56D01*
X0Y55D02*
X7Y55D01*
X1918Y55D02*
X1925Y55D01*
X0Y54D02*
X7Y54D01*
X1918Y54D02*
X1925Y54D01*
X0Y53D02*
X7Y53D01*
X1918Y53D02*
X1925Y53D01*
X0Y52D02*
X7Y52D01*
X1918Y52D02*
X1925Y52D01*
X0Y51D02*
X7Y51D01*
X1918Y51D02*
X1925Y51D01*
X0Y50D02*
X7Y50D01*
X1918Y50D02*
X1925Y50D01*
X0Y49D02*
X7Y49D01*
X1918Y49D02*
X1925Y49D01*
X0Y48D02*
X7Y48D01*
X1918Y48D02*
X1925Y48D01*
X0Y47D02*
X7Y47D01*
X1918Y47D02*
X1925Y47D01*
X0Y46D02*
X7Y46D01*
X1918Y46D02*
X1925Y46D01*
X0Y45D02*
X7Y45D01*
X1918Y45D02*
X1925Y45D01*
X0Y44D02*
X7Y44D01*
X1918Y44D02*
X1925Y44D01*
X0Y43D02*
X7Y43D01*
X1918Y43D02*
X1925Y43D01*
X0Y42D02*
X7Y42D01*
X1918Y42D02*
X1925Y42D01*
X0Y41D02*
X7Y41D01*
X1918Y41D02*
X1925Y41D01*
X0Y40D02*
X7Y40D01*
X1918Y40D02*
X1925Y40D01*
X0Y39D02*
X7Y39D01*
X1918Y39D02*
X1925Y39D01*
X0Y38D02*
X7Y38D01*
X1918Y38D02*
X1925Y38D01*
X0Y37D02*
X7Y37D01*
X1918Y37D02*
X1925Y37D01*
X0Y36D02*
X7Y36D01*
X1918Y36D02*
X1925Y36D01*
X0Y35D02*
X7Y35D01*
X1918Y35D02*
X1925Y35D01*
X0Y34D02*
X7Y34D01*
X1918Y34D02*
X1925Y34D01*
X0Y33D02*
X7Y33D01*
X1918Y33D02*
X1925Y33D01*
X0Y32D02*
X7Y32D01*
X1918Y32D02*
X1925Y32D01*
X0Y31D02*
X7Y31D01*
X1918Y31D02*
X1925Y31D01*
X0Y30D02*
X7Y30D01*
X1918Y30D02*
X1925Y30D01*
X0Y29D02*
X7Y29D01*
X1918Y29D02*
X1925Y29D01*
X0Y28D02*
X7Y28D01*
X1918Y28D02*
X1925Y28D01*
X0Y27D02*
X7Y27D01*
X1918Y27D02*
X1925Y27D01*
X0Y26D02*
X7Y26D01*
X1918Y26D02*
X1925Y26D01*
X0Y25D02*
X7Y25D01*
X1918Y25D02*
X1925Y25D01*
X0Y24D02*
X7Y24D01*
X1918Y24D02*
X1925Y24D01*
X0Y23D02*
X7Y23D01*
X1918Y23D02*
X1925Y23D01*
X0Y22D02*
X7Y22D01*
X1918Y22D02*
X1925Y22D01*
X0Y21D02*
X7Y21D01*
X1918Y21D02*
X1925Y21D01*
X0Y20D02*
X7Y20D01*
X1918Y20D02*
X1925Y20D01*
X0Y19D02*
X7Y19D01*
X1918Y19D02*
X1925Y19D01*
X0Y18D02*
X7Y18D01*
X1918Y18D02*
X1925Y18D01*
X0Y17D02*
X7Y17D01*
X1918Y17D02*
X1925Y17D01*
X0Y16D02*
X7Y16D01*
X1918Y16D02*
X1925Y16D01*
X0Y15D02*
X7Y15D01*
X1918Y15D02*
X1925Y15D01*
X0Y14D02*
X7Y14D01*
X1918Y14D02*
X1925Y14D01*
X0Y13D02*
X7Y13D01*
X1918Y13D02*
X1925Y13D01*
X0Y12D02*
X7Y12D01*
X1918Y12D02*
X1925Y12D01*
X0Y11D02*
X7Y11D01*
X1918Y11D02*
X1925Y11D01*
X0Y10D02*
X7Y10D01*
X1918Y10D02*
X1925Y10D01*
X0Y9D02*
X7Y9D01*
X1918Y9D02*
X1925Y9D01*
X0Y8D02*
X1925Y8D01*
X0Y7D02*
X1925Y7D01*
X0Y6D02*
X1925Y6D01*
X0Y5D02*
X1925Y5D01*
X0Y4D02*
X1925Y4D01*
X0Y3D02*
X1925Y3D01*
X0Y2D02*
X1925Y2D01*
X0Y1D02*
X1925Y1D01*
D02*
G04 End of Silk0*
M02*