G04 MADE WITH FRITZING*
G04 WWW.FRITZING.ORG*
G04 DOUBLE SIDED*
G04 HOLES PLATED*
G04 CONTOUR ON CENTER OF CONTOUR VECTOR*
%ASAXBY*%
%FSLAX23Y23*%
%MOIN*%
%OFA0B0*%
%SFA1.0B1.0*%
%ADD10R,1.926840X2.170330X1.910840X2.154330*%
%ADD11C,0.008000*%
%ADD12C,0.010000*%
%ADD13C,0.005000*%
%ADD14R,0.001000X0.001000*%
%LNSILK1*%
G90*
G70*
G54D11*
X4Y2166D02*
X1923Y2166D01*
X1923Y4D01*
X4Y4D01*
X4Y2166D01*
D02*
G54D12*
X830Y2103D02*
X830Y403D01*
D02*
X830Y403D02*
X930Y403D01*
D02*
X930Y403D02*
X930Y2103D01*
D02*
X930Y2103D02*
X830Y2103D01*
G54D13*
D02*
X830Y2068D02*
X865Y2103D01*
G54D12*
D02*
X1430Y2103D02*
X1430Y403D01*
D02*
X1430Y403D02*
X1530Y403D01*
D02*
X1530Y403D02*
X1530Y2103D01*
D02*
X1530Y2103D02*
X1430Y2103D01*
G54D13*
D02*
X1430Y2068D02*
X1465Y2103D01*
G54D12*
D02*
X92Y927D02*
X92Y642D01*
D02*
X92Y642D02*
X308Y642D01*
D02*
X308Y642D02*
X308Y927D01*
D02*
X308Y927D02*
X92Y927D01*
G54D13*
D02*
X268Y642D02*
X268Y927D01*
G54D12*
D02*
X430Y903D02*
X430Y603D01*
D02*
X430Y603D02*
X530Y603D01*
D02*
X530Y603D02*
X530Y903D01*
D02*
X530Y903D02*
X430Y903D01*
G54D13*
D02*
X430Y868D02*
X465Y903D01*
G54D12*
D02*
X192Y1527D02*
X192Y1242D01*
D02*
X192Y1242D02*
X408Y1242D01*
D02*
X408Y1242D02*
X408Y1527D01*
D02*
X408Y1527D02*
X192Y1527D01*
G54D13*
D02*
X368Y1242D02*
X368Y1527D01*
G54D12*
D02*
X430Y2103D02*
X430Y1803D01*
D02*
X430Y1803D02*
X530Y1803D01*
D02*
X530Y1803D02*
X530Y2103D01*
D02*
X530Y2103D02*
X430Y2103D01*
G54D13*
D02*
X430Y2068D02*
X465Y2103D01*
G54D12*
D02*
X1030Y203D02*
X1330Y203D01*
D02*
X1330Y203D02*
X1330Y303D01*
D02*
X1330Y303D02*
X1030Y303D01*
D02*
X1030Y303D02*
X1030Y203D01*
G54D13*
D02*
X1065Y203D02*
X1030Y238D01*
G54D12*
D02*
X1830Y1403D02*
X1830Y1603D01*
D02*
X1830Y1603D02*
X1730Y1603D01*
D02*
X1730Y1603D02*
X1730Y1403D01*
D02*
X1730Y1403D02*
X1830Y1403D01*
G54D13*
D02*
X1830Y1438D02*
X1795Y1403D01*
G54D14*
X561Y2170D02*
X567Y2170D01*
X582Y2170D02*
X588Y2170D01*
X608Y2170D02*
X641Y2170D01*
X961Y2170D02*
X967Y2170D01*
X981Y2170D02*
X987Y2170D01*
X1021Y2170D02*
X1027Y2170D01*
X1035Y2170D02*
X1041Y2170D01*
X1560Y2170D02*
X1566Y2170D01*
X1581Y2170D02*
X1587Y2170D01*
X1607Y2170D02*
X1613Y2170D01*
X561Y2169D02*
X567Y2169D01*
X582Y2169D02*
X588Y2169D01*
X608Y2169D02*
X641Y2169D01*
X961Y2169D02*
X967Y2169D01*
X981Y2169D02*
X987Y2169D01*
X1021Y2169D02*
X1027Y2169D01*
X1035Y2169D02*
X1041Y2169D01*
X1560Y2169D02*
X1566Y2169D01*
X1581Y2169D02*
X1587Y2169D01*
X1607Y2169D02*
X1613Y2169D01*
X561Y2168D02*
X567Y2168D01*
X582Y2168D02*
X588Y2168D01*
X608Y2168D02*
X641Y2168D01*
X961Y2168D02*
X967Y2168D01*
X981Y2168D02*
X987Y2168D01*
X1021Y2168D02*
X1027Y2168D01*
X1035Y2168D02*
X1041Y2168D01*
X1560Y2168D02*
X1566Y2168D01*
X1581Y2168D02*
X1587Y2168D01*
X1607Y2168D02*
X1613Y2168D01*
X561Y2167D02*
X567Y2167D01*
X582Y2167D02*
X588Y2167D01*
X608Y2167D02*
X641Y2167D01*
X961Y2167D02*
X967Y2167D01*
X981Y2167D02*
X987Y2167D01*
X1021Y2167D02*
X1027Y2167D01*
X1035Y2167D02*
X1041Y2167D01*
X1560Y2167D02*
X1566Y2167D01*
X1581Y2167D02*
X1587Y2167D01*
X1607Y2167D02*
X1613Y2167D01*
X561Y2166D02*
X567Y2166D01*
X582Y2166D02*
X588Y2166D01*
X608Y2166D02*
X614Y2166D01*
X635Y2166D02*
X641Y2166D01*
X961Y2166D02*
X967Y2166D01*
X981Y2166D02*
X987Y2166D01*
X1021Y2166D02*
X1027Y2166D01*
X1035Y2166D02*
X1041Y2166D01*
X1560Y2166D02*
X1566Y2166D01*
X1581Y2166D02*
X1587Y2166D01*
X1607Y2166D02*
X1613Y2166D01*
X561Y2165D02*
X567Y2165D01*
X582Y2165D02*
X588Y2165D01*
X608Y2165D02*
X614Y2165D01*
X635Y2165D02*
X641Y2165D01*
X961Y2165D02*
X967Y2165D01*
X981Y2165D02*
X987Y2165D01*
X1021Y2165D02*
X1027Y2165D01*
X1035Y2165D02*
X1041Y2165D01*
X1560Y2165D02*
X1566Y2165D01*
X1581Y2165D02*
X1587Y2165D01*
X1607Y2165D02*
X1613Y2165D01*
X561Y2164D02*
X567Y2164D01*
X582Y2164D02*
X588Y2164D01*
X608Y2164D02*
X614Y2164D01*
X635Y2164D02*
X641Y2164D01*
X961Y2164D02*
X967Y2164D01*
X981Y2164D02*
X987Y2164D01*
X1021Y2164D02*
X1027Y2164D01*
X1035Y2164D02*
X1041Y2164D01*
X1560Y2164D02*
X1566Y2164D01*
X1581Y2164D02*
X1587Y2164D01*
X1607Y2164D02*
X1613Y2164D01*
X561Y2163D02*
X567Y2163D01*
X582Y2163D02*
X588Y2163D01*
X608Y2163D02*
X614Y2163D01*
X635Y2163D02*
X641Y2163D01*
X961Y2163D02*
X967Y2163D01*
X981Y2163D02*
X987Y2163D01*
X1021Y2163D02*
X1027Y2163D01*
X1035Y2163D02*
X1041Y2163D01*
X1560Y2163D02*
X1566Y2163D01*
X1581Y2163D02*
X1587Y2163D01*
X1607Y2163D02*
X1613Y2163D01*
X561Y2162D02*
X567Y2162D01*
X582Y2162D02*
X588Y2162D01*
X608Y2162D02*
X614Y2162D01*
X635Y2162D02*
X641Y2162D01*
X961Y2162D02*
X967Y2162D01*
X981Y2162D02*
X987Y2162D01*
X1021Y2162D02*
X1027Y2162D01*
X1035Y2162D02*
X1041Y2162D01*
X1560Y2162D02*
X1566Y2162D01*
X1581Y2162D02*
X1587Y2162D01*
X1607Y2162D02*
X1613Y2162D01*
X561Y2161D02*
X567Y2161D01*
X582Y2161D02*
X588Y2161D01*
X608Y2161D02*
X614Y2161D01*
X635Y2161D02*
X641Y2161D01*
X961Y2161D02*
X967Y2161D01*
X981Y2161D02*
X987Y2161D01*
X1021Y2161D02*
X1027Y2161D01*
X1035Y2161D02*
X1041Y2161D01*
X1560Y2161D02*
X1566Y2161D01*
X1581Y2161D02*
X1587Y2161D01*
X1607Y2161D02*
X1613Y2161D01*
X561Y2160D02*
X567Y2160D01*
X582Y2160D02*
X588Y2160D01*
X608Y2160D02*
X614Y2160D01*
X635Y2160D02*
X641Y2160D01*
X961Y2160D02*
X967Y2160D01*
X981Y2160D02*
X987Y2160D01*
X1021Y2160D02*
X1027Y2160D01*
X1035Y2160D02*
X1041Y2160D01*
X1560Y2160D02*
X1566Y2160D01*
X1581Y2160D02*
X1587Y2160D01*
X1607Y2160D02*
X1613Y2160D01*
X561Y2159D02*
X567Y2159D01*
X581Y2159D02*
X588Y2159D01*
X608Y2159D02*
X614Y2159D01*
X635Y2159D02*
X641Y2159D01*
X961Y2159D02*
X967Y2159D01*
X981Y2159D02*
X987Y2159D01*
X1021Y2159D02*
X1027Y2159D01*
X1035Y2159D02*
X1041Y2159D01*
X1561Y2159D02*
X1567Y2159D01*
X1581Y2159D02*
X1587Y2159D01*
X1607Y2159D02*
X1613Y2159D01*
X561Y2158D02*
X567Y2158D01*
X581Y2158D02*
X587Y2158D01*
X608Y2158D02*
X614Y2158D01*
X635Y2158D02*
X641Y2158D01*
X961Y2158D02*
X967Y2158D01*
X981Y2158D02*
X987Y2158D01*
X1021Y2158D02*
X1027Y2158D01*
X1035Y2158D02*
X1041Y2158D01*
X1561Y2158D02*
X1567Y2158D01*
X1581Y2158D02*
X1587Y2158D01*
X1607Y2158D02*
X1613Y2158D01*
X561Y2157D02*
X568Y2157D01*
X580Y2157D02*
X587Y2157D01*
X608Y2157D02*
X614Y2157D01*
X635Y2157D02*
X641Y2157D01*
X961Y2157D02*
X968Y2157D01*
X980Y2157D02*
X987Y2157D01*
X1021Y2157D02*
X1027Y2157D01*
X1035Y2157D02*
X1041Y2157D01*
X1561Y2157D02*
X1568Y2157D01*
X1580Y2157D02*
X1587Y2157D01*
X1607Y2157D02*
X1613Y2157D01*
X562Y2156D02*
X587Y2156D01*
X608Y2156D02*
X641Y2156D01*
X961Y2156D02*
X987Y2156D01*
X1010Y2156D02*
X1041Y2156D01*
X1561Y2156D02*
X1586Y2156D01*
X1607Y2156D02*
X1638Y2156D01*
X562Y2155D02*
X586Y2155D01*
X608Y2155D02*
X641Y2155D01*
X962Y2155D02*
X986Y2155D01*
X1008Y2155D02*
X1041Y2155D01*
X1562Y2155D02*
X1586Y2155D01*
X1607Y2155D02*
X1640Y2155D01*
X563Y2154D02*
X586Y2154D01*
X608Y2154D02*
X641Y2154D01*
X962Y2154D02*
X986Y2154D01*
X1008Y2154D02*
X1041Y2154D01*
X1562Y2154D02*
X1585Y2154D01*
X1607Y2154D02*
X1641Y2154D01*
X563Y2153D02*
X585Y2153D01*
X608Y2153D02*
X641Y2153D01*
X963Y2153D02*
X985Y2153D01*
X1008Y2153D02*
X1041Y2153D01*
X1563Y2153D02*
X1585Y2153D01*
X1607Y2153D02*
X1641Y2153D01*
X564Y2152D02*
X584Y2152D01*
X608Y2152D02*
X641Y2152D01*
X964Y2152D02*
X984Y2152D01*
X1008Y2152D02*
X1041Y2152D01*
X1564Y2152D02*
X1584Y2152D01*
X1607Y2152D02*
X1641Y2152D01*
X566Y2151D02*
X583Y2151D01*
X608Y2151D02*
X641Y2151D01*
X965Y2151D02*
X983Y2151D01*
X1008Y2151D02*
X1041Y2151D01*
X1565Y2151D02*
X1582Y2151D01*
X1607Y2151D02*
X1640Y2151D01*
X568Y2150D02*
X581Y2150D01*
X609Y2150D02*
X640Y2150D01*
X967Y2150D02*
X981Y2150D01*
X1009Y2150D02*
X1040Y2150D01*
X1567Y2150D02*
X1581Y2150D01*
X1607Y2150D02*
X1639Y2150D01*
X1584Y1716D02*
X1628Y1716D01*
X1582Y1715D02*
X1630Y1715D01*
X1581Y1714D02*
X1631Y1714D01*
X1580Y1713D02*
X1631Y1713D01*
X1580Y1712D02*
X1632Y1712D01*
X1580Y1711D02*
X1632Y1711D01*
X1579Y1710D02*
X1632Y1710D01*
X1579Y1709D02*
X1585Y1709D01*
X1626Y1709D02*
X1632Y1709D01*
X1579Y1708D02*
X1585Y1708D01*
X1626Y1708D02*
X1632Y1708D01*
X1579Y1707D02*
X1585Y1707D01*
X1626Y1707D02*
X1632Y1707D01*
X1579Y1706D02*
X1585Y1706D01*
X1626Y1706D02*
X1632Y1706D01*
X1579Y1705D02*
X1585Y1705D01*
X1626Y1705D02*
X1632Y1705D01*
X1579Y1704D02*
X1585Y1704D01*
X1626Y1704D02*
X1632Y1704D01*
X1579Y1703D02*
X1585Y1703D01*
X1626Y1703D02*
X1632Y1703D01*
X1579Y1702D02*
X1585Y1702D01*
X1626Y1702D02*
X1632Y1702D01*
X1579Y1701D02*
X1585Y1701D01*
X1626Y1701D02*
X1632Y1701D01*
X1579Y1700D02*
X1585Y1700D01*
X1626Y1700D02*
X1632Y1700D01*
X1579Y1699D02*
X1585Y1699D01*
X1626Y1699D02*
X1632Y1699D01*
X1579Y1698D02*
X1585Y1698D01*
X1626Y1698D02*
X1632Y1698D01*
X1579Y1697D02*
X1585Y1697D01*
X1626Y1697D02*
X1632Y1697D01*
X1579Y1696D02*
X1585Y1696D01*
X1626Y1696D02*
X1632Y1696D01*
X1579Y1695D02*
X1585Y1695D01*
X1626Y1695D02*
X1632Y1695D01*
X1579Y1694D02*
X1585Y1694D01*
X1626Y1694D02*
X1632Y1694D01*
X1579Y1693D02*
X1585Y1693D01*
X1626Y1693D02*
X1632Y1693D01*
X1579Y1692D02*
X1585Y1692D01*
X1626Y1692D02*
X1632Y1692D01*
X1579Y1691D02*
X1585Y1691D01*
X1626Y1691D02*
X1632Y1691D01*
X1579Y1690D02*
X1585Y1690D01*
X1626Y1690D02*
X1632Y1690D01*
X1579Y1689D02*
X1586Y1689D01*
X1626Y1689D02*
X1632Y1689D01*
X1579Y1688D02*
X1632Y1688D01*
X1580Y1687D02*
X1632Y1687D01*
X1580Y1686D02*
X1632Y1686D01*
X1581Y1685D02*
X1631Y1685D01*
X1581Y1684D02*
X1630Y1684D01*
X1583Y1683D02*
X1629Y1683D01*
X1585Y1682D02*
X1627Y1682D01*
X1611Y1666D02*
X1630Y1666D01*
X1610Y1665D02*
X1632Y1665D01*
X1609Y1664D02*
X1632Y1664D01*
X1609Y1663D02*
X1632Y1663D01*
X1609Y1662D02*
X1632Y1662D01*
X1609Y1661D02*
X1632Y1661D01*
X1610Y1660D02*
X1632Y1660D01*
X1626Y1659D02*
X1632Y1659D01*
X1626Y1658D02*
X1632Y1658D01*
X1626Y1657D02*
X1632Y1657D01*
X1626Y1656D02*
X1632Y1656D01*
X1626Y1655D02*
X1632Y1655D01*
X1626Y1654D02*
X1632Y1654D01*
X1626Y1653D02*
X1632Y1653D01*
X1579Y1652D02*
X1632Y1652D01*
X1579Y1651D02*
X1632Y1651D01*
X1579Y1650D02*
X1632Y1650D01*
X1579Y1649D02*
X1632Y1649D01*
X1579Y1648D02*
X1632Y1648D01*
X1579Y1647D02*
X1632Y1647D01*
X1579Y1646D02*
X1632Y1646D01*
X1579Y1645D02*
X1585Y1645D01*
X1626Y1645D02*
X1632Y1645D01*
X1579Y1644D02*
X1585Y1644D01*
X1626Y1644D02*
X1632Y1644D01*
X1579Y1643D02*
X1585Y1643D01*
X1626Y1643D02*
X1632Y1643D01*
X1579Y1642D02*
X1585Y1642D01*
X1626Y1642D02*
X1632Y1642D01*
X1579Y1641D02*
X1585Y1641D01*
X1626Y1641D02*
X1632Y1641D01*
X1579Y1640D02*
X1585Y1640D01*
X1626Y1640D02*
X1632Y1640D01*
X1579Y1639D02*
X1585Y1639D01*
X1626Y1639D02*
X1632Y1639D01*
X1579Y1638D02*
X1585Y1638D01*
X1626Y1638D02*
X1632Y1638D01*
X1579Y1637D02*
X1585Y1637D01*
X1626Y1637D02*
X1632Y1637D01*
X1579Y1636D02*
X1585Y1636D01*
X1626Y1636D02*
X1632Y1636D01*
X1579Y1635D02*
X1585Y1635D01*
X1627Y1635D02*
X1632Y1635D01*
X1580Y1634D02*
X1585Y1634D01*
X1627Y1634D02*
X1632Y1634D01*
X1580Y1633D02*
X1585Y1633D01*
X1627Y1633D02*
X1632Y1633D01*
X1581Y1632D02*
X1583Y1632D01*
X1629Y1632D02*
X1630Y1632D01*
X462Y1627D02*
X464Y1627D01*
X493Y1627D02*
X517Y1627D01*
X460Y1626D02*
X465Y1626D01*
X493Y1626D02*
X518Y1626D01*
X460Y1625D02*
X465Y1625D01*
X493Y1625D02*
X519Y1625D01*
X460Y1624D02*
X466Y1624D01*
X493Y1624D02*
X519Y1624D01*
X460Y1623D02*
X466Y1623D01*
X493Y1623D02*
X519Y1623D01*
X460Y1622D02*
X466Y1622D01*
X493Y1622D02*
X519Y1622D01*
X460Y1621D02*
X466Y1621D01*
X493Y1621D02*
X518Y1621D01*
X460Y1620D02*
X466Y1620D01*
X493Y1620D02*
X499Y1620D01*
X460Y1619D02*
X466Y1619D01*
X493Y1619D02*
X499Y1619D01*
X460Y1618D02*
X466Y1618D01*
X493Y1618D02*
X499Y1618D01*
X460Y1617D02*
X466Y1617D01*
X493Y1617D02*
X499Y1617D01*
X460Y1616D02*
X466Y1616D01*
X493Y1616D02*
X499Y1616D01*
X460Y1615D02*
X466Y1615D01*
X493Y1615D02*
X499Y1615D01*
X460Y1614D02*
X466Y1614D01*
X493Y1614D02*
X499Y1614D01*
X460Y1613D02*
X466Y1613D01*
X493Y1613D02*
X499Y1613D01*
X460Y1612D02*
X466Y1612D01*
X493Y1612D02*
X499Y1612D01*
X1581Y1612D02*
X1625Y1612D01*
X460Y1611D02*
X466Y1611D01*
X493Y1611D02*
X499Y1611D01*
X1580Y1611D02*
X1627Y1611D01*
X460Y1610D02*
X466Y1610D01*
X493Y1610D02*
X499Y1610D01*
X1580Y1610D02*
X1629Y1610D01*
X460Y1609D02*
X466Y1609D01*
X493Y1609D02*
X499Y1609D01*
X1579Y1609D02*
X1630Y1609D01*
X460Y1608D02*
X466Y1608D01*
X493Y1608D02*
X499Y1608D01*
X1580Y1608D02*
X1631Y1608D01*
X460Y1607D02*
X466Y1607D01*
X493Y1607D02*
X499Y1607D01*
X1580Y1607D02*
X1631Y1607D01*
X460Y1606D02*
X466Y1606D01*
X493Y1606D02*
X499Y1606D01*
X1581Y1606D02*
X1632Y1606D01*
X460Y1605D02*
X466Y1605D01*
X493Y1605D02*
X499Y1605D01*
X1625Y1605D02*
X1632Y1605D01*
X460Y1604D02*
X466Y1604D01*
X493Y1604D02*
X499Y1604D01*
X1626Y1604D02*
X1632Y1604D01*
X460Y1603D02*
X466Y1603D01*
X493Y1603D02*
X515Y1603D01*
X1626Y1603D02*
X1632Y1603D01*
X460Y1602D02*
X466Y1602D01*
X493Y1602D02*
X517Y1602D01*
X1626Y1602D02*
X1632Y1602D01*
X460Y1601D02*
X466Y1601D01*
X493Y1601D02*
X518Y1601D01*
X1626Y1601D02*
X1632Y1601D01*
X1626Y1600D02*
X1632Y1600D01*
X1626Y1599D02*
X1632Y1599D01*
X1626Y1598D02*
X1632Y1598D01*
X1626Y1597D02*
X1632Y1597D01*
X1626Y1596D02*
X1632Y1596D01*
X1626Y1595D02*
X1632Y1595D01*
X1626Y1594D02*
X1632Y1594D01*
X1625Y1593D02*
X1632Y1593D01*
X1624Y1592D02*
X1632Y1592D01*
X1610Y1591D02*
X1631Y1591D01*
X1609Y1590D02*
X1631Y1590D01*
X1609Y1589D02*
X1630Y1589D01*
X1609Y1588D02*
X1629Y1588D01*
X1609Y1587D02*
X1628Y1587D01*
X1610Y1586D02*
X1627Y1586D01*
X1612Y1585D02*
X1623Y1585D01*
X362Y1027D02*
X364Y1027D01*
X388Y1027D02*
X415Y1027D01*
X360Y1026D02*
X365Y1026D01*
X386Y1026D02*
X416Y1026D01*
X360Y1025D02*
X365Y1025D01*
X386Y1025D02*
X418Y1025D01*
X360Y1024D02*
X366Y1024D01*
X386Y1024D02*
X418Y1024D01*
X360Y1023D02*
X366Y1023D01*
X386Y1023D02*
X419Y1023D01*
X360Y1022D02*
X366Y1022D01*
X386Y1022D02*
X419Y1022D01*
X360Y1021D02*
X366Y1021D01*
X388Y1021D02*
X419Y1021D01*
X360Y1020D02*
X366Y1020D01*
X413Y1020D02*
X419Y1020D01*
X360Y1019D02*
X366Y1019D01*
X413Y1019D02*
X419Y1019D01*
X360Y1018D02*
X366Y1018D01*
X413Y1018D02*
X419Y1018D01*
X360Y1017D02*
X366Y1017D01*
X413Y1017D02*
X419Y1017D01*
X360Y1016D02*
X366Y1016D01*
X413Y1016D02*
X419Y1016D01*
X360Y1015D02*
X366Y1015D01*
X413Y1015D02*
X419Y1015D01*
X360Y1014D02*
X366Y1014D01*
X413Y1014D02*
X419Y1014D01*
X360Y1013D02*
X366Y1013D01*
X413Y1013D02*
X419Y1013D01*
X360Y1012D02*
X366Y1012D01*
X413Y1012D02*
X419Y1012D01*
X360Y1011D02*
X366Y1011D01*
X413Y1011D02*
X419Y1011D01*
X360Y1010D02*
X366Y1010D01*
X413Y1010D02*
X419Y1010D01*
X360Y1009D02*
X366Y1009D01*
X413Y1009D02*
X419Y1009D01*
X360Y1008D02*
X366Y1008D01*
X413Y1008D02*
X419Y1008D01*
X360Y1007D02*
X366Y1007D01*
X413Y1007D02*
X419Y1007D01*
X360Y1006D02*
X366Y1006D01*
X413Y1006D02*
X419Y1006D01*
X360Y1005D02*
X366Y1005D01*
X412Y1005D02*
X419Y1005D01*
X360Y1004D02*
X366Y1004D01*
X410Y1004D02*
X419Y1004D01*
X360Y1003D02*
X366Y1003D01*
X394Y1003D02*
X418Y1003D01*
X583Y1003D02*
X586Y1003D01*
X611Y1003D02*
X614Y1003D01*
X360Y1002D02*
X366Y1002D01*
X393Y1002D02*
X418Y1002D01*
X582Y1002D02*
X587Y1002D01*
X610Y1002D02*
X615Y1002D01*
X360Y1001D02*
X366Y1001D01*
X393Y1001D02*
X417Y1001D01*
X582Y1001D02*
X587Y1001D01*
X610Y1001D02*
X615Y1001D01*
X360Y1000D02*
X366Y1000D01*
X393Y1000D02*
X417Y1000D01*
X582Y1000D02*
X588Y1000D01*
X609Y1000D02*
X615Y1000D01*
X360Y999D02*
X366Y999D01*
X393Y999D02*
X418Y999D01*
X582Y999D02*
X588Y999D01*
X609Y999D02*
X615Y999D01*
X360Y998D02*
X366Y998D01*
X394Y998D02*
X418Y998D01*
X582Y998D02*
X588Y998D01*
X609Y998D02*
X615Y998D01*
X340Y997D02*
X344Y997D01*
X360Y997D02*
X366Y997D01*
X396Y997D02*
X419Y997D01*
X582Y997D02*
X588Y997D01*
X609Y997D02*
X615Y997D01*
X632Y997D02*
X635Y997D01*
X339Y996D02*
X345Y996D01*
X360Y996D02*
X366Y996D01*
X412Y996D02*
X419Y996D01*
X582Y996D02*
X588Y996D01*
X609Y996D02*
X615Y996D01*
X631Y996D02*
X635Y996D01*
X339Y995D02*
X345Y995D01*
X360Y995D02*
X366Y995D01*
X413Y995D02*
X419Y995D01*
X582Y995D02*
X588Y995D01*
X609Y995D02*
X615Y995D01*
X630Y995D02*
X636Y995D01*
X339Y994D02*
X345Y994D01*
X360Y994D02*
X366Y994D01*
X413Y994D02*
X419Y994D01*
X582Y994D02*
X588Y994D01*
X609Y994D02*
X615Y994D01*
X630Y994D02*
X636Y994D01*
X339Y993D02*
X345Y993D01*
X360Y993D02*
X366Y993D01*
X413Y993D02*
X419Y993D01*
X582Y993D02*
X588Y993D01*
X609Y993D02*
X615Y993D01*
X630Y993D02*
X636Y993D01*
X339Y992D02*
X345Y992D01*
X360Y992D02*
X366Y992D01*
X413Y992D02*
X419Y992D01*
X582Y992D02*
X588Y992D01*
X609Y992D02*
X615Y992D01*
X630Y992D02*
X636Y992D01*
X339Y991D02*
X345Y991D01*
X360Y991D02*
X366Y991D01*
X413Y991D02*
X419Y991D01*
X582Y991D02*
X588Y991D01*
X609Y991D02*
X615Y991D01*
X630Y991D02*
X636Y991D01*
X339Y990D02*
X345Y990D01*
X360Y990D02*
X366Y990D01*
X413Y990D02*
X419Y990D01*
X582Y990D02*
X588Y990D01*
X609Y990D02*
X615Y990D01*
X630Y990D02*
X636Y990D01*
X339Y989D02*
X345Y989D01*
X360Y989D02*
X366Y989D01*
X413Y989D02*
X419Y989D01*
X582Y989D02*
X588Y989D01*
X609Y989D02*
X615Y989D01*
X630Y989D02*
X636Y989D01*
X339Y988D02*
X345Y988D01*
X360Y988D02*
X366Y988D01*
X413Y988D02*
X419Y988D01*
X582Y988D02*
X588Y988D01*
X609Y988D02*
X615Y988D01*
X630Y988D02*
X636Y988D01*
X339Y987D02*
X345Y987D01*
X360Y987D02*
X366Y987D01*
X413Y987D02*
X419Y987D01*
X582Y987D02*
X588Y987D01*
X609Y987D02*
X615Y987D01*
X630Y987D02*
X636Y987D01*
X339Y986D02*
X345Y986D01*
X360Y986D02*
X366Y986D01*
X413Y986D02*
X419Y986D01*
X582Y986D02*
X588Y986D01*
X609Y986D02*
X615Y986D01*
X630Y986D02*
X636Y986D01*
X339Y985D02*
X345Y985D01*
X360Y985D02*
X366Y985D01*
X413Y985D02*
X419Y985D01*
X582Y985D02*
X588Y985D01*
X609Y985D02*
X615Y985D01*
X630Y985D02*
X636Y985D01*
X339Y984D02*
X345Y984D01*
X360Y984D02*
X366Y984D01*
X413Y984D02*
X419Y984D01*
X582Y984D02*
X588Y984D01*
X609Y984D02*
X615Y984D01*
X630Y984D02*
X636Y984D01*
X339Y983D02*
X345Y983D01*
X360Y983D02*
X366Y983D01*
X413Y983D02*
X419Y983D01*
X582Y983D02*
X588Y983D01*
X609Y983D02*
X615Y983D01*
X630Y983D02*
X636Y983D01*
X339Y982D02*
X346Y982D01*
X359Y982D02*
X366Y982D01*
X413Y982D02*
X419Y982D01*
X582Y982D02*
X588Y982D01*
X609Y982D02*
X615Y982D01*
X630Y982D02*
X636Y982D01*
X339Y981D02*
X347Y981D01*
X358Y981D02*
X365Y981D01*
X413Y981D02*
X419Y981D01*
X582Y981D02*
X588Y981D01*
X609Y981D02*
X615Y981D01*
X630Y981D02*
X636Y981D01*
X340Y980D02*
X365Y980D01*
X388Y980D02*
X419Y980D01*
X582Y980D02*
X588Y980D01*
X609Y980D02*
X615Y980D01*
X630Y980D02*
X636Y980D01*
X340Y979D02*
X364Y979D01*
X387Y979D02*
X419Y979D01*
X582Y979D02*
X588Y979D01*
X609Y979D02*
X615Y979D01*
X630Y979D02*
X636Y979D01*
X341Y978D02*
X364Y978D01*
X386Y978D02*
X419Y978D01*
X582Y978D02*
X588Y978D01*
X609Y978D02*
X615Y978D01*
X630Y978D02*
X636Y978D01*
X342Y977D02*
X363Y977D01*
X386Y977D02*
X418Y977D01*
X582Y977D02*
X588Y977D01*
X609Y977D02*
X615Y977D01*
X630Y977D02*
X636Y977D01*
X343Y976D02*
X362Y976D01*
X386Y976D02*
X418Y976D01*
X582Y976D02*
X588Y976D01*
X609Y976D02*
X615Y976D01*
X630Y976D02*
X636Y976D01*
X344Y975D02*
X361Y975D01*
X386Y975D02*
X417Y975D01*
X582Y975D02*
X588Y975D01*
X609Y975D02*
X615Y975D01*
X630Y975D02*
X636Y975D01*
X346Y974D02*
X359Y974D01*
X387Y974D02*
X415Y974D01*
X564Y974D02*
X564Y974D01*
X582Y974D02*
X588Y974D01*
X609Y974D02*
X637Y974D01*
X562Y973D02*
X566Y973D01*
X582Y973D02*
X588Y973D01*
X609Y973D02*
X639Y973D01*
X561Y972D02*
X567Y972D01*
X582Y972D02*
X588Y972D01*
X609Y972D02*
X639Y972D01*
X561Y971D02*
X567Y971D01*
X582Y971D02*
X588Y971D01*
X609Y971D02*
X638Y971D01*
X561Y970D02*
X567Y970D01*
X582Y970D02*
X588Y970D01*
X609Y970D02*
X638Y970D01*
X561Y969D02*
X567Y969D01*
X582Y969D02*
X588Y969D01*
X609Y969D02*
X637Y969D01*
X561Y968D02*
X567Y968D01*
X582Y968D02*
X588Y968D01*
X609Y968D02*
X637Y968D01*
X561Y967D02*
X567Y967D01*
X582Y967D02*
X588Y967D01*
X630Y967D02*
X636Y967D01*
X561Y966D02*
X567Y966D01*
X582Y966D02*
X588Y966D01*
X630Y966D02*
X636Y966D01*
X561Y965D02*
X567Y965D01*
X582Y965D02*
X588Y965D01*
X630Y965D02*
X636Y965D01*
X561Y964D02*
X567Y964D01*
X582Y964D02*
X588Y964D01*
X630Y964D02*
X636Y964D01*
X561Y963D02*
X567Y963D01*
X582Y963D02*
X588Y963D01*
X630Y963D02*
X636Y963D01*
X561Y962D02*
X567Y962D01*
X582Y962D02*
X588Y962D01*
X630Y962D02*
X635Y962D01*
X561Y961D02*
X567Y961D01*
X582Y961D02*
X588Y961D01*
X630Y961D02*
X635Y961D01*
X561Y960D02*
X567Y960D01*
X582Y960D02*
X588Y960D01*
X630Y960D02*
X635Y960D01*
X561Y959D02*
X567Y959D01*
X581Y959D02*
X588Y959D01*
X630Y959D02*
X635Y959D01*
X561Y958D02*
X568Y958D01*
X581Y958D02*
X587Y958D01*
X630Y958D02*
X635Y958D01*
X561Y957D02*
X569Y957D01*
X580Y957D02*
X587Y957D01*
X630Y957D02*
X635Y957D01*
X562Y956D02*
X587Y956D01*
X630Y956D02*
X635Y956D01*
X562Y955D02*
X586Y955D01*
X630Y955D02*
X635Y955D01*
X563Y954D02*
X586Y954D01*
X630Y954D02*
X635Y954D01*
X564Y953D02*
X585Y953D01*
X630Y953D02*
X635Y953D01*
X565Y952D02*
X584Y952D01*
X630Y952D02*
X635Y952D01*
X566Y951D02*
X583Y951D01*
X631Y951D02*
X635Y951D01*
X568Y950D02*
X580Y950D01*
X632Y950D02*
X634Y950D01*
X932Y416D02*
X981Y416D01*
X930Y415D02*
X982Y415D01*
X930Y414D02*
X983Y414D01*
X930Y413D02*
X983Y413D01*
X930Y412D02*
X983Y412D01*
X930Y411D02*
X983Y411D01*
X930Y410D02*
X983Y410D01*
X930Y409D02*
X936Y409D01*
X947Y409D02*
X953Y409D01*
X977Y409D02*
X983Y409D01*
X930Y408D02*
X936Y408D01*
X947Y408D02*
X953Y408D01*
X977Y408D02*
X982Y408D01*
X930Y407D02*
X936Y407D01*
X947Y407D02*
X953Y407D01*
X978Y407D02*
X982Y407D01*
X930Y406D02*
X936Y406D01*
X947Y406D02*
X953Y406D01*
X930Y405D02*
X936Y405D01*
X947Y405D02*
X953Y405D01*
X930Y404D02*
X936Y404D01*
X947Y404D02*
X953Y404D01*
X930Y403D02*
X936Y403D01*
X947Y403D02*
X953Y403D01*
X930Y402D02*
X936Y402D01*
X947Y402D02*
X953Y402D01*
X930Y401D02*
X936Y401D01*
X947Y401D02*
X953Y401D01*
X930Y400D02*
X936Y400D01*
X947Y400D02*
X953Y400D01*
X930Y399D02*
X936Y399D01*
X947Y399D02*
X953Y399D01*
X930Y398D02*
X936Y398D01*
X947Y398D02*
X953Y398D01*
X930Y397D02*
X936Y397D01*
X947Y397D02*
X953Y397D01*
X930Y396D02*
X936Y396D01*
X947Y396D02*
X953Y396D01*
X930Y395D02*
X936Y395D01*
X947Y395D02*
X953Y395D01*
X930Y394D02*
X936Y394D01*
X947Y394D02*
X953Y394D01*
X930Y393D02*
X936Y393D01*
X947Y393D02*
X953Y393D01*
X930Y392D02*
X936Y392D01*
X947Y392D02*
X953Y392D01*
X930Y391D02*
X936Y391D01*
X947Y391D02*
X953Y391D01*
X930Y390D02*
X936Y390D01*
X947Y390D02*
X953Y390D01*
X930Y389D02*
X936Y389D01*
X947Y389D02*
X953Y389D01*
X930Y388D02*
X953Y388D01*
X930Y387D02*
X953Y387D01*
X930Y386D02*
X953Y386D01*
X930Y385D02*
X953Y385D01*
X930Y384D02*
X953Y384D01*
X931Y383D02*
X952Y383D01*
X932Y382D02*
X951Y382D01*
X931Y362D02*
X976Y362D01*
X930Y361D02*
X978Y361D01*
X930Y360D02*
X979Y360D01*
X930Y359D02*
X980Y359D01*
X930Y358D02*
X981Y358D01*
X931Y357D02*
X982Y357D01*
X932Y356D02*
X982Y356D01*
X975Y355D02*
X982Y355D01*
X976Y354D02*
X983Y354D01*
X977Y353D02*
X983Y353D01*
X977Y352D02*
X983Y352D01*
X977Y351D02*
X983Y351D01*
X977Y350D02*
X983Y350D01*
X977Y349D02*
X983Y349D01*
X977Y348D02*
X983Y348D01*
X977Y347D02*
X983Y347D01*
X977Y346D02*
X983Y346D01*
X977Y345D02*
X983Y345D01*
X976Y344D02*
X983Y344D01*
X976Y343D02*
X982Y343D01*
X962Y342D02*
X982Y342D01*
X960Y341D02*
X982Y341D01*
X959Y340D02*
X981Y340D01*
X959Y339D02*
X980Y339D01*
X959Y338D02*
X979Y338D01*
X959Y337D02*
X978Y337D01*
X960Y336D02*
X977Y336D01*
D02*
G04 End of Silk1*
M02*