G04 MADE WITH FRITZING*
G04 WWW.FRITZING.ORG*
G04 DOUBLE SIDED*
G04 HOLES PLATED*
G04 CONTOUR ON CENTER OF CONTOUR VECTOR*
%ASAXBY*%
%FSLAX23Y23*%
%MOIN*%
%OFA0B0*%
%SFA1.0B1.0*%
%ADD10C,0.067717*%
%ADD11C,0.080000*%
%ADD12C,0.082000*%
%ADD13C,0.078000*%
%ADD14C,0.075000*%
%ADD15R,0.080000X0.080000*%
%ADD16R,0.082000X0.082000*%
%ADD17C,0.048000*%
%ADD18C,0.032000*%
%ADD19C,0.024000*%
%ADD20R,0.001000X0.001000*%
%LNCOPPER0*%
G90*
G70*
G54D10*
X1780Y1453D03*
X1780Y1553D03*
X1080Y253D03*
X1180Y253D03*
X1280Y253D03*
X480Y2053D03*
X480Y1953D03*
X480Y1853D03*
X1480Y2053D03*
X1480Y1953D03*
X1480Y1853D03*
X1480Y1753D03*
X1480Y1653D03*
X1480Y1553D03*
X1480Y1453D03*
X1480Y1353D03*
X1480Y1253D03*
X1480Y1153D03*
X1480Y1053D03*
X1480Y953D03*
X1480Y853D03*
X1480Y753D03*
X1480Y653D03*
X1480Y553D03*
X1480Y453D03*
X880Y2053D03*
X880Y1953D03*
X880Y1853D03*
X880Y1753D03*
X880Y1653D03*
X880Y1553D03*
X880Y1453D03*
X880Y1353D03*
X880Y1253D03*
X880Y1153D03*
X880Y1053D03*
X880Y953D03*
X880Y853D03*
X880Y753D03*
X880Y653D03*
X880Y553D03*
X880Y453D03*
X480Y853D03*
X480Y753D03*
X480Y653D03*
G54D11*
X280Y1453D03*
X280Y1316D03*
X180Y853D03*
X180Y716D03*
G54D12*
X480Y1553D03*
X480Y1255D03*
X480Y1553D03*
X480Y1255D03*
G54D13*
X680Y953D03*
X680Y753D03*
X680Y953D03*
X680Y753D03*
X580Y653D03*
X580Y453D03*
X580Y653D03*
X580Y453D03*
G54D14*
X1780Y2053D03*
X1780Y1653D03*
X1780Y2053D03*
X1780Y1653D03*
G54D15*
X280Y1453D03*
X180Y853D03*
G54D16*
X480Y1554D03*
X480Y1554D03*
G54D17*
X439Y662D02*
X221Y707D01*
D02*
X220Y840D02*
X440Y767D01*
D02*
X306Y1299D02*
X379Y1254D01*
D02*
X379Y1254D02*
X470Y894D01*
D02*
X539Y653D02*
X522Y653D01*
D02*
X838Y753D02*
X681Y754D01*
D02*
X681Y754D02*
X522Y753D01*
D02*
X379Y1254D02*
X448Y1255D01*
D02*
X306Y1299D02*
X379Y1254D01*
D02*
X302Y1475D02*
X379Y1552D01*
D02*
X379Y1552D02*
X448Y1553D01*
D02*
X511Y2053D02*
X849Y2053D01*
D02*
X511Y1954D02*
X580Y1954D01*
D02*
X580Y1954D02*
X677Y1851D01*
D02*
X677Y1851D02*
X677Y1655D01*
D02*
X677Y1655D02*
X508Y1568D01*
D02*
X178Y1752D02*
X280Y1854D01*
D02*
X180Y884D02*
X178Y1752D01*
D02*
X280Y1854D02*
X449Y1853D01*
G54D18*
D02*
X482Y554D02*
X480Y623D01*
D02*
X559Y475D02*
X482Y554D01*
D02*
X507Y867D02*
X653Y940D01*
G54D17*
D02*
X849Y653D02*
X610Y653D01*
D02*
X1579Y953D02*
X1511Y953D01*
D02*
X1678Y255D02*
X1670Y849D01*
D02*
X1379Y51D02*
X1678Y255D01*
D02*
X1670Y849D02*
X1579Y953D01*
D02*
X1180Y155D02*
X1280Y51D01*
D02*
X1180Y223D02*
X1180Y155D01*
D02*
X1280Y51D02*
X1379Y51D01*
D02*
X1080Y754D02*
X980Y853D01*
D02*
X1080Y284D02*
X1080Y754D01*
D02*
X980Y853D02*
X911Y853D01*
D02*
X1280Y953D02*
X1280Y284D01*
D02*
X911Y1153D02*
X1080Y1153D01*
D02*
X1080Y1153D02*
X1280Y953D01*
G54D19*
D02*
X1780Y1584D02*
X1780Y1625D01*
G54D17*
D02*
X1511Y2053D02*
X1751Y2053D01*
D02*
X1670Y849D02*
X1778Y1053D01*
D02*
X1778Y1053D02*
X1780Y1423D01*
G54D20*
X182Y586D02*
X190Y586D01*
X180Y585D02*
X192Y585D01*
X179Y584D02*
X193Y584D01*
X178Y583D02*
X194Y583D01*
X177Y582D02*
X195Y582D01*
X176Y581D02*
X196Y581D01*
X176Y580D02*
X197Y580D01*
X175Y579D02*
X197Y579D01*
X175Y578D02*
X197Y578D01*
X175Y577D02*
X198Y577D01*
X175Y576D02*
X198Y576D01*
X174Y575D02*
X198Y575D01*
X174Y574D02*
X198Y574D01*
X174Y573D02*
X198Y573D01*
X174Y572D02*
X198Y572D01*
X174Y571D02*
X198Y571D01*
X174Y570D02*
X198Y570D01*
X174Y569D02*
X198Y569D01*
X174Y568D02*
X198Y568D01*
X174Y567D02*
X198Y567D01*
X174Y566D02*
X198Y566D01*
X174Y565D02*
X198Y565D01*
X174Y564D02*
X198Y564D01*
X174Y563D02*
X198Y563D01*
X174Y562D02*
X198Y562D01*
X174Y561D02*
X198Y561D01*
X174Y560D02*
X198Y560D01*
X174Y559D02*
X198Y559D01*
X174Y558D02*
X198Y558D01*
X174Y557D02*
X198Y557D01*
X174Y556D02*
X198Y556D01*
X174Y555D02*
X198Y555D01*
X174Y554D02*
X198Y554D01*
X174Y553D02*
X198Y553D01*
X174Y552D02*
X198Y552D01*
X174Y551D02*
X198Y551D01*
X174Y550D02*
X198Y550D01*
X174Y549D02*
X198Y549D01*
X174Y548D02*
X198Y548D01*
X174Y547D02*
X198Y547D01*
X174Y546D02*
X198Y546D01*
X174Y545D02*
X198Y545D01*
X174Y544D02*
X198Y544D01*
X174Y543D02*
X198Y543D01*
X174Y542D02*
X198Y542D01*
X174Y541D02*
X198Y541D01*
X174Y540D02*
X198Y540D01*
X174Y539D02*
X198Y539D01*
X134Y538D02*
X238Y538D01*
X132Y537D02*
X240Y537D01*
X131Y536D02*
X241Y536D01*
X130Y535D02*
X243Y535D01*
X129Y534D02*
X243Y534D01*
X128Y533D02*
X244Y533D01*
X128Y532D02*
X245Y532D01*
X127Y531D02*
X245Y531D01*
X127Y530D02*
X245Y530D01*
X126Y529D02*
X246Y529D01*
X126Y528D02*
X246Y528D01*
X126Y527D02*
X246Y527D01*
X126Y526D02*
X246Y526D01*
X126Y525D02*
X246Y525D01*
X126Y524D02*
X246Y524D01*
X127Y523D02*
X245Y523D01*
X127Y522D02*
X245Y522D01*
X128Y521D02*
X244Y521D01*
X128Y520D02*
X244Y520D01*
X129Y519D02*
X243Y519D01*
X130Y518D02*
X242Y518D01*
X131Y517D02*
X241Y517D01*
X133Y516D02*
X240Y516D01*
X135Y515D02*
X237Y515D01*
X174Y514D02*
X198Y514D01*
X174Y513D02*
X198Y513D01*
X174Y512D02*
X198Y512D01*
X174Y511D02*
X198Y511D01*
X174Y510D02*
X198Y510D01*
X174Y509D02*
X198Y509D01*
X174Y508D02*
X198Y508D01*
X174Y507D02*
X198Y507D01*
X174Y506D02*
X198Y506D01*
X174Y505D02*
X198Y505D01*
X174Y504D02*
X198Y504D01*
X174Y503D02*
X198Y503D01*
X174Y502D02*
X198Y502D01*
X174Y501D02*
X198Y501D01*
X174Y500D02*
X198Y500D01*
X174Y499D02*
X198Y499D01*
X174Y498D02*
X198Y498D01*
X174Y497D02*
X198Y497D01*
X174Y496D02*
X198Y496D01*
X174Y495D02*
X198Y495D01*
X174Y494D02*
X198Y494D01*
X174Y493D02*
X198Y493D01*
X174Y492D02*
X198Y492D01*
X174Y491D02*
X198Y491D01*
X174Y490D02*
X198Y490D01*
X174Y489D02*
X198Y489D01*
X174Y488D02*
X198Y488D01*
X174Y487D02*
X198Y487D01*
X174Y486D02*
X198Y486D01*
X174Y485D02*
X198Y485D01*
X174Y484D02*
X198Y484D01*
X174Y483D02*
X198Y483D01*
X174Y482D02*
X198Y482D01*
X174Y481D02*
X198Y481D01*
X174Y480D02*
X198Y480D01*
X174Y479D02*
X198Y479D01*
X174Y478D02*
X198Y478D01*
X175Y477D02*
X198Y477D01*
X175Y476D02*
X198Y476D01*
X175Y475D02*
X197Y475D01*
X175Y474D02*
X197Y474D01*
X176Y473D02*
X196Y473D01*
X176Y472D02*
X196Y472D01*
X177Y471D02*
X195Y471D01*
X178Y470D02*
X194Y470D01*
X179Y469D02*
X193Y469D01*
X180Y468D02*
X192Y468D01*
X182Y467D02*
X190Y467D01*
D02*
G04 End of Copper0*
M02*